{"glyphs":{"0":{"ha":286,"x_min":15,"x_max":324,"o":"m 235 364 q 257 368 247 368 q 298 357 276 368 q 321 329 319 346 q 323 313 322 322 q 324 294 324 304 q 288 154 324 229 q 194 44 249 75 q 85 0 121 0 q 15 79 15 0 q 79 256 15 179 q 235 364 140 331 m 232 335 q 142 278 178 328 q 86 179 126 258 q 65 88 65 110 q 97 25 65 44 q 244 156 186 25 q 279 304 279 233 q 232 335 275 335 "},"1":{"ha":182,"x_min":7,"x_max":276,"o":"m 160 278 q 207 328 172 286 q 260 365 238 365 q 276 361 268 365 q 179 203 239 315 q 83 46 122 93 q 64 0 83 13 l 7 1 q 47 70 26 36 q 92 140 68 104 l 185 283 q 171 282 181 286 q 160 278 161 278 m 32 203 l 21 204 q 78 233 44 215 q 156 275 111 251 q 32 203 133 254 "},"2":{"ha":367,"x_min":17,"x_max":400,"o":"m 203 314 q 317 365 246 365 q 385 346 354 365 q 400 292 400 322 q 389 235 400 265 q 260 133 347 176 l 106 67 q 178 49 129 67 q 250 32 228 32 q 314 67 292 32 q 339 101 314 85 q 343 92 343 97 q 335 78 343 83 q 319 60 319 65 q 200 4 256 4 q 75 42 181 4 q 43 22 54 42 q 19 4 33 4 q 35 38 17 24 l 68 63 q 131 90 100 76 q 193 118 161 104 q 308 193 271 154 q 360 311 360 243 q 293 358 335 358 q 219 310 256 358 q 203 253 199 282 q 250 233 215 229 q 263 242 256 235 q 276 257 269 249 q 290 272 283 265 q 301 281 297 278 q 221 203 278 203 q 167 250 167 203 q 203 314 167 269 "},"3":{"ha":331,"x_min":19,"x_max":372,"o":"m 282 365 q 258 356 271 360 q 233 347 246 351 q 196 317 204 333 q 188 288 188 300 q 228 244 188 244 q 286 279 260 244 q 275 276 279 281 l 267 268 q 218 293 228 263 q 213 306 213 299 q 217 319 213 310 q 221 333 221 329 q 272 351 247 351 q 308 338 293 351 q 324 304 324 325 q 318 283 324 293 q 231 225 294 225 l 171 218 q 138 196 146 217 q 217 213 164 213 q 260 151 260 192 q 244 109 256 131 q 217 69 232 88 q 183 38 201 51 q 143 18 164 24 q 115 14 128 15 q 96 13 103 13 q 26 43 47 13 q 138 0 68 0 q 246 44 189 0 q 304 149 304 88 q 265 217 304 192 q 306 235 276 225 q 342 258 332 244 q 365 321 372 285 q 282 365 338 365 m 39 136 q 79 154 53 154 q 150 133 101 154 q 139 118 144 126 q 126 99 133 110 q 64 124 93 124 q 24 69 24 124 l 24 57 q 25 47 24 50 q 19 82 19 64 q 28 115 19 99 l 39 136 "},"4":{"ha":343,"x_min":15,"x_max":328,"o":"m 282 361 q 297 361 289 358 q 308 363 304 363 q 313 364 311 364 q 322 363 319 364 q 265 263 322 319 q 99 124 201 182 q 282 361 233 261 m 104 119 q 154 104 117 111 q 197 92 192 97 l 138 0 l 171 0 q 196 4 189 0 q 219 56 200 25 q 247 103 243 92 q 271 106 256 106 l 292 106 q 328 138 328 106 q 299 124 317 138 q 272 110 281 110 q 258 114 267 110 q 290 167 274 140 q 321 219 306 193 q 239 163 293 219 q 154 107 185 107 q 104 119 133 107 m 15 92 l 96 119 q 56 100 88 111 q 15 71 21 89 l 15 92 "},"5":{"ha":346,"x_min":31,"x_max":378,"o":"m 249 365 q 307 354 278 354 q 327 355 318 354 q 343 357 336 356 l 375 361 q 378 349 378 353 q 342 317 378 332 q 315 310 325 310 q 283 314 304 310 q 251 318 263 318 q 218 293 224 318 q 188 244 204 264 q 218 246 200 242 q 250 251 240 251 q 307 211 279 251 q 319 171 319 192 q 239 40 319 107 q 126 0 190 0 q 43 28 75 6 q 31 81 31 53 q 68 140 31 121 q 110 150 86 150 q 158 139 133 150 q 172 124 169 133 q 143 99 164 99 q 107 110 133 99 q 72 121 81 121 q 39 82 49 121 q 54 29 33 49 q 108 10 75 10 q 182 26 142 10 q 275 168 254 90 q 235 225 269 218 q 138 178 200 231 l 135 183 q 249 365 210 274 "},"6":{"ha":313,"x_min":18,"x_max":357,"o":"m 151 318 q 276 367 221 367 q 342 342 314 367 q 349 322 342 338 q 357 296 357 306 q 356 286 357 289 q 324 276 338 276 q 296 314 306 276 q 269 351 285 351 q 183 307 232 351 q 148 272 164 290 q 118 233 132 253 q 61 75 72 163 q 103 11 61 24 q 179 47 147 11 q 199 76 189 58 q 224 122 210 94 q 224 142 221 129 q 224 153 224 147 q 225 164 224 158 q 200 208 225 197 q 186 210 196 210 q 136 190 163 210 q 119 163 126 182 q 106 140 113 143 q 172 239 117 208 q 194 242 183 240 q 217 246 206 243 q 264 215 250 246 q 271 181 271 197 q 258 124 271 163 q 203 47 244 85 q 122 0 163 11 q 83 1 99 0 q 61 3 68 1 q 22 43 33 11 q 18 88 18 65 q 151 318 18 206 "},"7":{"ha":199,"x_min":15,"x_max":307,"o":"m 57 286 q 81 328 67 296 q 108 365 94 361 q 108 360 106 363 q 119 351 119 351 q 157 365 138 365 q 211 349 174 365 q 261 333 250 333 q 307 357 286 333 q 64 4 150 200 q 44 0 57 0 l 15 0 l 15 25 l 125 175 q 242 306 181 253 q 122 340 211 303 l 57 286 "},"8":{"ha":286,"x_min":15,"x_max":332,"o":"m 235 363 q 332 294 332 372 q 282 228 332 249 l 231 207 q 261 111 261 142 q 203 22 261 57 q 122 0 168 0 q 63 17 89 0 q 22 63 31 33 q 15 92 15 88 q 54 164 15 129 q 74 174 58 167 q 118 190 90 181 q 161 228 161 204 q 147 285 147 257 q 235 363 147 363 m 181 300 q 194 260 181 283 q 210 235 204 243 q 219 224 215 226 q 224 221 222 221 q 228 221 225 221 q 249 230 238 221 q 267 240 261 239 q 292 297 292 261 q 289 314 292 300 q 231 349 272 349 q 181 300 181 349 m 168 193 q 71 133 94 188 q 57 92 57 115 q 81 36 57 68 q 131 14 94 14 q 207 51 190 14 q 211 67 208 54 q 219 99 214 79 q 168 193 219 140 "},"9":{"ha":340,"x_min":18,"x_max":354,"o":"m 267 365 q 349 324 332 365 q 354 272 354 303 q 313 138 354 204 q 210 39 271 71 q 96 -3 132 -3 q 69 3 83 -3 q 44 19 56 10 q 25 40 32 28 q 18 65 18 53 q 19 78 18 75 l 63 75 q 61 61 61 71 q 88 14 61 31 q 100 12 94 13 q 108 11 106 11 q 251 122 169 11 q 263 145 253 126 q 290 197 272 164 q 315 278 315 243 q 300 328 315 306 q 258 351 285 351 q 242 346 247 351 q 211 331 226 342 q 183 305 196 319 q 162 274 171 290 q 149 243 153 258 q 142 206 142 208 q 169 151 142 167 q 186 146 175 146 q 253 192 213 146 l 269 217 q 196 124 269 168 q 160 117 175 117 q 111 131 124 117 q 99 182 99 146 q 149 301 99 249 q 267 365 203 356 "},">":{"ha":694,"x_min":88,"x_max":608,"o":"m 88 0 l 88 956 l 608 956 l 608 0 l 88 0 m 174 88 l 521 88 l 521 869 l 174 869 l 174 88 "},"\u0006":{"ha":344,"x_min":-56,"x_max":347,"o":"m 290 608 l 342 607 q 228 418 279 507 q 135 250 176 329 q 168 260 143 249 q 204 276 196 274 q 250 283 229 283 q 303 242 296 283 q 247 138 296 208 q 193 28 200 65 q 211 19 194 19 q 301 54 254 19 q 347 104 319 68 q 249 19 324 47 q 181 4 207 4 q 149 35 149 4 q 167 83 149 38 q 217 165 174 100 q 254 247 254 224 q 219 269 254 269 q 81 163 146 269 q 55 115 78 156 q -8 0 32 75 l -56 1 l 290 608 "},"\u001a":{"ha":335,"x_min":-231,"x_max":886,"o":"m 293 271 l 333 269 l 214 31 q 236 14 219 14 q 276 29 243 14 l 369 108 q 303 33 313 43 q 214 -3 258 -3 q 201 -2 208 -3 q 188 0 194 -1 q 161 33 161 4 q 165 46 161 42 l 199 104 q 160 65 183 85 q 78 18 117 28 q 213 129 163 71 l 289 264 q 217 290 228 290 l 211 290 q 203 289 207 289 q 133 224 150 278 q -2 -24 75 101 q -176 -278 -79 -149 l -231 -275 q 50 144 -111 -147 q 329 583 226 457 q 694 804 458 738 q 742 803 718 803 q 790 803 767 803 q 876 768 850 801 q 886 733 886 747 q 881 713 886 722 q 856 703 867 700 q 836 744 858 729 l 794 769 q 753 774 772 772 q 718 776 733 776 q 335 560 497 776 q 256 431 311 528 l 183 304 q 203 289 190 289 q 211 290 206 290 q 233 295 226 293 q 240 297 240 297 q 293 271 250 297 m 365 389 q 390 369 390 389 q 374 344 392 354 q 361 342 365 342 q 342 357 349 342 q 339 365 339 363 q 365 389 339 389 "},"\u001b":{"ha":358,"x_min":-231,"x_max":886,"o":"m 694 804 q 742 803 718 803 q 790 803 767 803 q 876 768 850 801 q 886 733 886 747 q 881 713 886 722 q 856 703 867 700 q 836 744 858 729 l 794 769 q 753 774 772 772 q 718 776 733 776 q 335 560 497 776 q 256 431 311 528 l 183 304 q 203 289 190 289 q 211 290 206 290 q 233 295 226 293 q 240 297 240 297 q 253 293 246 297 l 253 282 q 217 290 233 290 l 211 290 q 203 289 207 289 q 133 224 150 278 q -2 -24 75 101 q -176 -278 -79 -149 l -231 -275 q 50 144 -111 -147 q 329 583 226 457 q 694 804 458 738 m 474 579 q 490 583 479 583 q 510 581 501 582 q 524 581 518 581 q 481 506 518 556 q 423 406 449 450 q 378 329 397 363 l 289 185 q 238 100 260 136 q 203 40 217 64 q 204 22 197 31 q 222 14 211 14 q 357 108 265 21 l 326 64 q 239 8 301 28 q 186 0 210 0 q 158 26 146 0 q 176 61 165 42 q 199 104 186 81 q 160 65 183 85 q 78 18 117 28 q 211 128 167 74 q 267 225 228 158 q 371 396 307 292 q 430 498 404 453 q 474 579 456 543 "},"\u001c":{"ha":783,"x_min":46,"x_max":1033,"o":"m 124 92 q 111 73 118 88 q 108 54 104 58 q 176 43 138 43 q 328 90 250 43 q 224 101 286 101 q 124 92 164 101 m 342 247 l 474 300 q 494 411 486 349 q 506 499 500 456 q 518 588 511 543 q 568 729 532 676 q 707 832 615 794 q 849 868 772 868 q 1021 776 972 868 q 1033 703 1033 739 q 939 506 1033 607 q 760 432 853 432 q 719 436 740 432 q 660 499 660 471 q 688 581 660 557 q 728 592 707 592 q 747 588 739 592 l 765 568 q 731 543 764 558 q 700 511 700 529 q 742 456 700 469 q 799 447 764 447 l 819 447 q 925 513 883 463 q 981 626 964 557 q 992 672 992 651 q 967 776 992 701 q 819 849 911 849 q 769 842 808 849 q 633 761 693 826 q 554 621 578 701 q 526 325 554 447 l 525 321 l 626 363 l 635 343 l 518 296 q 403 125 486 192 q 496 104 460 113 q 550 90 532 96 q 689 36 628 68 q 647 0 672 0 q 590 26 638 0 q 524 50 542 54 q 494 57 514 51 q 446 72 475 63 q 367 89 397 89 q 289 53 321 89 q 131 10 213 10 q 75 15 99 10 q 50 68 46 31 q 347 125 140 125 l 390 125 q 467 275 440 176 l 350 228 l 342 247 "},"\u001d":{"ha":178,"x_min":-37,"x_max":339,"o":"m 7 211 l 99 249 l 186 394 q 245 497 219 451 q 289 578 271 542 q 306 582 294 582 q 325 580 317 581 q 339 579 333 579 q 296 504 333 554 q 240 407 265 451 q 193 328 214 363 l 158 272 l 225 300 l 233 281 l 140 243 l 104 183 q 55 101 76 136 q 18 39 33 65 q 19 21 13 29 q 38 13 26 13 q 172 107 81 19 l 142 63 q 54 7 117 26 q 1 0 22 0 q -25 25 -37 0 q 8 92 -12 53 q 60 182 29 132 l 81 219 l 14 192 l 7 211 "},"\u001e":{"ha":960,"x_min":56,"x_max":1158,"o":"m 1142 863 l 1158 842 q 1089 761 1147 788 q 968 713 993 717 q 940 710 954 710 l 917 710 q 904 710 910 710 q 893 711 899 710 l 776 482 l 833 464 q 789 435 825 432 q 764 436 771 436 q 761 436 757 436 q 474 89 619 194 q 710 39 604 39 q 860 78 799 39 q 881 99 868 86 q 910 131 893 113 q 949 225 949 174 q 930 274 949 253 q 883 294 911 294 q 842 282 860 294 l 799 225 q 822 285 799 253 q 872 326 844 311 q 904 331 886 331 q 974 288 964 331 q 978 253 978 267 q 879 78 978 185 q 646 13 785 13 q 417 50 543 13 q 194 0 267 0 q 57 44 114 0 q 56 57 56 49 q 94 101 56 93 q 207 128 139 128 q 250 125 225 128 q 308 117 275 122 q 368 108 343 111 q 411 106 393 106 q 525 142 481 106 q 599 240 558 169 l 704 432 q 682 442 694 442 l 653 442 q 679 483 658 468 q 696 481 686 482 q 719 476 706 479 q 801 594 760 536 q 882 713 842 653 q 786 757 833 735 q 692 801 739 779 q 492 856 575 856 q 313 771 385 856 q 285 724 294 740 q 275 706 276 708 q 258 635 258 669 l 258 613 q 271 581 265 593 q 284 559 276 568 q 302 541 292 550 q 329 522 313 532 q 428 492 374 492 q 572 582 529 501 l 572 610 q 540 683 572 672 q 513 689 524 689 q 469 676 499 689 q 431 667 439 665 q 531 711 468 711 l 553 711 q 576 701 575 703 q 594 682 583 699 l 610 653 q 500 494 610 567 q 400 469 454 469 q 304 489 350 469 q 233 553 251 513 q 219 617 219 581 q 226 675 219 640 q 341 812 264 763 q 514 861 418 861 l 531 861 q 736 817 631 861 l 908 742 q 1103 868 1018 868 l 1125 868 l 1142 863 m 117 83 q 114 64 103 71 q 243 29 167 29 q 371 57 311 29 q 172 96 221 96 q 140 94 151 96 q 117 83 129 92 m 928 742 q 946 736 944 742 l 1044 753 q 1115 817 1101 769 q 1074 825 1094 825 q 928 742 996 825 m 890 1033 q 899 1026 899 1033 l 897 1024 q 803 964 894 1019 q 782 956 790 956 q 758 957 760 956 q 731 992 750 963 q 717 1015 721 1006 q 711 1026 713 1024 l 714 1032 l 718 1033 q 778 989 726 1031 q 890 1033 886 1033 "},"\u001f":{"ha":267,"x_min":-4,"x_max":322,"o":"m 219 231 q 249 251 233 231 q 272 274 265 274 q 288 265 279 274 l 179 158 l 206 147 q 176 124 199 124 q 158 126 165 125 q 147 126 151 126 q 133 122 139 126 l 75 58 l 167 38 q 204 47 186 38 q 251 114 251 86 l 265 119 q 189 14 242 46 q 151 0 167 0 q 101 14 135 0 q 57 29 67 29 q 6 -3 31 29 l -4 6 q 119 117 44 38 q 114 119 119 118 q 102 122 108 119 q 92 126 96 124 q 89 136 88 129 q 146 160 97 144 q 199 196 186 171 l 199 201 q 101 221 144 201 l 11 108 l 8 114 q 57 177 28 140 q 126 263 86 214 q 194 229 144 229 q 219 231 214 229 m 315 422 q 201 378 311 422 q 160 410 175 400 q 142 422 144 421 l 138 421 l 135 415 q 140 403 136 413 q 154 381 144 394 q 171 358 164 367 q 182 346 178 350 q 206 344 183 344 q 228 353 215 344 q 322 413 318 408 l 322 415 q 315 422 322 422 "}," ":{"ha":211,"x_min":0,"x_max":0,"o":""},"!":{"ha":272,"x_min":50,"x_max":399,"o":"m 399 615 q 325 451 399 557 q 242 321 282 389 q 163 178 201 253 l 154 178 q 238 399 181 233 l 301 583 q 360 635 322 635 q 399 615 399 635 m 110 85 q 147 39 153 85 q 94 -6 140 -6 q 57 39 50 -6 q 110 85 63 85 "},"\"":{"ha":171,"x_min":15,"x_max":169,"o":"m 61 635 q 28 601 28 635 q 47 572 28 581 q 53 560 53 571 q 15 494 53 521 q 75 561 40 506 q 94 601 94 593 q 61 635 94 635 m 136 635 q 103 601 103 635 q 121 572 103 582 q 122 544 124 569 q 90 494 121 518 q 150 561 115 506 q 169 601 169 593 q 136 635 169 635 "},"#":{"ha":504,"x_min":21,"x_max":457,"o":"m 449 700 q 453 682 453 692 q 451 673 453 679 q 447 658 449 667 q 443 643 444 650 q 442 633 442 636 q 443 626 442 628 q 457 601 457 618 q 456 592 457 596 q 450 594 450 594 q 436 585 444 594 l 436 578 q 434 569 436 576 q 432 561 432 563 q 436 556 432 557 q 442 567 439 561 q 451 581 446 574 q 429 542 444 557 q 433 476 433 521 q 427 483 429 475 q 424 490 425 490 l 410 479 q 417 518 407 489 l 411 490 q 414 489 413 489 q 422 497 419 489 l 422 500 q 429 489 425 492 q 433 504 433 494 l 433 514 q 428 525 433 517 q 417 540 422 533 q 408 536 414 540 q 325 478 393 513 q 339 419 339 424 q 368 368 351 385 q 393 247 393 303 q 371 144 393 190 q 374 128 371 142 q 371 115 374 124 q 364 99 368 107 q 357 83 360 90 q 354 72 354 76 q 375 44 354 57 q 368 31 378 40 q 358 21 358 22 l 349 21 q 290 58 328 21 q 286 69 286 64 q 290 76 286 74 q 294 103 294 90 q 292 128 294 108 q 290 154 290 149 l 290 164 q 291 167 290 164 q 293 175 292 169 q 291 182 293 175 q 283 203 289 189 q 264 225 279 221 q 226 167 260 210 q 199 106 199 128 l 199 94 q 174 24 174 46 q 164 0 174 18 q 156 4 160 4 q 146 2 154 4 q 135 0 138 0 q 118 22 118 0 q 122 40 118 26 q 125 57 125 54 q 118 76 125 67 l 118 89 q 126 126 118 101 q 135 165 135 151 q 133 181 135 169 q 131 196 131 192 q 144 243 131 214 q 160 290 160 278 q 154 311 160 300 q 154 319 151 315 q 156 326 156 322 q 154 332 156 332 l 142 325 q 143 331 143 328 q 144 336 143 333 q 138 340 140 340 q 132 328 135 340 q 128 313 129 315 q 131 308 131 310 q 111 288 131 307 q 108 289 110 288 q 113 297 107 293 q 121 303 119 301 q 132 329 132 318 q 131 335 132 333 q 121 333 126 333 q 82 364 107 333 l 82 375 q 111 339 82 364 q 157 361 147 339 q 160 369 157 361 l 161 374 q 165 386 165 379 q 164 393 165 389 q 171 392 165 392 q 206 410 196 392 q 208 417 208 413 q 207 426 207 421 q 214 433 207 431 q 197 449 217 440 l 193 449 l 196 456 l 186 456 q 149 432 176 456 q 113 408 122 408 q 106 410 107 408 q 160 456 153 426 q 171 453 168 453 q 228 492 189 453 q 208 463 207 471 q 244 485 221 475 l 276 500 l 264 500 q 238 494 247 500 q 253 499 243 496 q 274 506 264 501 q 293 518 285 511 q 304 536 301 525 q 275 543 294 543 q 266 538 271 543 q 256 528 261 533 q 245 519 250 524 q 238 514 240 514 q 224 521 231 514 q 179 490 206 515 l 186 490 l 196 490 q 181 488 185 488 q 178 488 183 488 q 163 489 174 488 l 150 490 q 140 489 143 490 q 128 458 132 483 q 107 433 115 451 l 88 393 q 91 402 89 394 q 95 418 93 410 q 100 433 97 426 q 106 443 103 440 q 102 445 103 444 q 101 446 101 446 q 92 443 99 446 q 85 440 86 440 q 76 444 81 440 l 74 457 l 64 456 l 65 475 l 53 475 l 53 481 q 67 475 58 475 q 94 492 75 475 l 82 494 l 86 497 q 94 501 92 499 l 86 510 l 99 507 l 99 501 q 101 492 99 500 q 94 488 100 490 q 101 482 96 482 l 111 482 q 83 446 104 478 q 115 463 100 446 q 125 476 119 468 q 138 494 131 483 q 36 526 114 526 l 21 526 l 21 531 q 33 529 28 529 q 43 529 39 529 l 57 529 l 71 529 q 97 525 85 529 l 97 536 q 99 546 97 544 q 93 565 99 558 l 79 553 q 76 558 76 556 q 85 572 76 561 q 79 579 85 578 l 69 578 q 76 597 67 590 l 76 611 q 94 657 76 631 q 129 679 104 674 q 164 688 160 685 q 176 682 168 682 q 190 685 179 682 q 203 688 200 688 q 218 679 211 688 q 206 685 213 685 q 190 681 201 685 q 176 678 179 678 q 164 682 169 678 q 143 676 158 676 q 128 678 138 678 q 115 671 115 678 l 118 665 q 96 653 104 660 l 113 642 q 101 640 108 640 l 101 638 q 95 628 101 635 q 89 618 89 621 q 95 581 89 606 q 101 546 101 557 l 101 536 q 121 510 104 521 q 157 490 157 490 q 165 494 158 490 q 178 501 171 497 q 192 508 185 506 q 203 510 199 511 q 224 531 213 514 q 242 553 235 549 q 250 565 250 558 q 246 572 250 568 q 239 575 242 575 l 236 563 q 222 576 236 571 q 208 589 208 582 l 228 589 q 213 607 228 592 l 218 607 q 167 647 211 636 l 174 651 l 158 658 q 171 660 164 660 q 211 646 196 660 l 222 631 q 216 635 221 631 q 208 640 211 640 q 207 640 208 640 q 206 639 207 640 q 217 628 207 636 q 225 614 226 621 l 229 614 q 232 624 232 622 q 210 667 232 639 l 225 656 l 228 657 q 235 641 232 656 q 244 624 238 626 l 242 624 q 235 615 238 624 q 225 608 232 607 l 229 604 q 261 613 244 607 q 268 608 263 611 q 258 625 271 617 l 254 624 q 247 642 251 626 q 250 636 249 639 q 254 631 251 633 q 268 624 260 621 q 250 650 268 632 q 233 668 239 661 q 225 676 226 675 q 238 665 226 675 q 271 632 249 654 l 278 597 q 269 601 271 599 l 267 599 q 267 594 267 597 q 269 583 268 590 q 269 568 272 572 q 260 563 265 568 q 249 553 254 558 q 238 542 243 547 q 232 536 233 536 q 229 528 229 528 q 235 518 229 519 q 268 547 243 519 q 325 621 281 608 q 339 618 333 618 q 365 624 344 618 q 342 597 356 618 q 317 571 328 575 l 319 568 q 313 567 317 568 l 311 568 l 332 582 l 322 592 q 342 603 332 597 q 361 618 351 610 l 321 615 q 289 593 294 611 q 271 556 271 567 q 274 546 271 557 q 290 543 278 547 q 303 539 301 539 q 315 546 308 539 q 310 549 313 549 l 304 549 q 315 556 311 556 q 322 553 317 556 q 367 575 329 565 q 413 606 407 588 q 367 575 411 592 q 311 542 317 556 q 288 501 307 524 q 275 488 282 496 q 257 469 268 481 l 279 493 l 267 493 q 251 486 260 490 q 232 478 242 482 q 206 451 211 464 q 219 442 210 442 q 225 443 224 442 q 211 424 211 433 q 214 417 211 419 q 235 424 222 419 q 264 436 247 429 q 222 411 243 428 l 225 407 l 228 410 q 233 408 229 410 q 238 407 236 407 q 238 408 238 407 q 242 410 239 408 q 303 426 283 426 l 311 426 l 322 435 q 303 443 314 443 q 292 442 301 443 q 268 438 283 440 l 269 447 q 286 445 274 447 q 303 443 299 443 q 324 449 318 443 q 296 493 324 465 q 315 483 307 490 q 369 508 357 501 q 413 547 400 526 l 424 546 q 422 553 422 550 q 429 567 422 557 q 436 581 436 576 q 433 586 436 581 l 450 597 q 440 604 447 604 q 432 601 440 604 q 433 615 436 607 l 422 615 q 442 669 442 619 l 439 679 q 451 686 451 681 q 449 694 453 688 l 442 689 l 449 700 m 157 669 q 164 671 160 671 q 175 672 168 671 q 168 672 172 672 q 157 669 164 671 m 118 650 l 133 651 l 133 642 q 169 614 138 618 l 163 624 q 189 620 175 622 q 206 607 203 618 l 208 608 q 138 643 196 636 q 126 656 138 656 q 118 650 119 656 m 297 594 l 300 593 l 283 549 l 297 594 m 164 582 l 164 578 q 173 573 164 575 q 181 565 182 571 q 172 563 178 563 l 164 563 l 164 575 l 161 575 q 154 574 160 575 q 151 575 154 575 l 164 582 m 131 575 l 131 569 l 118 575 l 131 575 m 108 558 q 118 565 111 565 q 135 557 131 565 q 121 558 131 558 l 108 558 m 132 540 q 140 536 132 536 l 151 536 q 143 529 147 532 q 157 524 144 524 l 143 517 l 147 514 q 136 519 142 511 l 142 526 q 131 536 131 540 q 132 540 131 539 m 24 521 q 43 517 32 519 q 69 510 54 514 l 69 493 l 75 494 l 69 490 l 56 488 l 68 501 q 48 509 58 504 q 24 521 38 514 m 238 450 l 251 463 l 253 461 l 238 449 l 238 450 m 333 425 q 322 426 326 426 q 315 426 318 426 q 265 417 293 426 q 217 400 229 403 q 172 381 207 399 q 164 361 161 374 q 183 368 171 368 l 189 368 l 164 344 q 160 322 160 333 q 163 299 160 317 q 167 275 167 281 q 138 196 138 225 q 140 180 138 190 q 143 167 143 169 q 138 154 143 160 q 140 147 140 149 q 131 128 140 143 q 121 107 121 113 q 124 99 121 107 q 125 67 124 68 q 143 44 128 47 l 132 43 l 125 31 q 121 18 121 26 q 125 11 121 15 q 135 3 131 3 q 145 9 138 3 q 154 15 153 15 q 164 10 160 15 l 169 24 q 167 38 167 32 q 181 71 167 49 q 191 90 188 82 q 196 101 194 97 q 194 115 194 108 q 203 149 194 128 q 215 179 213 171 l 218 164 q 243 210 232 178 l 247 200 q 258 232 258 219 q 228 251 251 243 q 204 262 213 258 q 193 267 196 265 l 197 271 l 275 235 q 310 266 290 243 q 343 303 331 289 q 311 260 340 293 q 283 215 283 228 q 293 189 283 200 l 303 193 q 294 151 294 168 q 301 125 294 136 q 303 121 303 125 q 300 104 303 117 q 297 89 297 92 q 313 75 297 75 l 308 63 q 300 69 303 67 q 296 72 297 71 q 290 68 292 72 l 293 60 q 319 40 303 60 q 351 24 338 22 l 351 40 l 365 35 q 368 44 368 40 q 356 64 368 51 q 342 79 344 76 l 346 85 q 368 146 364 99 q 383 210 375 199 q 389 264 389 233 q 331 400 389 358 l 339 406 l 333 425 m 229 582 l 232 585 l 224 588 l 222 585 l 229 582 m 199 647 l 194 647 l 203 643 l 199 647 m 142 638 q 147 625 142 625 q 142 638 147 628 m 443 617 l 442 606 l 453 606 q 443 617 454 615 m 69 461 q 89 467 79 458 q 106 481 99 475 q 69 461 76 476 m 239 592 l 247 582 l 247 588 q 239 592 247 592 m 258 586 q 262 581 260 585 q 265 578 264 578 l 265 583 q 258 586 264 583 m 147 335 l 150 335 q 157 349 157 342 q 146 339 146 349 q 147 335 147 338 m 232 349 q 243 358 233 358 l 247 358 q 232 349 243 351 m 358 164 q 339 143 354 150 q 325 154 332 140 q 339 144 333 144 l 343 144 l 358 164 m 154 142 q 168 133 161 131 q 164 132 167 132 q 154 142 153 132 "},"$":{"ha":510,"x_min":28,"x_max":483,"o":"m 117 219 q 92 181 104 200 q 81 136 81 161 q 85 106 81 124 q 158 33 96 49 l 257 290 q 211 340 238 307 q 183 428 183 376 q 243 546 183 499 q 371 590 300 590 q 385 633 376 611 q 400 656 394 654 q 406 654 401 657 q 399 636 404 649 q 386 601 394 624 l 382 590 q 483 496 483 569 q 438 428 483 436 q 428 432 429 426 q 431 460 426 435 q 375 568 442 538 l 286 336 q 317 308 304 321 q 340 285 331 296 q 374 197 374 247 q 325 81 374 133 q 214 13 278 29 q 163 8 192 10 q 151 -22 157 -7 q 135 -53 144 -37 q 129 -51 131 -53 l 129 -50 q 149 8 129 -46 q 31 110 46 28 q 28 135 28 124 q 100 221 28 207 q 117 219 106 222 m 338 569 q 329 569 335 569 q 317 567 324 568 q 231 463 231 547 q 235 418 231 440 q 278 344 243 381 l 363 569 q 338 569 347 571 m 267 281 l 171 29 q 285 59 239 24 q 331 154 331 94 q 267 281 331 221 "},"%":{"ha":365,"x_min":11,"x_max":363,"o":"m 19 -6 l 19 3 l 19 -6 q 22 4 21 0 q 22 13 22 8 q 81 135 22 15 q 218 390 161 301 q 273 481 246 435 q 325 574 300 526 q 360 625 347 617 l 363 621 q 357 610 360 617 q 350 594 354 604 q 299 482 326 536 q 243 378 272 428 q 175 259 206 314 q 121 160 144 204 q 94 106 110 138 q 58 33 79 75 q 19 -6 39 0 m 304 213 q 344 178 344 213 q 338 133 344 157 q 319 88 331 110 q 291 48 307 65 q 257 22 275 31 q 196 0 214 0 q 150 43 150 0 q 199 156 150 99 q 304 213 249 213 m 292 194 q 217 140 251 194 q 181 49 181 88 q 197 14 181 26 l 204 14 q 285 72 247 13 q 318 174 318 126 q 292 194 318 194 m 165 636 q 206 601 206 636 q 179 511 206 558 q 117 444 154 463 q 56 424 72 424 q 11 467 11 424 q 60 579 11 522 q 165 636 110 636 m 151 618 q 78 564 113 618 q 42 471 42 511 q 58 438 42 447 l 64 438 q 144 496 108 435 q 179 597 179 549 q 151 618 179 618 "},"&":{"ha":636,"x_min":43,"x_max":683,"o":"m 547 604 q 553 564 553 588 q 478 463 547 508 q 357 400 469 456 q 381 154 357 261 q 406 187 390 164 q 440 246 421 210 q 514 360 488 329 q 615 417 563 417 l 638 417 q 675 401 669 407 q 683 358 683 393 q 644 293 683 301 q 634 291 638 292 q 628 290 631 290 q 594 310 606 290 q 589 329 589 315 q 592 344 589 335 q 598 364 594 354 q 604 382 601 374 q 607 394 607 390 q 596 401 607 401 q 531 363 560 401 q 489 294 517 347 l 390 118 q 403 83 399 96 q 410 68 408 71 q 449 35 426 39 q 479 31 471 31 q 574 81 525 31 q 617 135 599 113 q 646 172 635 158 q 596 78 633 125 q 554 38 575 53 q 515 14 533 22 q 482 3 497 6 q 458 0 467 0 q 347 65 401 0 q 196 -7 263 -7 q 72 56 124 -7 q 43 138 43 90 q 100 285 43 215 q 235 379 160 354 l 282 394 q 281 418 281 408 q 281 439 281 429 q 303 547 281 497 q 406 656 342 644 q 449 660 435 660 q 488 654 471 660 q 547 604 538 635 m 149 271 q 129 178 129 221 q 151 75 129 129 q 244 26 186 19 q 331 85 292 33 q 290 225 300 139 q 278 372 288 249 q 149 271 178 343 m 431 643 q 357 479 357 628 l 357 426 q 453 476 407 440 q 510 564 510 521 q 493 621 510 597 q 444 644 476 644 q 431 643 435 644 "},"'":{"ha":122,"x_min":200,"x_max":279,"o":"m 247 635 q 279 601 279 635 q 229 519 279 578 q 200 494 213 500 q 232 540 226 514 q 232 572 239 568 q 214 601 214 582 q 247 635 214 635 "},"(":{"ha":207,"x_min":6,"x_max":379,"o":"m 379 769 q 67 -76 67 407 q 113 -206 68 -104 l 101 -206 q 6 103 6 -85 q 197 599 6 350 q 379 769 278 704 "},")":{"ha":275,"x_min":-87,"x_max":282,"o":"m 254 286 q -87 -187 174 -10 q 224 549 224 161 q 199 736 224 675 q 190 758 194 746 q 178 785 185 769 q 282 481 282 657 q 254 286 282 390 "},"*":{"ha":269,"x_min":18,"x_max":254,"o":"m 67 614 q 89 635 67 635 q 115 604 106 635 l 136 536 l 157 604 q 183 635 167 635 q 206 614 206 635 q 151 533 206 596 q 236 546 231 546 q 254 524 254 546 q 236 501 254 501 q 213 505 235 501 q 151 515 192 508 q 206 433 206 450 q 183 413 206 413 q 157 446 167 413 l 136 514 l 115 446 q 89 413 104 413 q 67 433 67 413 q 119 515 67 446 l 38 501 q 18 524 18 501 q 40 546 18 546 q 119 533 42 546 q 67 614 67 603 "},"+":{"ha":471,"x_min":38,"x_max":433,"o":"m 38 213 l 221 213 l 221 394 l 251 394 l 251 213 l 433 213 l 433 183 l 251 183 l 251 0 l 221 0 l 221 183 l 38 183 l 38 213 "},",":{"ha":122,"x_min":-3,"x_max":75,"o":"m 42 72 q 75 39 75 72 q 29 -36 75 19 q -3 -67 11 -60 q 26 -21 19 -50 q 28 -8 28 -14 q 29 0 29 -3 q 26 10 29 7 q 8 39 8 19 q 42 72 8 72 "},"-":{"ha":197,"x_min":65,"x_max":199,"o":"m 189 150 l 65 150 q 69 163 67 156 q 75 182 72 171 l 199 182 q 189 150 196 181 "},".":{"ha":122,"x_min":33,"x_max":99,"o":"m 67 72 q 99 39 99 72 q 67 6 99 6 q 33 39 33 6 q 67 72 33 72 "},"/":{"ha":325,"x_min":60,"x_max":458,"o":"m 75 -11 q 61 -26 67 -26 q 60 -24 60 -25 q 144 142 60 19 q 206 224 176 186 q 264 293 236 261 q 315 355 283 317 q 390 446 347 393 l 424 500 q 456 547 453 547 q 457 544 457 546 q 458 543 457 544 q 458 539 458 542 q 456 529 457 536 q 378 404 421 465 q 283 283 335 343 q 75 -11 143 122 "},":":{"ha":178,"x_min":19,"x_max":167,"o":"m 53 72 q 86 39 86 72 q 53 6 86 6 q 19 39 19 6 q 53 72 19 72 m 133 275 q 167 242 167 275 q 135 210 167 210 q 101 242 101 210 q 133 275 101 275 "},";":{"ha":154,"x_min":15,"x_max":165,"o":"m 132 275 q 165 242 165 275 q 133 210 165 210 q 99 242 99 210 q 132 275 99 275 m 60 72 q 94 39 94 72 q 88 22 92 31 q 81 7 83 14 q 66 -12 74 -3 q 51 -33 58 -22 q 15 -67 31 -60 q 49 -1 49 -44 q 38 13 49 6 q 28 39 28 21 q 60 72 28 72 "},"=":{"ha":414,"x_min":38,"x_max":378,"o":"m 38 226 l 378 226 l 378 200 l 38 200 l 38 226 m 38 106 l 378 106 l 378 79 l 38 79 l 38 106 "},"?":{"ha":447,"x_min":126,"x_max":539,"o":"m 535 540 q 539 511 539 525 q 474 369 539 456 q 344 278 440 325 q 236 210 250 229 q 218 171 218 188 q 230 149 218 154 q 246 144 242 144 q 279 161 263 144 q 307 193 297 183 q 281 151 301 171 q 238 132 260 132 q 200 165 201 132 q 272 267 197 210 q 410 376 396 363 q 483 547 483 454 q 418 618 483 597 q 367 626 390 626 q 263 581 314 626 q 211 482 211 535 q 212 474 211 479 q 214 461 213 468 q 254 478 239 478 q 282 465 269 478 q 294 436 294 451 q 233 386 294 386 q 183 418 190 386 q 179 474 179 436 q 218 561 179 522 q 299 615 251 596 q 386 635 346 635 q 476 610 435 635 q 535 540 518 585 m 185 92 q 222 46 228 92 q 203 13 219 26 q 168 0 188 0 q 138 13 149 0 q 129 46 126 26 q 149 78 132 64 q 185 92 165 92 "},"A":{"ha":1160,"x_min":71,"x_max":1494,"o":"m 1494 851 q 1397 754 1439 818 q 1364 701 1383 732 q 1318 628 1344 669 q 1276 547 1303 596 q 1213 432 1249 499 l 1090 215 q 1033 112 1058 160 q 988 21 1007 64 q 961 14 976 14 q 936 15 943 15 q 935 15 929 15 q 974 87 950 43 q 1028 189 997 131 q 1078 378 1078 286 q 1050 501 1078 439 q 990 424 1026 474 q 906 304 954 375 q 1008 261 935 261 l 1007 226 q 888 279 953 226 q 397 0 656 0 q 276 15 325 0 q 151 97 210 39 q 78 226 86 163 q 73 269 75 253 q 71 290 71 285 q 178 518 71 411 q 479 643 340 643 q 644 594 579 643 q 703 536 675 571 q 721 460 721 501 q 675 325 721 381 q 457 228 582 228 q 383 238 414 228 q 331 265 351 249 q 300 301 310 282 q 290 340 290 321 q 338 406 290 392 q 382 388 364 410 q 349 366 363 383 q 335 329 335 349 q 404 256 335 283 q 479 240 442 240 q 621 301 564 240 q 676 415 676 363 l 676 431 q 635 549 676 496 q 439 624 574 624 q 332 610 386 624 q 206 522 272 589 q 126 397 140 456 q 114 310 114 339 q 210 108 114 204 q 439 26 292 26 q 604 53 525 26 q 863 307 810 154 q 810 500 810 389 q 840 638 810 578 q 924 676 879 676 q 992 656 963 676 q 1015 631 997 650 q 1061 579 1032 613 q 1109 627 1081 596 q 1178 706 1138 658 q 1244 778 1214 747 q 1301 828 1275 808 q 1432 868 1354 868 q 1461 867 1447 868 q 1494 851 1475 865 m 1443 838 q 1422 840 1431 839 q 1408 840 1414 840 q 1269 789 1333 840 q 1218 740 1244 769 q 1164 671 1192 710 l 1081 542 q 1096 440 1096 496 q 1090 367 1096 408 q 1074 276 1085 325 q 1158 422 1117 350 q 1243 567 1200 494 q 1449 832 1349 739 l 1443 838 m 917 631 q 888 625 900 628 q 868 617 876 622 q 853 603 860 613 q 839 581 847 594 q 819 494 819 546 q 881 332 819 413 q 1029 542 996 460 q 917 631 974 631 "},"B":{"ha":1067,"x_min":74,"x_max":1550,"o":"m 742 867 q 847 865 806 867 q 908 861 889 864 q 1061 801 999 851 q 1294 864 1165 864 q 1426 842 1372 864 q 1550 763 1508 808 q 1539 758 1543 758 q 1519 774 1538 758 q 1494 789 1504 789 q 1285 825 1399 825 q 1088 792 1179 825 q 1150 656 1142 729 q 1085 511 1131 549 q 1039 482 1049 488 q 1012 467 1024 472 q 990 460 1000 461 q 1032 401 1000 436 q 1050 319 1050 364 q 1014 194 1050 260 q 936 89 992 157 q 744 3 825 3 q 654 36 689 3 q 629 88 629 58 q 669 164 629 135 l 681 164 q 669 125 669 146 q 694 53 669 92 q 781 28 725 28 q 825 32 804 28 q 953 129 901 58 q 1004 282 1004 199 l 1004 303 q 932 435 1004 389 l 849 438 l 849 449 l 981 474 q 1078 551 1054 494 q 1100 632 1100 590 q 1051 761 1100 696 q 975 715 1011 753 l 908 643 q 779 429 822 500 q 735 356 736 358 q 629 209 682 272 q 524 100 576 146 q 260 0 408 0 q 211 3 236 0 q 158 11 186 6 q 75 85 89 43 q 74 100 74 94 q 74 113 74 107 q 107 168 74 157 l 125 168 q 142 157 139 168 q 115 103 115 139 q 204 31 115 60 q 296 17 244 17 q 369 25 333 17 q 575 190 489 74 q 715 422 597 222 q 914 683 828 614 l 1025 772 q 771 847 935 847 q 596 822 683 847 q 318 511 339 719 q 396 389 318 431 l 421 389 q 435 388 429 388 q 446 388 442 388 q 567 425 522 388 q 633 547 633 483 q 626 588 633 563 q 599 599 613 599 q 578 597 588 597 q 563 596 569 596 q 561 606 561 600 q 589 646 561 633 q 638 638 615 650 q 668 601 661 626 q 629 470 668 531 q 526 379 590 410 q 410 358 443 358 q 321 388 358 358 q 274 499 274 425 q 288 585 274 542 q 742 867 388 813 "},"C":{"ha":801,"x_min":51,"x_max":1071,"o":"m 819 865 q 841 867 832 867 q 857 868 850 868 q 1047 786 982 868 q 1059 763 1047 776 q 1071 747 1071 750 q 1060 729 1071 740 q 1061 704 1061 724 q 969 519 1061 600 q 794 460 876 460 q 713 476 754 460 q 672 517 696 478 q 636 560 650 556 q 493 457 543 485 q 328 408 407 408 q 285 236 285 321 q 343 81 285 140 q 525 28 393 28 l 563 28 q 581 28 572 28 q 599 29 589 28 q 742 106 663 43 l 742 90 q 467 0 597 0 q 315 38 383 0 q 239 229 239 106 q 268 392 239 304 q 183 413 249 400 q 103 444 126 424 q 51 556 51 497 q 128 690 51 635 q 183 722 154 708 q 244 742 213 735 q 165 700 183 713 q 104 636 126 674 q 92 563 92 600 q 175 426 92 460 q 244 413 204 413 q 274 414 267 413 q 492 704 346 583 q 819 865 639 824 m 754 835 q 501 681 618 803 q 339 428 403 574 q 613 547 506 457 q 636 570 624 558 q 661 593 649 582 q 714 624 699 628 q 710 594 711 608 q 707 565 708 581 q 711 539 707 553 q 769 476 728 497 l 786 476 q 888 489 851 476 q 967 550 932 506 q 1019 671 1019 619 q 978 788 1019 718 q 800 835 926 835 l 754 835 "},"D":{"ha":932,"x_min":69,"x_max":1467,"o":"m 1467 756 q 1435 774 1453 756 q 1403 794 1417 792 q 1243 829 1335 829 q 915 731 1083 829 q 1238 867 1049 867 q 1467 756 1429 867 m 567 868 q 804 808 703 868 q 965 625 911 743 q 988 481 988 558 q 893 207 988 322 q 450 3 756 3 q 385 5 418 3 q 317 13 351 7 q 206 0 256 0 q 71 40 115 0 q 69 49 69 43 q 101 74 69 67 q 124 76 111 75 q 151 76 136 76 q 201 74 171 76 q 272 65 232 71 q 344 57 313 60 q 394 54 375 54 q 571 251 499 129 q 627 351 593 292 q 708 494 661 411 q 783 609 744 558 q 863 696 822 660 q 519 856 724 856 q 324 813 447 856 q 131 496 131 683 q 132 463 131 469 q 211 354 171 372 q 306 336 249 336 q 424 361 367 336 q 514 517 514 449 q 490 590 514 569 q 446 621 479 600 q 347 578 407 621 q 456 653 369 638 q 513 631 488 653 q 543 576 538 608 q 496 421 543 489 q 365 315 449 353 q 309 307 333 310 q 265 304 285 304 q 138 353 179 304 q 86 511 86 413 q 119 639 86 551 q 310 810 160 742 q 567 868 440 868 m 868 678 q 728 444 808 603 q 649 297 683 357 q 592 203 615 238 q 421 54 531 115 q 500 42 435 50 l 576 31 q 760 92 674 31 q 885 242 836 147 q 938 456 938 344 q 868 678 938 585 m 111 40 q 208 11 140 11 q 304 25 264 11 l 165 67 q 111 40 133 67 "},"E":{"ha":707,"x_min":42,"x_max":872,"o":"m 678 865 q 707 867 694 867 q 726 868 719 868 q 856 815 824 868 q 872 764 872 788 q 815 658 872 715 q 693 593 750 593 q 638 607 664 593 q 603 646 618 608 q 583 682 590 682 q 551 661 572 682 q 497 592 497 649 q 504 554 497 578 q 299 508 400 554 q 136 376 183 456 q 93 239 93 307 q 132 110 93 161 q 351 21 217 21 q 589 125 482 21 q 668 279 668 200 q 636 379 668 331 q 507 432 547 432 q 372 360 446 432 q 325 275 331 318 q 381 182 315 214 l 400 182 q 447 199 435 182 l 447 229 q 463 233 453 233 q 489 207 490 233 q 435 140 494 171 q 422 138 428 139 q 414 138 417 138 q 335 161 408 138 q 304 239 304 183 q 308 289 304 253 q 403 401 342 357 q 540 453 465 446 q 703 360 671 443 q 707 314 707 336 q 594 113 707 189 q 308 0 461 0 q 185 24 244 0 q 58 131 103 46 q 42 225 42 176 q 150 458 42 360 q 292 528 197 499 q 371 547 332 538 q 450 567 410 557 l 444 608 q 308 589 375 589 q 129 644 203 589 q 85 736 85 676 q 110 802 85 774 q 174 842 136 831 q 197 844 182 842 q 219 847 213 847 q 233 844 222 847 q 222 839 231 842 q 204 833 214 836 q 185 826 194 831 q 171 818 175 822 q 131 742 131 793 q 142 687 131 713 q 174 643 154 661 q 222 615 194 625 q 279 604 249 604 l 304 604 q 457 647 422 604 q 678 865 486 806 m 547 765 q 511 661 522 722 q 592 704 546 668 q 665 751 649 746 q 669 742 669 747 q 653 707 669 733 q 649 682 649 696 q 671 633 649 651 q 713 624 690 624 q 772 649 743 624 q 787 663 775 651 q 818 697 799 675 q 828 750 828 725 q 789 824 828 786 q 694 851 758 851 q 547 765 596 851 "},"F":{"ha":765,"x_min":-4,"x_max":1432,"o":"m 175 636 q 431 819 274 768 q 749 860 556 860 q 828 858 781 860 q 942 854 876 857 q 1055 850 1007 851 q 1135 849 1103 849 q 1429 881 1310 849 q 1432 869 1432 872 q 1401 828 1432 842 q 1179 806 1313 806 q 1074 809 1136 806 q 926 819 1011 813 q 779 831 842 826 q 674 835 717 835 q 415 803 528 835 q 246 681 336 790 q 211 619 211 638 q 222 578 211 608 q 233 543 233 549 q 401 449 275 449 q 599 594 521 449 l 593 599 l 583 589 l 593 610 l 606 603 q 611 633 611 618 q 599 658 611 651 q 538 679 574 679 q 497 672 522 679 l 463 654 q 579 697 511 697 l 597 697 q 646 672 631 697 q 654 640 654 657 q 647 610 654 626 q 428 442 539 461 q 387 440 414 442 q 346 439 360 439 q 222 478 261 439 q 168 590 168 519 q 175 636 168 608 m 754 467 q 865 647 774 549 q 1032 785 946 735 q 960 711 996 753 q 889 619 925 669 q 788 429 815 515 q 825 361 825 404 q 821 336 825 349 q 781 321 806 317 q 782 338 782 331 q 782 351 782 344 q 772 376 782 371 q 415 13 600 71 q 426 -51 411 -7 q 443 -115 443 -100 q 408 -51 424 -108 q 375 0 394 0 q 361 -3 371 0 q 341 -9 351 -6 q 320 -16 331 -12 q 304 -19 310 -19 q 246 -24 272 -24 l 200 -24 q 174 -22 185 -22 q 156 -22 163 -22 l 131 -22 l 31 32 q -3 93 0 57 q -4 106 -4 97 q 39 174 -4 147 l 72 168 q 67 156 71 165 q 56 132 63 147 q 44 94 44 110 q 50 71 44 81 q 258 -11 124 -11 q 388 18 371 -11 q 394 49 394 32 l 394 71 q 393 83 393 78 q 393 93 393 90 q 399 122 393 113 q 664 435 478 381 q 681 433 674 433 q 694 433 689 433 q 754 467 747 433 m 603 372 q 465 228 514 318 q 415 35 415 139 q 590 186 513 76 q 645 274 617 222 q 706 393 674 325 q 689 394 701 394 q 669 391 681 394 q 644 383 657 388 q 621 376 632 379 q 603 372 610 372 "},"G":{"ha":772,"x_min":49,"x_max":1050,"o":"m 669 863 q 828 888 753 888 q 947 865 894 888 q 1033 785 1013 838 q 1050 713 1050 739 q 969 578 1050 633 q 817 525 896 525 q 715 549 763 525 q 658 628 658 578 q 685 683 658 660 q 743 706 711 706 q 793 686 782 706 q 797 660 797 675 l 797 647 q 761 656 781 656 q 699 608 699 656 q 754 553 699 567 q 842 539 801 539 q 964 593 910 539 q 1000 697 1000 629 l 1000 714 q 995 741 997 728 q 990 768 993 754 q 950 815 983 788 q 785 869 881 869 q 469 721 639 869 q 311 464 311 581 q 368 339 311 383 q 529 260 469 260 q 654 300 581 260 q 708 334 676 313 q 782 386 739 356 q 851 435 822 417 q 897 464 879 454 q 883 443 894 458 q 851 400 871 428 q 813 311 832 372 q 626 94 775 193 q 356 0 482 0 l 318 0 l 281 0 q 165 21 224 -3 l 93 50 q 49 121 49 74 q 94 182 49 157 q 115 175 101 185 q 133 164 128 165 q 108 101 100 118 q 282 13 151 13 q 343 17 301 13 q 449 28 385 21 q 644 156 542 38 q 779 358 721 243 l 654 288 q 616 269 639 279 q 563 249 593 260 q 479 233 517 233 q 347 279 424 233 q 264 454 264 326 q 332 646 264 560 q 669 863 449 793 "},"H":{"ha":1454,"x_min":96,"x_max":2001,"o":"m 1594 765 q 1872 868 1743 868 q 1996 838 1943 868 q 2001 807 2001 822 q 1990 782 2001 789 q 1951 808 1981 783 q 1914 838 1926 833 q 1849 842 1881 842 q 1454 569 1614 842 q 1414 499 1439 542 q 1356 401 1389 457 q 1310 332 1332 367 q 1264 263 1288 297 q 1186 119 1206 172 q 1171 76 1171 78 q 1200 33 1171 46 q 1289 71 1239 33 q 1314 92 1294 75 q 1365 136 1333 108 q 1269 49 1350 104 q 1174 18 1233 18 q 1140 22 1157 18 q 1122 58 1122 32 q 1143 126 1122 81 q 1165 169 1150 142 q 1201 236 1179 197 l 1285 386 l 1279 393 q 963 232 1135 232 q 950 233 956 233 q 943 233 946 233 l 931 233 q 426 0 732 0 q 356 4 392 0 q 282 15 321 8 q 154 100 206 39 q 97 240 97 165 q 96 267 96 247 q 157 414 96 340 q 185 447 169 429 q 219 486 200 464 q 468 557 317 557 q 668 510 583 557 q 699 424 699 483 q 698 398 699 413 q 696 365 697 383 q 447 192 628 211 q 336 243 354 200 q 326 278 326 263 q 382 349 326 311 q 405 351 392 346 q 422 356 418 356 q 436 349 429 356 q 371 283 371 333 q 429 213 371 243 q 471 207 446 207 q 578 239 521 207 q 647 374 643 304 q 649 394 649 378 q 446 544 649 544 q 254 492 340 544 q 143 276 143 381 q 193 133 149 199 q 310 42 236 64 q 467 7 381 7 q 793 129 644 7 q 818 154 803 139 q 853 190 833 169 q 897 261 883 222 q 844 369 844 299 q 851 411 844 386 q 921 515 861 475 q 1051 567 988 561 l 1103 572 q 1186 681 1144 626 q 1271 789 1228 735 q 1278 802 1276 792 q 1283 815 1281 813 q 1238 811 1260 811 q 1179 816 1214 811 q 1097 831 1144 821 q 958 850 1003 850 q 808 786 864 850 l 808 769 q 849 692 808 711 q 925 676 882 676 q 958 678 940 676 q 994 682 975 679 l 1065 742 q 1014 681 1053 704 q 989 666 1007 675 q 940 643 971 657 q 799 678 833 643 q 778 765 778 703 l 778 778 q 976 868 851 868 q 1128 850 1029 868 q 1278 832 1226 832 q 1414 863 1358 832 q 1221 701 1246 799 l 1151 567 q 1210 544 1199 551 q 1253 501 1240 528 q 1204 429 1253 449 l 1178 442 q 1192 469 1179 450 q 1204 497 1204 488 q 1164 539 1204 518 q 1129 546 1146 546 l 967 281 q 1026 268 985 268 q 1124 285 1054 268 q 1253 388 1172 294 q 1317 462 1279 418 q 1404 564 1354 506 l 1493 663 l 1488 665 q 1544 711 1514 674 q 1594 765 1579 754 m 1304 821 l 1304 828 l 1296 828 l 1296 821 l 1304 821 m 882 404 q 919 296 882 338 q 996 419 953 326 q 1075 546 1042 514 q 950 521 993 535 q 882 404 882 499 "},"I":{"ha":858,"x_min":58,"x_max":1222,"o":"m 1115 818 q 1167 849 1126 829 q 1221 868 1208 868 q 1175 844 1222 854 q 960 535 1074 753 q 838 306 885 392 q 771 193 790 221 q 532 35 697 89 q 311 0 367 0 q 171 38 226 0 q 58 222 58 96 q 104 374 58 300 q 219 485 150 449 q 404 540 329 540 q 500 513 457 540 q 586 390 586 464 q 483 210 586 300 q 343 169 379 169 q 270 192 300 169 q 240 256 240 214 q 244 282 240 269 q 304 339 274 319 q 298 326 303 335 q 286 304 293 318 q 272 263 272 281 q 333 189 272 221 q 375 183 350 183 q 496 238 446 183 q 546 363 546 292 l 546 378 q 533 435 540 407 q 496 479 526 463 q 386 519 456 501 q 129 383 204 519 q 96 267 96 335 q 131 135 96 194 q 233 42 168 71 q 382 13 297 13 l 432 13 q 529 35 490 24 q 590 57 568 46 q 714 168 657 89 q 770 258 739 203 q 840 389 801 313 q 918 538 886 479 q 968 628 950 597 q 1119 814 1044 753 l 1115 818 m 675 828 q 771 854 718 854 q 899 824 811 854 q 1028 794 988 794 q 1100 808 1067 794 q 992 767 1050 767 q 861 801 953 767 q 725 836 769 836 q 675 828 700 836 m 665 817 q 631 729 631 778 q 665 663 631 682 q 742 644 699 644 q 868 694 826 644 q 874 707 871 697 l 876 696 q 711 618 786 618 q 674 622 692 618 l 628 643 q 594 710 594 664 q 665 817 594 763 "},"J":{"ha":1261,"x_min":-19,"x_max":1629,"o":"m 953 804 q 1092 868 1013 868 q 1253 826 1144 868 q 1415 785 1361 785 q 1524 819 1446 785 q 1629 844 1590 849 q 1528 797 1553 813 q 1488 768 1510 786 q 1443 724 1467 750 q 1370 638 1408 688 q 1292 521 1332 588 q 1247 445 1279 500 q 1164 301 1215 390 q 1014 51 1065 131 q 1043 40 1028 40 q 1074 45 1053 40 q 1106 50 1094 50 q 1158 82 1132 65 q 1210 115 1183 99 l 1218 108 q 1028 22 1121 22 q 1015 23 1022 22 q 999 25 1008 24 q 719 -278 871 -165 q 338 -415 533 -415 q 61 -315 165 -415 q -19 -164 -7 -249 q 139 169 -19 67 q 19 -85 19 50 q 97 -286 19 -183 q 293 -396 164 -375 q 361 -400 324 -400 q 724 -239 563 -400 q 849 -100 792 -171 q 956 46 907 -29 q 879 168 879 110 q 906 247 876 196 q 975 274 953 274 q 990 272 986 274 q 1031 219 1033 246 q 1015 175 1035 192 q 1001 197 1006 176 q 985 222 997 218 q 967 226 974 226 q 906 182 914 226 q 901 157 901 163 q 956 63 901 104 q 1031 172 988 106 q 1129 326 1074 238 q 1228 481 1185 415 q 1301 588 1271 546 q 1386 690 1340 640 q 1486 786 1432 739 q 1419 767 1471 785 q 1351 753 1379 753 q 1310 761 1328 753 q 1190 811 1278 768 q 1065 849 1113 849 q 981 822 1021 849 q 946 751 946 786 q 1006 676 946 694 q 1088 665 1039 665 l 1117 665 q 1131 665 1124 665 q 1144 667 1138 665 q 1174 686 1154 668 q 1204 704 1193 701 q 1099 638 1192 676 l 1074 638 q 986 646 1013 638 q 921 701 943 660 q 915 735 915 714 q 953 804 915 789 m 151 183 q 210 210 172 185 q 347 242 271 242 q 521 189 449 242 q 600 31 600 131 q 493 -150 600 -71 q 372 -190 436 -190 q 265 -136 292 -171 q 232 -64 232 -103 q 233 -51 232 -54 q 260 -6 233 -28 q 296 25 293 18 q 222 -19 254 14 q 201 -86 201 -47 q 236 -164 201 -129 q 346 -199 271 -199 q 600 -61 501 -199 q 633 76 633 14 q 594 192 633 139 q 403 264 539 264 q 151 183 257 264 "},"K":{"ha":1036,"x_min":69,"x_max":1456,"o":"m 1369 868 q 1418 856 1407 863 q 1449 819 1443 846 q 1428 775 1456 796 l 1397 775 q 1403 807 1403 796 q 1378 843 1403 832 q 1219 779 1285 843 q 1111 639 1200 760 q 961 490 1028 522 l 881 453 q 935 346 935 411 q 831 103 925 285 q 860 35 825 51 q 981 101 932 35 l 981 76 q 960 65 976 75 q 914 38 943 56 q 844 11 871 11 q 804 21 822 11 q 788 50 801 22 q 778 82 778 68 q 779 97 778 93 l 785 97 q 803 143 788 111 q 850 226 819 175 q 906 364 906 319 q 883 433 906 403 q 839 451 853 451 q 825 449 833 451 q 726 304 761 356 q 682 242 690 253 q 597 140 640 185 q 505 65 553 96 q 403 17 457 33 q 286 0 349 0 q 82 92 129 0 q 69 158 69 143 q 126 226 69 226 q 143 225 139 226 l 161 211 q 115 129 115 179 q 144 71 115 93 q 169 51 157 60 q 193 32 182 42 q 294 14 242 14 q 608 190 463 14 l 788 486 q 986 769 892 661 q 974 775 981 775 q 943 758 960 775 q 896 751 922 751 q 747 792 851 751 q 610 832 643 832 q 501 724 531 832 q 511 683 500 704 q 526 664 519 672 q 535 650 532 656 q 632 631 585 631 q 742 671 706 631 q 765 689 758 688 q 631 597 744 635 q 608 596 625 596 q 483 647 529 596 q 469 721 469 681 q 538 813 469 769 q 639 858 581 840 q 790 818 686 858 q 938 779 890 779 q 1049 821 978 779 q 1133 853 1104 853 q 1115 839 1132 839 q 1082 833 1088 839 q 933 669 994 772 q 833 468 899 614 q 863 463 844 463 q 911 475 882 463 l 953 492 q 1081 646 997 536 q 1214 796 1157 747 q 1369 868 1281 854 "},"L":{"ha":783,"x_min":46,"x_max":1033,"o":"m 707 832 q 849 868 772 868 q 1021 776 972 868 q 1033 703 1033 739 q 939 506 1033 607 q 760 432 853 432 q 719 436 740 432 q 660 499 660 471 q 688 581 660 557 q 728 592 707 592 q 747 588 739 592 l 765 568 q 731 543 764 558 q 700 511 700 529 q 742 456 700 469 q 799 447 764 447 l 819 447 q 925 513 883 463 q 981 626 964 557 q 992 672 992 651 q 967 776 992 701 q 819 849 911 849 q 769 842 808 849 q 633 761 693 826 q 554 621 578 701 q 533 353 554 446 q 403 125 500 206 q 496 104 460 113 q 550 90 532 96 q 689 36 628 68 q 647 0 672 0 q 590 26 638 0 q 524 50 542 54 q 494 57 514 51 q 446 72 475 63 q 367 89 397 89 q 289 53 321 89 q 131 10 213 10 q 75 15 99 10 q 50 68 46 31 q 347 125 140 125 l 390 125 q 472 292 440 178 q 510 503 489 358 q 547 697 529 642 q 707 832 572 778 m 124 92 q 111 73 118 88 q 108 54 104 58 q 176 43 138 43 q 328 90 250 43 q 224 101 286 101 q 124 92 164 101 "},"M":{"ha":1581,"x_min":96,"x_max":2007,"o":"m 2006 868 q 1984 824 2007 844 q 1936 796 1961 803 q 1900 801 1921 801 q 1810 763 1861 801 q 1726 706 1743 711 q 1374 163 1472 451 q 1367 124 1371 143 q 1361 85 1364 104 q 1422 21 1361 21 q 1511 74 1463 21 q 1561 119 1542 108 l 1564 115 q 1386 7 1469 7 q 1328 40 1340 7 q 1319 61 1322 54 q 1314 71 1315 68 q 1706 708 1344 392 q 1762 744 1728 724 q 1843 790 1796 764 q 1682 824 1756 824 q 1550 785 1606 824 q 1339 538 1443 688 q 1265 424 1307 493 q 1167 261 1222 354 q 1073 104 1111 168 q 1011 6 1035 40 l 960 6 q 1085 217 1008 90 q 1271 518 1163 344 l 1418 751 q 1446 803 1446 796 q 1414 842 1446 825 q 1122 626 1254 842 q 1065 468 1101 544 q 980 323 1029 392 q 868 195 931 254 q 733 89 806 136 l 836 192 q 925 303 901 261 q 1019 479 968 379 q 1072 668 1072 585 q 1039 793 1072 735 q 917 842 994 842 q 760 764 825 842 q 704 661 721 717 q 764 533 704 564 q 804 528 785 528 q 864 586 864 528 q 860 611 864 599 q 900 575 892 622 q 874 506 907 539 q 803 472 840 472 q 697 551 757 472 q 685 619 685 585 q 772 794 685 724 q 944 867 861 867 q 1078 801 1024 867 q 1125 693 1117 754 q 1131 678 1125 682 q 1419 865 1279 843 q 1489 821 1472 857 q 1478 769 1489 800 q 1463 722 1464 732 q 1731 861 1610 861 q 1817 844 1772 861 q 1874 835 1839 844 q 1928 825 1908 825 q 1938 826 1932 825 q 1953 828 1944 826 l 2006 868 m 235 497 q 438 558 325 558 q 653 429 583 558 q 660 372 660 399 q 610 254 660 293 q 443 181 532 181 q 328 231 374 181 q 301 294 301 257 q 344 360 301 350 q 368 365 351 365 q 414 344 397 365 l 414 328 q 399 329 411 329 q 349 300 361 329 q 347 289 347 293 q 346 282 346 285 q 413 203 346 253 q 461 199 435 199 q 528 212 499 199 q 578 248 558 225 q 610 299 599 271 q 621 360 621 328 q 617 401 621 381 q 444 536 549 536 q 168 400 258 536 q 143 294 143 350 q 179 158 143 219 q 469 8 267 8 q 631 40 563 8 q 672 61 649 50 q 725 88 696 72 q 706 63 719 71 q 628 31 658 43 q 582 14 597 18 q 443 0 532 0 q 222 47 315 0 q 106 200 122 133 q 96 265 96 233 q 235 497 96 404 "},"N":{"ha":1246,"x_min":76,"x_max":1607,"o":"m 522 22 q 776 215 636 67 q 958 481 915 365 q 993 633 993 572 q 976 742 993 685 q 832 822 938 822 l 815 822 q 799 819 801 819 q 639 614 639 769 q 679 531 639 563 q 742 508 706 508 q 765 513 754 508 q 800 561 800 543 q 797 585 800 582 q 807 589 803 589 q 819 581 813 589 q 826 563 824 569 q 831 554 829 557 q 811 510 821 521 q 777 480 800 490 q 732 469 754 469 q 687 480 707 469 q 651 507 667 490 q 628 546 636 524 q 619 593 619 568 q 686 756 619 669 q 863 842 776 842 q 1000 775 951 842 q 1043 647 1033 726 q 1326 857 1186 857 q 1353 858 1332 858 q 1432 846 1379 858 q 1479 838 1460 840 q 1513 835 1499 835 q 1592 868 1560 835 l 1606 868 q 1585 831 1607 843 l 1540 807 q 1333 675 1421 767 q 1199 492 1258 597 q 1153 408 1179 456 q 1096 300 1128 361 q 1032 131 1032 182 q 1050 69 1032 96 q 1106 39 1071 39 q 1181 75 1138 39 q 1235 146 1224 113 q 1197 88 1211 110 q 1178 61 1183 67 q 1089 21 1140 21 q 1014 46 1031 21 q 1001 82 1001 60 q 1131 449 1001 271 q 1197 535 1153 479 q 1308 675 1242 592 q 1460 794 1376 736 q 1308 819 1378 819 q 1172 783 1229 819 q 1036 592 1089 710 q 994 497 1019 553 q 938 365 969 440 q 799 179 881 244 q 536 18 632 49 q 392 -4 469 -4 q 135 104 231 -4 q 76 258 76 171 q 93 360 76 293 q 175 468 108 417 q 300 524 242 518 q 392 532 363 532 q 590 436 549 532 q 610 367 610 390 q 540 231 610 292 q 394 171 472 171 q 314 193 349 171 q 275 263 275 219 q 310 347 275 329 q 336 357 325 357 q 371 332 364 357 q 349 323 357 326 q 339 318 342 319 q 313 296 317 307 q 310 281 310 285 l 310 274 q 317 247 310 261 q 335 220 324 232 q 360 199 346 208 q 386 189 374 190 q 421 185 407 185 q 468 193 444 185 q 511 217 492 201 q 545 251 531 232 q 564 294 560 271 q 572 350 572 332 q 514 468 572 418 q 386 519 457 519 q 275 496 354 519 q 220 466 246 486 q 174 420 194 446 q 140 363 154 394 q 119 299 125 332 q 324 25 119 89 q 433 7 374 7 q 522 22 481 7 "},"O":{"ha":672,"x_min":40,"x_max":1000,"o":"m 704 865 q 753 869 743 869 q 989 758 897 869 q 1000 703 1000 732 q 988 644 1000 669 q 939 618 961 618 q 922 629 929 618 q 956 699 956 660 q 951 724 956 711 q 853 818 924 786 q 715 850 804 838 q 363 710 532 850 q 139 396 206 578 q 89 214 89 256 q 111 114 89 160 q 183 42 138 61 q 283 25 228 24 q 299 26 292 25 l 308 26 l 321 26 q 486 113 411 50 q 549 176 518 139 q 610 261 579 213 q 694 399 654 315 q 726 531 726 467 q 703 636 726 582 q 617 674 665 674 q 585 669 601 674 q 433 554 497 633 q 367 379 364 468 q 380 330 368 347 q 407 307 392 313 q 424 301 413 301 q 446 308 431 301 q 471 314 461 315 q 474 301 474 306 q 433 263 474 288 q 388 267 400 263 q 354 300 369 274 q 339 368 339 326 q 375 490 339 425 q 399 528 382 501 q 447 599 417 556 q 653 699 574 699 q 728 672 706 699 q 765 622 742 656 q 769 592 768 608 q 771 557 771 576 q 653 269 771 410 q 594 202 629 242 q 510 113 558 163 q 229 -17 340 -17 q 93 50 149 -17 q 40 196 40 115 q 57 297 40 239 q 74 346 65 321 q 89 396 82 371 q 332 713 146 574 q 704 865 514 847 "},"P":{"ha":946,"x_min":58,"x_max":1217,"o":"m 1036 863 q 1143 819 1094 854 q 1211 733 1192 785 q 1217 682 1217 713 q 1122 507 1217 572 q 925 450 1038 450 q 801 265 893 372 q 763 224 801 265 q 647 97 725 182 q 306 0 483 0 q 106 46 194 0 q 58 129 58 79 q 107 210 58 197 q 122 211 117 211 q 133 211 129 211 q 160 194 153 211 q 133 172 157 188 q 106 140 110 157 q 176 39 96 90 q 346 4 279 4 q 738 242 568 4 q 865 463 810 344 q 815 500 815 497 q 774 546 782 526 q 765 582 765 565 q 808 650 765 629 l 836 650 q 867 629 864 650 q 835 618 847 622 q 819 611 822 614 q 797 571 794 597 q 860 478 797 517 l 878 478 q 938 563 911 526 q 983 624 964 600 q 1115 743 1049 703 q 1096 722 1113 735 q 1076 703 1079 710 q 1038 646 1057 675 q 999 589 1018 617 q 938 468 953 518 q 969 464 954 464 q 1088 508 1022 464 q 1124 552 1110 535 q 1144 579 1138 569 q 1172 663 1172 624 q 1164 710 1172 685 q 1026 828 1126 796 q 839 847 960 847 l 779 847 q 363 508 403 763 q 357 469 357 492 q 376 401 357 438 q 432 364 397 374 q 458 358 440 361 q 501 353 475 356 q 689 431 586 353 q 582 351 688 404 q 456 328 515 328 q 340 368 385 328 q 307 461 307 410 q 351 607 307 515 q 935 868 554 868 l 976 868 q 1001 867 986 868 q 1036 863 1017 865 "},"Q":{"ha":679,"x_min":46,"x_max":969,"o":"m 589 849 l 686 863 q 813 842 796 849 q 913 775 889 822 q 932 711 932 729 q 900 640 932 668 l 926 640 q 969 725 969 663 q 969 738 969 731 q 967 754 968 744 q 742 868 917 868 q 589 849 679 868 m 554 838 l 569 838 q 575 843 575 838 q 554 838 563 838 m 543 835 q 225 588 350 750 q 90 213 90 414 l 115 118 q 250 31 149 31 q 357 56 307 31 q 275 139 326 111 q 254 143 264 143 q 211 129 231 143 q 197 108 204 125 q 178 89 189 90 q 175 101 175 100 q 218 158 175 133 q 272 168 239 168 q 351 144 319 168 l 408 86 q 701 553 704 300 q 700 568 701 561 l 700 578 l 700 592 q 633 683 700 631 q 597 688 614 688 q 432 599 525 688 q 349 413 349 486 q 358 361 349 385 q 393 326 371 328 q 407 325 400 325 q 422 325 415 325 l 442 351 q 458 328 458 344 q 450 297 458 315 q 401 269 411 269 q 385 275 390 269 q 344 297 363 275 q 319 338 340 304 q 318 367 318 344 q 490 664 318 535 q 629 713 583 713 q 664 708 644 713 q 746 606 738 667 q 592 232 746 403 q 419 69 521 153 q 511 28 471 28 q 542 33 529 28 q 579 54 558 33 q 608 79 601 76 q 603 88 606 81 l 603 99 l 619 85 q 633 111 628 90 q 654 131 639 128 q 531 14 654 54 q 483 0 504 0 q 415 22 461 0 q 349 46 365 46 q 290 17 319 46 q 258 12 272 14 q 229 10 243 10 q 69 89 117 10 q 46 226 46 153 q 122 490 46 358 q 301 704 190 608 q 543 835 417 804 "},"R":{"ha":968,"x_min":72,"x_max":1515,"o":"m 1265 868 q 1361 850 1326 857 q 1407 840 1396 843 q 1515 754 1483 815 q 1500 749 1510 749 q 1471 768 1490 749 q 1443 790 1453 789 q 1263 822 1360 822 q 988 758 1111 822 q 1042 619 1042 704 q 947 457 1042 511 q 810 408 883 421 q 847 308 847 364 q 821 188 847 267 q 796 68 796 106 q 840 39 806 39 q 865 43 853 39 q 892 66 881 56 q 910 83 903 76 q 946 131 936 110 q 950 115 950 122 q 926 75 950 94 l 881 38 q 783 18 849 18 q 756 88 756 39 q 756 100 756 94 q 757 111 756 106 l 760 133 q 825 356 825 300 q 824 381 825 375 q 764 408 789 408 q 700 353 731 408 l 635 232 q 457 64 543 115 l 481 85 q 553 166 515 115 q 635 292 592 217 l 772 529 q 940 740 861 672 q 674 843 840 843 q 344 703 492 843 q 267 525 267 628 q 332 414 267 471 q 400 404 360 404 q 579 514 536 404 q 610 629 594 556 q 628 635 615 628 q 647 643 640 643 q 656 642 653 643 q 568 479 635 550 q 410 388 497 401 q 372 382 394 382 q 271 414 324 382 q 226 528 226 450 q 226 549 226 540 q 228 564 226 558 q 344 733 254 656 q 532 831 436 813 q 718 853 647 853 q 971 769 879 853 q 1053 811 1018 794 q 1113 838 1089 828 q 1265 868 1190 868 m 79 136 q 115 161 83 161 q 149 144 140 161 q 121 103 121 132 q 206 29 121 51 q 279 19 239 19 q 449 61 363 19 q 233 0 324 0 q 106 39 158 0 q 72 107 72 72 q 79 136 72 118 m 957 721 q 843 583 896 676 q 763 421 839 578 q 785 419 768 419 q 879 439 810 419 q 962 507 929 460 q 994 608 994 554 q 987 651 989 636 q 983 668 985 665 q 957 721 975 701 m 824 453 l 832 453 l 832 446 l 824 446 l 824 453 m 938 700 l 946 700 q 940 689 946 699 l 938 700 "},"S":{"ha":825,"x_min":50,"x_max":1058,"o":"m 826 849 q 913 868 872 868 q 1006 835 968 868 q 1058 729 1058 797 q 1024 639 1053 681 q 950 583 994 597 q 906 579 925 579 q 865 590 885 579 q 833 658 833 606 q 835 672 833 668 q 888 706 849 706 q 900 704 897 706 l 911 696 q 872 631 867 661 q 939 594 896 594 q 971 599 956 594 q 1025 671 1017 619 q 1031 707 1031 682 q 1005 788 1031 750 q 939 840 979 826 q 888 847 914 847 q 836 843 861 847 q 798 823 817 836 q 765 792 779 810 q 740 753 750 774 q 726 713 729 733 q 772 526 726 649 q 818 342 818 406 q 778 197 818 286 q 624 53 738 111 q 417 0 515 0 q 401 1 408 0 l 392 1 l 379 1 q 188 51 272 1 q 61 201 97 106 q 50 274 50 235 q 104 439 50 361 q 429 568 226 568 q 592 469 526 553 q 615 375 615 429 q 543 233 615 288 q 389 185 478 185 q 299 215 333 185 q 274 239 285 226 q 256 267 263 251 q 300 367 256 347 l 347 360 q 315 324 346 357 q 294 281 294 300 q 303 254 294 268 q 426 199 325 199 l 451 199 q 543 265 507 218 q 579 369 579 311 q 479 521 579 451 q 368 553 431 553 q 232 519 300 553 q 94 279 94 436 q 113 165 94 260 q 232 44 128 88 q 408 7 317 7 q 664 101 554 7 q 774 342 774 194 q 765 408 774 375 q 700 658 700 597 q 713 733 700 700 q 826 849 738 807 "},"T":{"ha":758,"x_min":67,"x_max":1369,"o":"m 1088 838 l 1121 838 q 1367 868 1288 838 q 1317 811 1369 819 q 1176 794 1249 800 q 1026 789 1104 789 q 771 797 942 789 q 622 805 685 803 q 515 807 558 807 q 265 635 342 782 q 254 583 254 606 q 297 481 254 550 q 417 440 342 440 q 572 499 514 440 q 621 582 611 535 q 572 668 621 653 q 526 660 551 672 q 503 646 513 651 q 489 638 494 640 q 558 693 496 653 q 651 657 632 693 q 653 633 653 643 q 654 617 654 624 q 652 585 654 597 q 645 561 650 572 q 631 539 640 550 q 607 514 621 528 q 506 446 567 472 q 388 419 444 419 q 283 442 332 419 q 210 540 232 472 l 210 557 q 251 672 210 615 q 346 753 288 722 q 772 833 503 833 q 851 833 807 833 q 949 831 894 832 l 1076 826 l 1088 838 m 399 26 q 646 239 561 83 q 711 367 672 290 q 803 550 750 444 q 1018 783 886 710 l 989 754 q 963 739 975 740 q 811 483 890 661 q 729 303 763 372 q 679 207 696 235 q 608 128 653 167 q 497 56 564 90 q 283 0 392 0 q 94 50 178 0 q 67 114 67 85 q 71 139 67 126 q 118 165 85 165 q 131 164 126 165 l 143 153 q 114 107 114 133 q 117 94 114 106 q 310 18 185 18 q 399 26 353 18 "},"U":{"ha":929,"x_min":56,"x_max":1179,"o":"m 535 858 q 657 768 617 835 q 686 657 686 719 q 619 464 686 585 q 585 409 613 453 q 507 286 557 365 q 454 203 472 232 q 433 169 436 174 q 403 108 415 139 q 381 46 390 78 q 446 15 399 15 q 479 19 464 15 q 744 261 624 106 q 832 388 785 313 q 938 565 879 464 q 1092 832 1060 782 l 1179 846 q 1043 639 1126 772 q 843 310 960 506 q 760 174 800 238 q 682 51 719 110 q 694 28 688 40 q 710 15 700 17 q 810 51 757 15 q 832 67 810 51 q 899 115 854 83 l 897 103 q 851 71 874 88 q 807 39 829 54 q 706 1 750 1 q 661 10 683 1 q 639 51 639 28 q 661 108 639 74 q 685 158 682 142 q 536 47 599 81 q 360 0 451 0 q 333 46 333 10 q 333 67 333 57 q 335 88 333 76 q 429 244 374 150 q 560 464 485 338 q 631 613 619 569 q 635 656 635 631 q 590 781 635 719 q 340 844 543 844 q 183 763 257 831 q 92 611 107 694 q 167 451 92 472 q 261 438 214 438 q 365 478 333 438 q 400 522 390 496 q 408 553 406 540 q 414 575 411 567 q 409 603 411 593 q 406 619 407 614 q 381 654 397 643 q 340 664 375 654 q 286 644 314 664 l 243 613 q 360 693 283 679 q 398 685 378 689 q 425 665 418 681 q 443 607 443 643 q 418 528 443 567 q 208 399 315 399 q 69 483 94 411 q 56 554 56 521 q 85 658 56 610 q 164 754 115 714 q 229 801 194 781 q 303 839 264 822 q 447 868 369 868 q 535 858 504 868 "},"V":{"ha":694,"x_min":76,"x_max":1606,"o":"m 1597 753 l 1606 753 l 1606 735 q 1461 808 1549 789 q 1296 821 1403 821 l 1229 821 q 879 635 1040 783 q 624 324 778 540 q 485 136 543 211 q 390 22 426 61 l 335 0 q 300 22 314 0 q 294 40 294 29 q 360 175 294 60 q 593 554 486 397 q 667 659 626 604 q 754 775 707 714 q 660 744 715 775 q 615 750 643 750 l 590 750 q 525 765 543 750 q 285 821 349 821 q 150 768 200 821 q 103 683 103 726 q 168 569 103 622 q 282 542 217 542 q 421 585 365 542 l 500 660 q 346 522 476 578 q 264 507 308 507 q 117 556 178 507 q 76 650 76 621 q 156 786 76 713 q 332 850 224 850 q 501 815 389 850 q 665 781 614 781 q 803 833 754 781 q 828 852 818 850 q 851 856 839 854 q 835 837 850 846 q 808 819 821 828 q 655 611 738 739 q 476 306 572 483 q 343 54 343 57 q 365 25 343 31 q 461 119 401 42 l 540 232 q 678 426 628 354 q 743 517 728 497 q 988 764 868 675 q 1310 868 1129 868 q 1433 856 1368 868 q 1597 753 1558 815 "},"W":{"ha":990,"x_min":92,"x_max":1917,"o":"m 615 1 q 593 28 596 8 q 658 208 606 110 q 686 253 661 211 q 760 374 711 294 q 816 461 783 413 q 893 571 849 510 l 1061 804 l 1054 810 q 864 599 950 724 q 693 340 807 515 q 583 188 639 257 q 468 64 526 119 q 357 -3 399 -3 q 322 12 336 -3 q 307 47 307 26 q 356 165 307 71 q 455 331 392 233 q 611 556 518 428 l 779 786 q 744 772 764 781 q 696 750 724 764 q 504 788 631 750 q 313 825 376 825 q 132 740 204 825 q 121 685 121 711 q 158 603 121 636 q 303 554 211 554 q 407 568 353 554 q 515 661 468 596 l 522 654 q 276 514 415 514 q 228 518 253 514 q 184 532 201 525 q 157 544 167 539 q 106 596 124 563 q 92 679 92 665 q 101 721 92 703 q 375 849 181 849 q 506 835 440 849 q 533 819 519 831 q 689 779 621 779 q 804 821 760 779 q 842 857 832 857 q 851 842 849 857 q 750 722 815 819 q 607 501 674 608 q 481 293 540 394 q 364 54 364 90 q 383 25 364 32 q 438 51 401 19 q 460 74 449 63 q 483 96 472 85 q 558 181 515 125 q 660 319 601 236 q 749 451 696 374 q 874 631 803 529 q 1118 865 981 781 l 1132 865 q 969 642 1058 781 q 775 306 881 503 q 686 143 719 204 q 639 60 653 82 q 638 50 638 57 q 658 17 638 17 q 868 314 667 17 q 1253 739 1063 599 q 1606 871 1433 871 q 1747 854 1685 871 q 1917 744 1861 824 q 1636 847 1818 847 q 1183 643 1401 847 q 1020 474 1094 560 q 885 296 946 388 q 799 168 813 188 q 701 51 744 93 q 615 1 643 -6 "},"X":{"ha":1063,"x_min":57,"x_max":1197,"o":"m 669 822 q 721 769 693 808 q 742 738 732 754 q 761 706 751 721 q 765 685 763 700 q 775 646 768 671 q 785 586 785 613 q 1113 838 899 747 q 803 536 915 733 q 692 113 692 339 q 763 47 715 47 q 819 35 789 35 q 942 83 874 35 q 1054 272 1054 164 q 1047 321 1054 289 q 1001 376 1032 363 q 982 378 990 378 q 968 379 974 379 q 886 332 908 379 q 878 317 883 317 q 871 318 874 317 q 988 415 918 415 q 1004 419 996 419 q 1075 361 1050 419 q 1082 311 1082 331 q 904 39 1082 183 q 801 8 868 8 q 690 33 744 8 q 635 217 635 76 q 239 0 428 0 q 110 25 176 0 q 57 114 57 69 q 65 147 57 131 q 144 178 94 182 q 175 128 175 157 q 164 130 171 128 q 150 135 157 132 q 135 140 143 139 q 124 140 128 142 q 100 99 100 125 q 122 50 100 72 q 244 11 169 11 q 478 96 343 11 q 661 314 585 164 q 732 592 732 457 q 730 630 732 608 q 725 679 728 651 q 672 764 713 725 l 590 826 q 482 844 542 844 q 271 753 351 844 q 213 599 213 686 q 226 525 213 557 q 325 439 260 463 l 346 439 q 441 460 393 439 q 511 518 489 481 q 529 575 529 549 q 521 619 529 599 q 460 653 497 653 q 410 626 436 653 q 385 594 390 607 q 446 672 386 644 q 488 676 464 676 q 547 643 536 676 q 551 610 551 624 q 422 429 551 506 q 344 411 392 411 q 261 425 307 411 q 183 519 201 456 q 181 544 182 533 q 181 561 181 554 q 222 706 181 635 q 324 817 261 774 q 501 868 396 868 q 669 822 594 868 m 1171 856 q 1197 861 1192 863 q 1185 859 1192 860 q 1171 856 1179 858 m 1124 842 q 1160 851 1142 853 q 1124 842 1144 846 "},"Y":{"ha":793,"x_min":-196,"x_max":1426,"o":"m 178 -365 q -4 -399 71 -399 q -85 -388 -50 -399 q -146 -360 -121 -378 q -183 -322 -171 -343 q -196 -281 -196 -301 q -135 -226 -196 -226 q -100 -250 -107 -226 q -128 -256 -126 -254 q -149 -273 -143 -260 q -154 -296 -154 -286 q -74 -371 -154 -340 q 26 -386 -28 -386 q 78 -382 47 -386 q 150 -368 110 -378 q 343 -257 249 -344 q 482 -81 414 -190 q 521 -12 493 -61 q 592 115 549 36 l 586 119 q 551 85 564 97 q 531 67 538 72 q 465 31 497 38 q 419 96 465 81 q 357 108 382 108 q 261 79 311 108 q 234 60 254 75 q 178 19 214 46 q 235 67 201 39 q 314 135 269 96 q 453 279 400 213 q 585 596 585 449 q 540 749 585 676 q 342 840 479 840 q 122 756 203 840 q 57 613 57 686 q 85 511 57 569 q 199 449 132 457 q 239 444 221 444 q 360 483 304 444 q 417 585 417 524 q 360 671 417 631 q 300 694 325 694 q 228 640 250 694 l 217 640 q 285 706 242 697 l 315 711 q 340 713 322 713 q 410 683 381 713 q 439 613 439 653 q 342 463 439 529 q 206 421 281 421 q 36 514 69 421 q 19 589 19 557 q 61 704 19 647 q 96 742 74 719 q 150 794 118 765 q 369 864 231 864 q 578 778 500 864 q 642 613 642 706 q 492 296 642 472 q 290 99 397 185 q 408 122 325 122 q 474 97 446 122 q 488 83 481 90 q 506 67 496 75 q 600 167 553 110 q 694 300 647 225 q 769 419 725 349 q 875 583 814 490 q 1079 799 969 725 q 1276 864 1178 864 q 1414 803 1386 864 q 1426 754 1426 774 q 1389 710 1426 710 l 1389 728 q 1353 807 1389 788 q 1300 817 1333 817 q 1169 806 1218 817 q 1050 747 1110 790 q 872 536 954 678 q 839 472 869 533 q 747 289 808 410 q 396 -242 551 -99 q 293 -321 329 -301 q 249 -341 278 -331 q 178 -365 219 -351 "},"Z":{"ha":960,"x_min":56,"x_max":1158,"o":"m 1142 863 l 1158 842 q 1089 761 1147 788 q 968 713 993 717 q 940 710 954 710 l 917 710 q 904 710 910 710 q 893 711 899 710 l 776 482 l 833 464 q 789 435 825 432 q 764 436 771 436 q 761 436 757 436 q 474 89 619 194 q 710 39 604 39 q 860 78 799 39 q 881 99 868 86 q 910 131 893 113 q 949 225 949 174 q 930 274 949 253 q 883 294 911 294 q 842 282 860 294 l 799 225 q 822 285 799 253 q 872 326 844 311 q 904 331 886 331 q 974 288 964 331 q 978 253 978 267 q 879 78 978 185 q 646 13 785 13 q 417 50 543 13 q 194 0 267 0 q 57 44 114 0 q 56 57 56 49 q 94 101 56 93 q 207 128 139 128 q 250 125 225 128 q 308 117 275 122 q 368 108 343 111 q 411 106 393 106 q 525 142 481 106 q 599 240 558 169 l 704 432 q 682 442 694 442 l 653 442 q 679 483 658 468 q 696 481 686 482 q 719 476 706 479 q 801 594 760 536 q 882 713 842 653 q 786 757 833 735 q 692 801 739 779 q 492 856 575 856 q 313 771 385 856 q 285 724 294 740 q 275 706 276 708 q 258 635 258 669 l 258 613 q 271 581 265 593 q 284 559 276 568 q 302 541 292 550 q 329 522 313 532 q 428 492 374 492 q 572 582 529 501 l 572 610 q 540 683 572 672 q 513 689 524 689 q 469 676 499 689 q 431 667 439 665 q 531 711 468 711 l 553 711 q 576 701 575 703 q 594 682 583 699 l 610 653 q 500 494 610 567 q 400 469 454 469 q 304 489 350 469 q 233 553 251 513 q 219 617 219 581 q 226 675 219 640 q 341 812 264 763 q 514 861 418 861 l 531 861 q 736 817 631 861 l 908 742 q 1103 868 1018 868 l 1125 868 l 1142 863 m 117 83 q 114 64 103 71 q 243 29 167 29 q 371 57 311 29 q 172 96 221 96 q 140 94 151 96 q 117 83 129 92 m 928 742 q 946 736 944 742 l 1044 753 q 1115 817 1101 769 q 1074 825 1094 825 q 928 742 996 825 "},"[":{"ha":347,"x_min":4,"x_max":521,"o":"m 347 743 l 521 779 l 508 743 l 393 719 l 75 -174 l 181 -150 l 167 -186 l 4 -222 l 347 743 "},"]":{"ha":347,"x_min":4,"x_max":521,"o":"m 178 -186 l 4 -222 l 17 -186 l 131 -161 l 450 731 l 343 708 l 357 744 l 521 779 l 178 -186 "},"^":{"ha":418,"x_min":307,"x_max":644,"o":"m 454 494 q 336 417 401 444 l 307 406 l 307 443 l 339 468 q 449 614 411 524 l 456 626 l 497 626 l 503 614 q 613 468 532 532 l 644 443 l 644 406 l 617 417 q 556 449 586 431 q 497 494 526 468 l 476 515 l 454 494 "},"_":{"ha":418,"x_min":186,"x_max":526,"o":"m 186 -182 l 526 -182 l 526 -207 l 186 -207 l 186 -182 "},"`":{"ha":365,"x_min":92,"x_max":235,"o":"m 108 422 q 94 447 92 432 q 117 461 96 464 q 132 451 124 460 l 142 442 l 231 357 q 233 349 235 353 l 233 346 l 231 344 q 224 343 224 342 l 214 349 l 108 422 "},"a":{"ha":365,"x_min":-8,"x_max":372,"o":"m 67 129 q 56 105 61 118 q 43 75 50 92 q 49 38 46 57 q 69 15 53 19 q 89 13 75 10 q 110 19 99 14 q 44 0 82 0 q 10 10 19 0 q -8 64 -8 36 q 18 133 -8 94 q 33 153 21 139 q 68 194 46 168 q 143 254 97 228 q 233 285 194 285 q 267 278 250 285 q 292 265 283 271 q 301 258 300 260 q 328 267 319 265 l 328 247 l 204 43 q 209 19 201 31 q 229 11 217 8 q 372 92 301 26 q 294 29 350 61 q 201 0 240 0 q 165 26 169 0 q 158 39 164 36 q 138 33 150 43 q 122 22 125 24 q 271 236 193 74 q 231 269 261 250 q 214 272 217 272 q 156 243 182 272 q 67 129 94 178 "},"b":{"ha":321,"x_min":-22,"x_max":501,"o":"m 485 663 l 501 636 q 300 381 467 499 l 154 278 l 154 272 q 200 279 185 279 q 281 228 260 279 q 290 181 290 203 q 243 79 290 126 q 140 21 194 33 q 35 0 54 0 q -22 36 -3 0 q 249 499 119 332 q 305 569 283 543 q 338 606 326 596 q 460 664 397 664 q 485 663 479 664 m 321 106 l 315 89 q 238 26 292 54 q 210 14 226 21 q 169 0 193 7 q 203 24 172 10 l 244 44 q 273 61 263 54 q 286 71 283 68 q 306 87 297 78 q 321 106 314 96 m 28 43 l 36 29 q 67 17 50 17 q 135 38 78 17 q 211 96 174 51 q 249 179 249 139 q 230 233 249 207 q 185 258 211 258 q 90 171 142 258 q 74 137 89 168 q 28 43 58 106 m 419 643 q 269 478 336 586 l 160 300 q 255 365 211 331 q 338 438 299 399 q 453 626 435 536 q 419 643 440 647 "},"c":{"ha":217,"x_min":-4,"x_max":250,"o":"m 89 11 q 53 20 74 8 q 32 47 32 32 q 58 154 32 100 q 124 239 86 213 q 203 274 175 274 q 231 258 224 274 q 203 229 236 246 q 198 222 200 226 q 193 215 196 218 q 203 214 196 211 q 214 215 210 214 q 239 226 228 215 q 246 251 250 238 q 203 278 240 278 q 86 229 142 278 q 13 124 40 189 q -4 58 -4 79 q 29 7 -4 15 q 61 1 46 1 q 178 47 115 1 q 212 77 197 61 q 238 111 226 93 q 171 49 214 79 q 89 11 121 11 "},"d":{"ha":364,"x_min":0,"x_max":518,"o":"m 467 564 l 494 564 q 518 558 511 564 q 413 392 454 457 q 353 296 372 326 q 270 153 308 221 q 200 26 232 86 q 228 10 214 10 q 289 35 231 10 q 360 114 331 53 q 240 6 346 50 q 207 0 225 0 q 171 7 194 0 q 167 26 167 15 l 167 38 q 168 43 167 42 q 57 0 90 0 q 0 56 0 0 q 10 103 0 85 q 99 228 49 185 q 211 265 142 265 l 229 265 q 255 263 240 265 q 289 258 269 261 q 467 564 390 418 m 206 249 q 99 175 151 236 q 82 151 92 165 q 60 117 72 136 q 36 54 36 78 q 88 21 36 21 q 179 90 135 21 l 260 224 q 224 253 240 253 q 206 249 215 253 "},"e":{"ha":208,"x_min":-15,"x_max":219,"o":"m 163 272 q 175 274 169 274 q 183 275 181 275 q 217 247 219 275 q 157 163 211 193 q 115 147 142 156 q 51 131 89 139 q 25 76 25 113 q 29 44 25 58 q 82 14 43 14 q 169 56 113 14 q 210 117 194 72 q 99 11 210 53 q 42 -1 61 -1 q -11 32 -1 -1 q -15 69 -15 50 q 40 197 -15 140 q 163 272 90 250 m 158 249 q 60 150 97 238 l 71 144 q 136 175 108 153 q 172 235 172 203 q 170 246 175 242 q 158 249 165 250 "},"f":{"ha":192,"x_min":-240,"x_max":482,"o":"m 339 592 q 432 635 394 635 q 482 599 467 635 q 467 578 479 592 q 406 600 449 600 q 372 596 389 600 q 282 496 319 556 q 233 415 263 464 q 165 301 204 367 q 207 289 178 289 l 246 289 l 246 276 l 156 275 q 104 184 144 256 q -7 -14 64 113 q -102 -172 -56 -103 q -193 -289 -149 -240 q -206 -283 -199 -283 q -228 -290 -222 -290 q -240 -285 -235 -290 q -143 -159 -193 -232 q -39 6 -93 -86 q 50 163 6 85 q 139 319 94 240 q 339 592 229 478 m 50 14 q 200 126 126 47 q 158 69 189 92 q 97 25 126 46 q 50 4 68 4 l 50 14 "},"g":{"ha":363,"x_min":-189,"x_max":365,"o":"m 243 292 q 276 279 247 289 q 307 271 299 271 q 338 282 322 271 q 303 219 326 258 q 249 125 281 181 l 178 3 q 360 133 307 49 l 365 133 q 294 43 365 101 q 160 -28 247 4 q 64 -165 107 -122 q -76 -253 4 -229 q -108 -258 -87 -253 q -139 -262 -128 -262 q -189 -206 -189 -262 q -178 -181 -189 -192 q -49 -81 -140 -125 q -6 -64 -46 -79 q 108 -21 33 -49 q 135 13 135 4 q 119 10 129 13 q 99 5 110 8 q 77 -1 88 1 q 60 -3 67 -3 q 13 17 31 -3 q -4 68 -4 38 q 0 97 -4 85 q 93 226 21 175 q 243 292 156 272 m 165 258 q 39 63 50 158 q 96 25 40 25 q 194 125 154 53 l 258 240 q 208 267 244 267 q 165 258 215 267 m -143 -169 q -149 -192 -149 -179 q -133 -226 -149 -211 q -93 -232 -118 -232 q 15 -164 -31 -232 q 49 -115 29 -144 q 94 -46 68 -86 q 41 -63 72 -53 q -33 -89 10 -74 q -143 -169 -107 -117 "},"h":{"ha":349,"x_min":-47,"x_max":501,"o":"m 442 679 q 481 674 461 682 q 497 647 501 667 q 353 431 472 521 l 154 281 q 143 256 157 274 q 239 282 190 282 q 289 269 268 282 q 301 229 301 249 q 272 160 301 199 q 249 129 261 144 q 224 99 236 114 q 197 36 197 58 q 207 18 197 24 q 347 122 269 18 q 285 40 326 75 q 193 0 238 0 q 158 8 175 0 q 149 32 149 17 q 157 60 149 49 q 175 91 161 68 q 213 150 189 114 q 258 244 247 204 q 218 264 243 264 q 169 251 200 264 q 76 144 119 215 q 10 17 65 128 q -47 0 -6 0 q 19 124 -43 21 q 54 184 22 131 q 146 339 86 238 q 219 457 185 406 q 285 547 253 508 q 442 679 351 631 m 376 629 q 304 525 347 594 q 203 349 261 456 q 453 633 406 468 q 436 649 456 649 q 376 629 418 649 "},"i":{"ha":146,"x_min":-32,"x_max":197,"o":"m 171 390 q 196 371 196 390 q 179 346 197 356 q 167 343 171 343 q 147 358 154 343 q 144 367 144 364 q 171 390 144 390 m 99 272 l 139 271 l 19 32 q 42 15 25 15 q 82 31 49 15 l 175 110 q 108 35 118 44 q 19 -1 64 -1 q 8 -1 14 -1 q -6 1 1 0 q -32 35 -32 6 q -28 47 -32 43 l 99 272 "},"j":{"ha":246,"x_min":-236,"x_max":268,"o":"m 240 428 q 268 406 268 428 q 238 375 268 381 q 206 399 210 368 q 240 428 206 428 m 158 300 q 182 306 169 303 q 207 311 194 308 q 219 310 217 311 q 190 251 210 288 q 138 163 169 215 l 67 44 q 235 151 165 56 l 244 144 q 53 8 183 68 q 3 -63 31 -26 q -58 -139 -24 -100 q -199 -242 -150 -242 q -236 -214 -229 -242 q -144 -81 -218 -142 q -3 4 -107 -51 q 40 76 18 40 q 83 149 61 113 q 158 300 135 238 m -6 -14 q -107 -72 -49 -26 q -186 -157 -165 -118 q -201 -197 -201 -190 q -171 -215 -201 -217 q -57 -100 -110 -185 q -34 -61 -47 -82 q -6 -14 -21 -40 "},"k":{"ha":314,"x_min":-35,"x_max":371,"o":"m 371 617 l 365 599 l 115 172 q 144 164 129 164 q 222 189 164 164 q 263 243 263 225 q 260 256 263 244 q 251 276 249 269 q 271 289 256 289 l 293 289 q 311 261 311 283 q 240 183 311 208 l 150 151 q 182 78 167 139 q 228 19 194 25 q 311 85 271 42 q 199 0 272 0 q 143 63 149 0 q 133 117 136 108 q 96 151 124 140 l 18 10 q -6 3 8 3 q -22 5 -15 4 q -35 6 -29 6 l -26 25 l 194 399 q 228 458 211 429 q 261 518 244 488 q 336 618 321 618 q 363 617 354 617 q 371 617 371 617 "},"l":{"ha":178,"x_min":-37,"x_max":339,"o":"m 289 578 q 306 582 294 582 q 325 580 317 581 q 339 579 333 579 q 296 504 333 554 q 238 405 264 449 q 193 328 213 361 l 104 183 q 53 99 75 135 q 18 39 32 63 q 19 21 13 29 q 38 13 26 13 q 172 107 81 19 l 142 63 q 54 7 115 26 q 1 0 22 0 q -25 25 -37 0 q 42 151 -10 60 q 186 394 94 243 q 245 497 219 451 q 289 578 271 542 "},"m":{"ha":511,"x_min":-42,"x_max":522,"o":"m 165 238 q 76 129 124 203 q 56 94 74 125 q 4 6 38 64 l -42 7 q 33 140 -17 58 q 83 221 64 189 q 113 271 103 253 l 154 269 q 150 250 154 251 q 165 246 154 239 q 256 275 232 275 q 301 253 283 275 q 322 244 311 244 q 358 258 335 244 q 394 272 385 272 q 478 232 478 272 q 429 140 456 185 q 371 51 403 94 l 371 31 q 381 15 371 17 q 461 49 424 15 q 492 83 476 67 q 522 118 507 100 q 424 17 482 44 q 363 0 388 0 q 332 6 344 0 q 322 31 322 15 q 351 99 322 50 q 374 132 363 115 q 396 167 385 149 q 432 239 421 207 q 394 263 421 263 q 354 251 376 263 l 307 226 l 172 1 q 147 3 164 1 q 122 4 131 4 q 194 120 161 61 q 258 242 228 179 q 232 260 253 260 q 165 238 192 260 "},"n":{"ha":367,"x_min":-39,"x_max":372,"o":"m 113 265 q 139 274 121 274 q 160 253 164 274 q 222 268 200 272 q 97 160 149 243 q 72 117 93 153 q 13 14 51 81 q -21 6 -3 10 q -39 13 -32 6 l 113 265 m 226 269 q 245 272 236 271 q 261 272 254 272 q 317 242 311 272 q 263 140 308 208 q 207 36 218 74 q 225 19 203 19 q 313 53 258 19 q 372 118 346 72 q 311 46 363 81 q 193 0 242 0 q 161 22 165 0 q 169 60 158 40 l 192 96 q 272 225 219 154 q 275 233 275 231 q 239 269 275 258 l 226 269 "},"o":{"ha":325,"x_min":0,"x_max":331,"o":"m 189 274 q 221 279 201 279 q 282 240 276 279 q 242 115 282 176 q 146 28 206 61 q 68 -1 92 -1 q 7 26 22 -1 q 0 61 0 43 q 74 208 0 143 q 189 274 118 247 m 272 57 l 331 113 q 194 1 306 39 q 228 24 208 10 q 272 57 247 38 m 154 243 q 47 71 47 157 q 56 28 47 40 q 94 17 65 17 q 201 101 142 17 q 238 206 238 154 q 189 253 238 253 q 154 243 169 253 "},"p":{"ha":378,"x_min":-194,"x_max":378,"o":"m 181 281 q 263 297 236 297 q 326 254 310 297 q 263 104 326 174 q 126 6 208 43 q 99 1 114 1 q 36 32 57 1 q -55 -117 -11 -40 q -142 -279 -99 -194 q -165 -286 -149 -286 q -187 -285 -182 -285 q -190 -285 -194 -285 q -151 -219 -175 -261 q -97 -117 -128 -176 q -49 -26 -75 -74 q 7 78 -24 22 l 126 290 l 158 290 q 181 281 175 290 m 378 129 q 319 60 353 86 q 226 18 286 35 q 378 129 285 36 m 60 61 q 94 24 69 24 q 133 32 108 24 q 272 240 272 103 q 206 264 236 264 q 108 183 150 264 q 77 105 89 135 q 60 61 65 75 "},"q":{"ha":394,"x_min":-8,"x_max":400,"o":"m 247 301 q 293 293 261 303 q 336 283 322 283 q 371 299 356 283 l 164 -76 l 167 -83 l 394 129 q 397 117 400 124 q 339 60 385 101 l 190 -79 q 40 -271 88 -174 q -8 -297 7 -300 q 8 -259 -3 -282 q 36 -208 18 -236 q 71 -151 58 -172 q 89 -119 83 -129 q 132 -42 108 -82 q 165 36 158 4 q 67 0 97 0 q 18 19 40 0 q 1 78 1 57 q 108 229 1 139 q 247 301 176 285 m 221 283 q 111 199 163 254 q 50 79 50 133 q 106 38 50 38 q 129 42 118 38 q 229 146 188 79 q 282 283 271 213 q 261 293 274 293 q 221 283 249 293 "},"r":{"ha":236,"x_min":0,"x_max":243,"o":"m 128 272 q 133 274 129 274 q 147 263 140 274 q 149 251 150 257 q 147 243 147 247 q 146 238 147 240 q 164 232 156 232 q 196 250 178 232 q 229 268 215 268 q 238 267 235 268 q 216 241 231 257 q 179 203 201 225 q 124 133 139 163 q 93 57 93 76 q 119 14 93 14 q 243 117 136 14 q 143 15 188 47 q 100 0 119 0 q 60 40 60 0 q 76 90 60 58 q 118 150 86 111 q 144 185 133 169 q 161 211 156 200 q 125 225 132 225 q 115 221 119 225 q 90 195 107 214 q 50 144 74 176 q 15 99 26 114 q 1 82 3 83 l 0 89 l 128 272 "},"s":{"ha":208,"x_min":4,"x_max":247,"o":"m 4 85 q 79 180 36 129 q 178 289 122 231 q 174 255 175 274 q 172 217 172 236 l 172 186 q 172 169 172 178 q 174 154 172 161 q 163 72 174 101 q 110 13 150 36 q 64 1 79 1 q 17 57 17 1 q 25 94 17 71 l 4 85 m 189 53 l 247 106 q 187 45 215 69 q 135 7 158 21 q 189 53 153 21 m 117 203 l 38 108 l 69 118 q 89 94 89 110 q 61 69 89 74 q 38 60 40 67 q 35 44 35 53 q 74 11 35 11 q 135 68 118 11 q 140 106 140 85 q 117 203 140 149 "},"t":{"ha":190,"x_min":-35,"x_max":242,"o":"m 185 417 q 206 421 192 417 q 228 425 221 425 q 242 421 235 425 l 154 269 l 231 264 l 231 258 l 213 258 q 201 258 207 258 q 190 260 197 258 l 176 260 q 131 228 154 260 q 123 215 131 228 q 100 178 115 203 l 28 64 q 18 39 18 50 q 36 15 18 25 q 118 49 78 15 q 150 76 132 61 q 190 111 168 92 l 190 100 q 159 74 178 89 q 114 39 140 58 q 24 0 65 0 q -25 17 -3 0 q -25 43 -35 25 q 85 228 33 135 q 185 417 136 321 "},"u":{"ha":358,"x_min":-11,"x_max":365,"o":"m 129 274 l 149 274 q 164 268 160 274 q 128 210 146 239 q 92 151 110 181 q 38 33 43 76 q 54 14 35 14 q 158 54 75 14 q 242 175 200 106 l 297 269 l 342 268 q 301 197 333 250 q 213 54 269 143 q 213 43 213 49 q 214 32 213 38 q 224 15 217 17 q 301 42 251 8 q 365 99 342 69 q 246 1 346 44 q 215 -3 233 -3 q 176 11 192 -3 l 158 43 q 29 -1 58 -1 q -11 33 -11 -1 q 35 135 -11 57 q 76 199 53 164 q 129 274 99 233 "},"v":{"ha":283,"x_min":-3,"x_max":307,"o":"m 201 257 q 253 272 225 272 q 307 238 293 272 q 264 118 307 178 q 165 33 224 64 q 57 1 107 1 q -3 25 17 1 q 43 153 -3 83 q 98 233 79 204 q 119 268 117 261 q 142 274 125 274 q 165 267 154 274 q 93 158 93 158 q 38 42 56 96 q 86 17 56 17 q 135 28 104 17 q 260 232 260 121 q 228 251 253 244 q 215 254 221 253 q 201 257 208 256 m 203 0 q 283 43 217 26 q 249 23 269 33 q 203 0 229 13 "},"w":{"ha":488,"x_min":-21,"x_max":488,"o":"m 372 268 q 411 275 396 275 q 459 258 439 275 q 479 214 479 240 q 426 108 479 181 q 217 1 344 1 q 188 3 194 1 q 157 61 167 17 q 92 17 140 36 q 10 -1 46 -1 q -18 18 -21 -1 q 31 144 -11 79 q 68 199 47 168 q 114 268 89 229 l 142 268 q 167 263 157 268 q 25 32 64 122 q 43 18 19 18 q 108 39 67 18 q 189 121 140 54 l 299 269 l 328 263 l 204 67 q 203 53 203 63 q 229 13 203 26 q 250 11 233 11 q 339 44 299 11 q 406 117 356 58 q 453 207 453 169 q 413 250 453 250 q 385 246 396 250 q 369 236 375 242 q 360 226 363 231 q 354 222 357 222 q 344 228 350 222 l 339 228 q 336 235 336 231 q 372 268 336 247 m 488 88 l 483 67 q 425 25 431 29 q 360 6 389 3 q 392 16 375 8 q 428 38 410 24 q 458 63 443 50 q 488 88 472 75 "},"x":{"ha":379,"x_min":-4,"x_max":414,"o":"m 258 224 q 360 272 322 272 q 407 242 390 272 q 401 217 414 228 q 372 207 388 207 q 353 210 364 207 q 363 236 363 224 q 344 258 363 253 q 218 121 256 240 q 206 71 206 85 q 257 26 206 26 q 383 115 308 26 q 347 60 383 88 q 319 40 335 50 q 286 15 304 29 q 221 1 257 1 q 189 11 199 1 q 151 38 175 38 q 100 18 139 38 q 44 0 64 0 q 1 31 14 0 q -4 57 -4 43 q 42 121 -4 104 q 74 108 67 121 q 76 94 76 94 q 54 60 76 78 q 33 38 33 40 q 54 19 33 29 q 154 76 114 19 q 182 131 168 104 q 210 186 196 158 q 213 200 213 200 q 201 228 213 213 l 178 251 q 118 233 131 251 q 114 197 114 214 q 138 172 114 172 l 176 181 q 131 150 160 150 q 110 156 119 150 q 99 189 99 167 q 106 226 99 196 q 188 274 139 274 q 228 257 208 274 q 258 224 229 257 "},"y":{"ha":361,"x_min":-194,"x_max":368,"o":"m -157 -240 q -119 -261 -149 -261 q -50 -247 -104 -261 q 40 -144 -15 -236 q 115 -17 42 -143 l 75 -28 q 107 -4 76 -24 q 131 29 131 11 q 28 0 57 0 q -14 40 -14 0 q -10 69 -14 61 l 114 272 q 136 279 121 279 q 148 278 142 279 q 161 276 154 278 l 28 40 q 51 24 39 32 q 75 19 63 15 q 206 129 151 53 q 292 282 229 163 q 300 281 293 281 q 316 283 306 281 q 331 286 326 286 q 346 274 339 286 q 190 11 239 131 q 361 122 300 46 q 365 111 368 122 q 364 101 364 106 q 364 96 364 99 q 168 -8 247 10 q 43 -181 103 -119 q -135 -287 -36 -260 q -174 -279 -154 -283 q -194 -253 -194 -275 q -167 -190 -194 -222 q -152 -178 -165 -189 q -112 -143 -139 -167 q 71 -29 -35 -76 l -76 -122 q -161 -224 -161 -199 q -157 -240 -161 -232 "},"z":{"ha":267,"x_min":-4,"x_max":288,"o":"m 219 231 q 249 251 233 231 q 272 274 265 274 q 288 265 279 274 l 179 158 l 206 147 q 176 124 199 124 q 158 126 165 125 q 147 126 151 126 q 133 122 139 126 l 75 58 l 167 38 q 204 47 186 38 q 251 114 251 86 l 265 119 q 189 14 242 46 q 151 0 167 0 q 101 14 135 0 q 57 29 67 29 q 6 -3 31 29 l -4 6 q 119 117 44 38 q 114 119 119 118 q 102 122 108 119 q 92 126 96 124 q 89 136 88 129 q 146 160 97 144 q 199 196 186 171 l 199 201 q 101 221 144 201 l 11 108 l 8 114 q 57 177 28 140 q 126 263 86 214 q 194 229 144 229 q 219 231 214 229 "},"~":{"ha":718,"x_min":265,"x_max":711,"o":"m 711 229 q 597 144 674 144 q 539 151 574 144 l 482 167 l 432 179 q 368 192 390 192 q 288 157 331 193 l 276 147 l 265 160 l 282 183 q 313 215 289 196 q 388 244 346 244 q 465 232 421 244 l 514 218 q 555 207 529 213 q 615 196 581 201 q 686 228 651 196 l 700 242 l 711 229 "},"":{"ha":119,"x_min":39,"x_max":118,"o":"m 85 72 q 51 39 51 72 q 69 10 51 18 q 71 -24 82 4 q 39 -67 60 -51 q 99 0 64 -56 q 118 39 118 31 q 85 72 118 72 "},"":{"ha":197,"x_min":-231,"x_max":886,"o":"m 694 804 q 742 803 718 803 q 790 803 767 803 q 876 768 850 801 q 886 733 886 747 q 881 713 886 722 q 856 703 867 700 q 836 744 858 729 l 794 769 q 753 774 772 772 q 718 776 733 776 q 335 560 497 776 q 256 431 311 528 l 183 304 q 203 289 190 289 q 221 293 208 289 q 240 297 233 297 q 253 293 246 297 l 253 282 q 217 290 233 290 q 133 224 151 290 q -2 -24 75 101 q -176 -278 -79 -149 l -231 -275 q 50 144 -111 -147 q 329 583 226 457 q 694 804 458 738 m 214 131 q 157 61 201 97 q 78 18 114 26 q 214 131 165 71 "},"":{"ha":171,"x_min":15,"x_max":169,"o":"m 61 72 q 28 39 28 72 q 47 10 28 18 q 53 -1 53 8 q 15 -67 53 -40 q 75 0 40 -56 q 94 39 94 31 q 61 72 94 72 m 136 72 q 103 39 103 72 q 121 10 103 19 q 122 -18 124 7 q 90 -67 121 -43 q 150 0 115 -56 q 169 39 169 31 q 136 72 169 72 "},"":{"ha":367,"x_min":33,"x_max":339,"o":"m 307 72 q 339 39 339 72 q 307 6 339 6 q 274 39 274 6 q 307 72 274 72 m 67 72 q 99 39 99 72 q 67 6 99 6 q 33 39 33 6 q 67 72 33 72 m 185 72 q 217 39 217 72 q 185 6 217 6 q 151 39 151 6 q 185 72 151 72 "},"":{"ha":296,"x_min":31,"x_max":267,"o":"m 125 349 q 138 383 132 365 l 140 400 l 125 399 l 99 394 l 74 389 q 53 386 60 386 q 31 407 32 385 q 54 431 31 431 q 74 428 60 431 l 99 422 q 112 420 106 421 q 125 418 118 419 l 140 417 l 140 456 l 140 467 q 140 488 140 479 q 138 501 139 496 l 132 529 q 128 560 128 558 q 150 583 128 583 q 171 560 171 583 q 167 529 171 558 l 161 501 q 160 488 161 496 q 158 467 160 479 l 157 456 l 157 417 l 174 418 l 199 422 l 225 428 q 244 431 236 432 q 267 408 267 431 q 246 386 267 386 q 237 387 242 386 q 225 389 232 388 l 199 394 l 174 399 l 157 400 l 161 383 q 174 349 165 368 l 171 328 q 163 247 167 303 l 161 186 l 161 -46 l 138 -46 l 136 247 q 128 328 136 263 l 125 349 "},"":{"ha":296,"x_min":33,"x_max":279,"o":"m 131 351 q 139 373 136 365 q 143 383 142 381 l 147 400 l 131 399 l 106 394 l 79 389 q 60 385 68 385 q 38 407 38 385 q 60 431 38 432 q 79 428 65 431 l 106 422 q 131 418 119 418 l 147 417 l 147 467 l 143 501 l 138 529 l 133 558 q 156 583 132 581 q 178 560 178 585 q 174 529 178 556 l 168 501 l 164 467 l 164 417 l 179 418 q 192 420 186 419 q 206 422 199 421 l 231 428 q 250 431 242 432 q 274 408 274 431 q 251 386 274 386 q 242 387 247 386 q 231 389 238 388 l 206 394 l 179 399 l 164 400 l 168 383 q 181 351 171 369 l 176 329 l 169 285 l 179 286 l 208 290 l 235 296 q 247 297 242 297 q 257 299 253 297 q 279 276 276 300 q 254 254 279 254 q 247 255 251 254 q 235 257 242 256 l 208 263 l 179 267 l 169 267 l 168 249 l 167 186 l 167 -46 l 144 -46 l 142 267 l 131 267 l 103 263 l 76 257 q 56 254 63 254 q 33 276 33 253 q 54 299 33 299 q 65 298 60 299 q 76 296 69 297 l 103 290 l 142 285 l 131 351 "},"":{"ha":365,"x_min":169,"x_max":357,"o":"m 176 346 q 169 353 169 346 l 171 356 q 264 415 172 360 q 286 424 278 424 q 310 422 308 424 q 320 410 314 419 q 336 388 326 401 q 357 353 354 361 l 354 347 l 350 346 q 290 390 342 349 q 176 346 181 346 "},"":{"ha":731,"x_min":42,"x_max":885,"o":"m 644 860 q 713 868 678 868 q 801 850 761 868 q 868 794 851 831 q 885 731 885 758 q 863 650 885 686 q 775 607 829 607 q 746 613 757 607 q 713 657 713 638 q 726 697 708 685 q 757 676 736 696 q 788 657 779 657 q 832 681 817 657 q 847 735 847 704 q 843 765 847 750 q 708 860 803 860 q 608 824 656 860 q 542 672 542 754 q 601 481 542 610 q 661 283 661 351 q 578 101 661 178 q 511 52 547 74 q 433 15 475 31 q 315 0 372 0 q 107 79 171 0 q 42 233 42 160 q 50 285 42 257 q 92 376 60 335 q 171 426 125 417 q 197 428 186 428 q 217 428 210 428 q 326 385 308 428 q 339 326 339 353 q 317 282 339 294 q 279 289 303 281 q 285 314 279 296 q 292 342 292 332 q 290 353 292 349 q 218 388 260 388 q 167 376 190 388 q 126 344 144 364 q 97 298 108 324 q 81 244 85 272 q 104 136 81 190 q 174 51 128 82 q 318 10 238 10 q 450 38 392 10 q 508 75 493 64 q 557 124 540 99 q 574 152 564 135 q 597 193 583 169 q 607 260 607 222 q 551 472 607 331 q 497 678 497 615 q 644 860 497 800 m 650 1032 q 764 988 654 1032 q 806 1020 790 1010 q 824 1032 821 1031 l 826 1031 l 831 1025 q 810 990 828 1017 q 783 956 790 963 q 760 954 782 954 q 738 963 750 954 q 643 1022 647 1018 l 643 1025 q 650 1032 643 1032 "},"":{"ha":169,"x_min":38,"x_max":131,"o":"m 99 244 l 131 244 l 68 147 l 99 33 l 69 33 l 38 147 l 99 244 "},"":{"ha":1310,"x_min":40,"x_max":1472,"o":"m 760 467 q 899 531 807 503 q 974 549 936 540 q 1050 567 1011 557 l 1044 608 q 908 589 975 589 q 765 621 826 589 q 769 591 768 607 q 771 557 771 575 q 768 511 771 533 q 760 467 765 489 m 676 361 l 679 368 q 726 531 726 457 q 703 636 726 582 q 617 674 665 674 q 585 669 601 674 q 433 554 497 633 q 367 379 364 468 q 380 330 368 347 q 407 307 392 313 q 424 301 413 301 q 446 308 431 301 q 471 314 461 315 q 474 301 474 306 q 433 263 474 288 q 388 267 400 263 q 354 300 369 274 q 339 368 339 326 q 375 490 339 425 q 399 528 382 501 q 447 599 417 556 q 653 699 574 699 q 692 693 671 699 q 685 736 685 714 q 771 840 685 813 q 744 845 757 843 q 715 850 731 847 q 363 710 532 850 q 139 396 206 578 q 89 214 89 256 q 111 114 89 160 q 183 42 138 61 q 283 25 228 24 q 299 26 292 25 l 308 26 l 321 26 q 486 113 411 50 q 610 261 540 157 q 676 361 647 304 m 1278 865 q 1307 867 1294 867 q 1326 868 1319 868 q 1456 815 1424 868 q 1472 764 1472 788 q 1415 658 1472 715 q 1293 593 1350 593 q 1238 607 1264 593 q 1203 646 1218 608 q 1183 682 1190 682 q 1151 661 1172 682 q 1097 592 1097 649 q 1104 554 1097 578 q 899 508 1000 554 q 736 376 783 456 q 693 239 693 307 q 732 110 693 161 q 951 21 817 21 q 1189 125 1082 21 q 1268 279 1268 200 q 1236 379 1268 331 q 1107 432 1147 432 q 972 360 1046 432 q 925 275 931 318 q 981 182 915 214 l 1000 182 q 1047 199 1035 182 l 1047 229 q 1063 233 1053 233 q 1089 207 1090 233 q 1035 140 1094 171 q 1022 138 1028 139 q 1014 138 1017 138 q 935 161 1008 138 q 904 239 904 183 q 904 251 904 246 q 906 265 904 258 l 908 289 q 1003 401 942 357 q 1140 453 1065 446 q 1303 360 1271 443 q 1307 314 1307 336 q 1194 113 1307 189 q 908 0 1061 0 q 785 24 844 0 q 658 131 703 46 q 642 225 642 176 q 642 242 642 233 q 643 258 642 250 q 510 113 597 201 q 229 -17 340 -17 q 93 50 149 -17 q 40 196 40 115 q 57 297 40 239 q 74 346 65 321 q 89 396 82 371 q 332 713 146 574 q 704 865 514 847 q 753 869 743 869 q 989 758 897 869 q 1000 703 1000 732 q 988 644 1000 669 q 939 618 961 618 q 922 629 929 618 q 956 699 956 660 q 951 724 956 711 q 803 833 917 804 q 771 818 779 826 q 731 742 731 793 q 742 687 731 713 q 774 643 754 661 q 822 615 794 625 q 879 604 849 604 l 904 604 q 1057 647 1022 604 q 1278 865 1086 806 m 1147 765 q 1111 661 1122 722 q 1192 704 1146 668 q 1265 751 1249 746 q 1269 742 1269 747 q 1253 707 1269 733 q 1249 682 1249 696 q 1271 633 1249 651 q 1313 624 1290 624 q 1372 649 1343 624 q 1387 663 1375 651 q 1418 697 1399 675 q 1428 750 1428 725 q 1389 824 1428 786 q 1294 851 1358 851 q 1147 765 1196 851 "},"":{"ha":107,"x_min":39,"x_max":118,"o":"m 72 635 q 106 601 106 635 q 88 572 106 581 q 86 539 75 567 q 118 494 97 510 q 58 561 93 506 q 39 601 39 593 q 72 635 39 635 "},"":{"ha":119,"x_min":39,"x_max":118,"o":"m 85 635 q 51 601 51 635 q 69 572 51 581 q 71 539 82 567 q 39 494 60 510 q 99 561 64 506 q 118 601 118 593 q 85 635 118 635 "},"":{"ha":171,"x_min":15,"x_max":169,"o":"m 124 635 q 157 601 157 635 q 138 572 157 581 q 132 560 132 568 q 169 494 132 521 q 110 561 144 506 q 90 601 90 593 q 124 635 90 635 m 49 635 q 82 601 82 635 q 64 572 82 582 q 64 544 63 571 q 94 494 67 517 q 35 561 69 506 q 15 601 15 593 q 49 635 15 635 "},"":{"ha":171,"x_min":15,"x_max":169,"o":"m 61 635 q 28 601 28 635 q 47 572 28 581 q 53 560 53 571 q 15 494 53 521 q 75 561 40 506 q 94 601 94 593 q 61 635 94 635 m 136 635 q 103 601 103 635 q 121 572 103 582 q 122 544 124 569 q 90 494 121 518 q 150 561 115 506 q 169 601 169 593 q 136 635 169 635 "},"":{"ha":265,"x_min":-24,"x_max":172,"o":"m 163 150 l -24 150 q -19 163 -22 156 q -14 182 -17 171 l 172 182 q 163 150 169 181 "},"":{"ha":367,"x_min":-24,"x_max":265,"o":"m 256 150 l -24 150 q -19 163 -22 156 q -14 182 -17 171 l 265 182 q 256 150 263 181 "},"":{"ha":365,"x_min":174,"x_max":399,"o":"m 176 363 l 185 374 l 200 389 q 251 415 226 417 q 311 393 275 415 q 324 385 318 388 q 335 382 331 383 l 344 379 q 388 401 364 379 l 392 403 l 397 401 l 399 396 l 396 392 l 374 369 q 329 346 350 346 q 314 349 322 346 l 296 357 l 261 374 q 235 383 243 383 q 196 364 219 383 l 185 354 l 179 351 l 175 353 l 174 356 l 174 357 l 176 363 "},"":{"ha":574,"x_min":38,"x_max":539,"o":"m 43 635 l 238 635 l 242 544 l 226 544 l 218 568 q 164 619 204 613 l 164 450 q 165 425 164 429 q 185 410 169 413 l 199 410 l 199 393 l 82 393 l 82 410 l 96 410 q 119 450 119 414 l 119 619 q 63 565 82 615 l 54 544 l 38 544 l 43 635 m 256 410 l 267 411 q 292 449 292 417 l 292 586 q 274 617 292 615 l 256 619 l 256 635 l 347 635 l 394 475 l 447 635 l 539 635 l 539 619 l 526 617 q 503 583 503 614 l 503 449 q 506 422 503 429 q 526 410 508 415 l 539 410 l 539 393 l 422 393 l 422 410 l 436 411 q 457 425 453 413 q 458 449 458 428 l 458 614 l 386 393 l 375 393 l 311 607 l 311 449 q 333 413 311 417 l 347 410 l 347 393 l 256 393 l 256 410 "},"":{"ha":213,"x_min":11,"x_max":239,"o":"m 11 89 q 182 297 117 228 q 171 194 171 256 l 171 161 q 163 76 171 103 q 110 13 150 36 q 65 1 79 1 q 18 57 18 1 q 26 94 18 71 q 18 92 22 93 q 11 89 14 90 m 117 203 l 39 108 l 71 118 q 89 93 89 108 q 68 69 89 74 q 38 58 40 63 q 54 15 32 25 q 68 13 63 13 q 123 40 104 13 q 142 106 142 68 q 117 203 142 146 m 60 422 q 174 378 64 422 q 232 422 224 419 l 236 421 l 239 415 q 218 381 236 407 q 202 358 208 367 q 193 346 196 350 q 168 344 192 344 q 147 353 160 344 q 77 396 100 381 q 53 413 54 411 l 51 415 q 60 422 51 422 "},"":{"ha":169,"x_min":38,"x_max":131,"o":"m 69 244 l 38 244 l 100 147 l 69 33 l 99 33 l 131 147 l 69 244 "},"":{"ha":433,"x_min":0,"x_max":442,"o":"m 213 119 q 231 160 219 143 q 238 206 238 185 q 189 253 238 253 q 154 243 169 253 q 47 71 47 157 q 56 28 47 40 q 94 17 65 17 q 201 101 142 17 q 207 110 204 106 q 213 119 210 114 m 385 275 q 397 277 392 276 q 406 278 403 278 q 439 250 442 278 q 379 165 433 196 q 338 150 364 158 q 274 133 311 142 q 247 79 247 115 q 251 47 247 61 q 304 17 265 17 q 392 58 335 17 q 432 119 417 75 q 321 14 432 56 q 264 0 285 0 q 211 35 219 0 q 206 72 206 51 q 176 48 192 58 q 146 28 161 38 q 68 -1 92 -1 q 7 26 22 -1 q 0 61 0 43 q 74 208 0 143 q 189 274 118 247 q 221 279 201 279 q 282 240 276 279 q 282 229 282 235 q 281 218 282 224 q 385 275 324 256 m 381 251 q 282 153 319 240 l 293 147 q 358 178 331 156 q 394 238 394 206 q 392 249 397 244 q 381 251 388 253 "},"":{"ha":793,"x_min":-196,"x_max":1426,"o":"m 178 -365 q -4 -399 71 -399 q -85 -388 -50 -399 q -146 -360 -121 -378 q -183 -322 -171 -343 q -196 -281 -196 -301 q -135 -226 -196 -226 q -100 -250 -107 -226 q -128 -256 -126 -254 q -149 -273 -143 -260 q -154 -296 -154 -286 q -74 -371 -154 -340 q 26 -386 -28 -386 q 78 -382 47 -386 q 150 -368 110 -378 q 343 -257 249 -344 q 482 -81 414 -190 q 521 -12 493 -61 q 592 115 549 36 l 586 119 q 551 85 564 97 q 531 67 538 72 q 465 31 497 38 q 419 96 465 81 q 357 108 382 108 q 261 79 311 108 q 234 60 254 75 q 178 19 214 46 q 235 67 201 39 q 314 135 269 96 q 453 279 400 213 q 585 596 585 449 q 540 749 585 676 q 342 840 479 840 q 122 756 203 840 q 57 613 57 686 q 85 511 57 569 q 199 449 132 457 q 239 444 221 444 q 360 483 304 444 q 417 585 417 524 q 360 671 417 631 q 300 694 325 694 q 228 640 250 694 l 217 640 q 285 706 242 697 l 315 711 q 340 713 322 713 q 410 683 381 713 q 439 613 439 653 q 342 463 439 529 q 206 421 281 421 q 36 514 69 421 q 19 589 19 557 q 61 704 19 647 q 96 742 74 719 q 150 794 118 765 q 369 864 231 864 q 578 778 500 864 q 642 613 642 706 q 492 296 642 472 q 290 99 397 185 q 408 122 325 122 q 474 97 446 122 q 488 83 481 90 q 506 67 496 75 q 600 167 553 110 q 694 300 647 225 q 769 419 725 349 q 875 583 814 490 q 1079 799 969 725 q 1276 864 1178 864 q 1414 803 1386 864 q 1426 754 1426 774 q 1389 710 1426 710 l 1389 728 q 1353 807 1389 788 q 1300 817 1333 817 q 1169 806 1218 817 q 1050 747 1110 790 q 872 536 954 678 q 839 472 869 533 q 747 289 808 410 q 396 -242 551 -99 q 293 -321 329 -301 q 249 -341 278 -331 q 178 -365 219 -351 m 892 1000 q 917 981 917 1000 q 900 956 918 965 q 888 953 892 953 q 868 968 875 953 q 865 976 865 974 q 892 1000 865 1000 m 794 1000 q 819 981 819 1000 q 803 956 821 965 q 790 953 794 953 q 771 968 778 953 q 768 976 768 974 q 794 1000 768 1000 "},"":{"ha":272,"x_min":57,"x_max":404,"o":"m 57 13 q 131 178 57 71 q 214 308 174 240 q 293 450 254 375 l 301 450 q 218 231 275 396 l 154 46 q 96 -6 133 -6 q 57 13 57 -6 m 346 543 q 308 589 301 543 q 361 635 314 635 q 399 589 404 635 q 346 543 392 543 "},"":{"ha":472,"x_min":38,"x_max":436,"o":"m 65 456 l 121 400 q 238 439 176 439 q 354 400 299 439 l 410 456 l 436 429 l 381 374 q 419 258 419 321 q 381 142 419 190 l 436 86 l 410 60 l 354 115 q 238 76 294 76 q 121 115 181 76 l 64 60 l 39 86 l 96 142 q 56 258 56 194 q 96 374 56 314 l 38 429 l 65 456 m 96 257 q 137 156 96 197 q 238 115 178 115 q 292 126 267 115 q 338 156 318 138 q 368 201 357 175 q 379 257 379 228 q 368 312 379 286 q 338 357 357 338 q 292 388 318 376 q 238 399 267 399 q 135 359 175 399 q 96 257 96 319 "},"":{"ha":278,"x_min":39,"x_max":238,"o":"m 76 376 q 40 449 40 417 q 49 501 40 475 q 74 546 58 526 q 111 577 89 565 q 160 589 133 589 q 213 568 190 589 q 235 518 235 547 q 196 468 235 469 q 167 497 168 468 q 193 526 164 526 l 206 526 l 206 533 q 151 572 197 572 q 93 544 117 572 q 71 481 69 515 q 85 438 72 453 q 125 404 99 422 l 167 378 l 186 364 q 219 290 219 339 q 189 210 221 247 l 183 203 l 208 183 q 238 111 238 160 q 237 91 238 100 q 235 72 236 82 q 160 -29 218 -4 q 118 -39 140 -39 q 40 31 39 -37 q 78 79 43 79 q 106 49 106 79 q 86 21 108 25 l 68 21 l 74 6 q 128 -21 83 -21 q 188 14 164 -22 q 208 86 208 44 q 153 163 208 136 l 111 183 q 47 282 47 214 q 79 356 50 333 l 89 364 l 76 376 m 79 311 q 144 224 79 251 q 161 219 153 219 q 189 257 189 219 q 167 319 189 290 q 113 347 146 347 q 79 311 76 347 "},"":{"ha":365,"x_min":199,"x_max":349,"o":"m 322 390 q 347 371 347 390 q 331 346 349 356 q 318 343 322 343 q 299 358 306 343 q 296 367 296 364 q 322 390 296 390 m 225 390 q 250 371 250 390 q 233 346 251 356 q 221 343 225 343 q 201 358 208 343 q 199 367 199 364 q 225 390 199 390 "},"":{"ha":272,"x_min":43,"x_max":435,"o":"m 43 439 q 99 578 43 522 q 239 635 156 635 q 378 578 321 635 q 435 439 435 521 q 378 300 435 357 q 239 243 321 243 q 99 299 154 243 q 43 439 43 354 m 72 439 q 85 373 72 403 q 120 320 97 343 q 173 285 143 297 q 239 272 203 272 q 357 321 308 272 q 406 439 406 369 q 357 557 406 508 q 239 606 308 606 q 121 557 169 606 q 72 439 72 508 m 329 407 q 244 321 321 321 q 167 356 196 321 q 139 442 139 392 q 147 488 139 465 q 167 528 154 510 q 199 556 181 546 q 240 567 218 567 q 269 560 250 567 q 294 553 288 553 q 308 565 297 553 l 325 565 l 325 476 l 308 475 q 298 503 303 492 q 289 522 293 515 q 247 547 274 547 q 192 442 192 547 q 254 340 192 340 q 313 407 301 340 l 329 407 "},"":{"ha":239,"x_min":38,"x_max":211,"o":"m 100 244 l 131 244 l 68 147 l 100 33 l 69 33 l 38 147 l 100 244 m 179 244 l 211 244 l 149 147 l 179 33 l 150 33 l 118 147 l 179 244 "},"":{"ha":1389,"x_min":0,"x_max":0,"o":""},"":{"ha":465,"x_min":33,"x_max":425,"o":"m 33 439 q 89 578 33 522 q 229 635 146 635 q 368 578 311 635 q 425 439 425 521 q 368 300 425 357 q 229 243 311 243 q 89 299 144 243 q 33 439 33 354 m 63 439 q 75 373 63 403 q 110 320 88 343 q 163 285 133 297 q 229 272 193 272 q 347 321 299 272 q 396 439 396 369 q 347 557 396 508 q 229 606 299 606 q 111 557 160 606 q 63 439 63 508 m 165 382 l 165 510 q 157 535 165 528 q 147 538 154 536 q 129 540 140 539 l 129 557 l 236 557 q 325 500 325 557 q 267 443 325 457 q 303 393 290 428 q 321 363 313 363 q 336 392 333 363 l 351 392 q 307 331 349 331 q 269 353 283 331 q 263 370 267 360 q 256 396 258 381 q 242 433 249 428 q 208 440 235 440 l 208 381 q 217 353 208 358 q 246 347 224 349 l 246 331 l 129 331 l 129 347 q 165 382 165 351 m 208 457 l 228 457 q 275 500 275 457 q 239 540 275 540 q 208 507 208 540 l 208 457 "},"":{"ha":365,"x_min":236,"x_max":381,"o":"m 364 424 l 249 344 q 242 346 246 344 l 239 347 l 239 351 q 242 358 236 353 l 340 454 q 356 463 347 461 q 378 449 376 467 q 364 424 381 433 "},"":{"ha":401,"x_min":44,"x_max":390,"o":"m 390 590 l 335 590 l 335 -129 l 303 -129 l 303 590 l 261 590 l 261 -129 l 229 -129 l 229 235 l 203 240 q 89 305 132 256 q 44 426 46 354 q 97 556 44 503 q 225 618 144 606 q 267 623 244 621 q 314 625 290 625 l 390 625 l 390 590 "},"":{"ha":217,"x_min":-53,"x_max":111,"o":"m 53 -43 q 65 -42 57 -42 q 104 -71 97 -42 q 85 -119 111 -99 q 36 -143 65 -137 q -8 -146 11 -147 q -50 -132 -46 -144 q -46 -124 -53 -126 l -39 -124 q 26 -124 -3 -131 q 74 -87 74 -118 q 49 -65 74 -61 l 38 -68 l 28 -69 l 19 -72 l 17 -72 l 15 -71 l 15 -68 l 15 -62 l 50 6 l 68 10 l 39 -47 l 53 -43 "},"":{"ha":239,"x_min":38,"x_max":211,"o":"m 149 244 l 118 244 l 181 147 l 149 33 l 179 33 l 211 147 l 149 244 m 69 244 l 38 244 l 100 147 l 69 33 l 99 33 l 131 147 l 69 244 "},"":{"ha":447,"x_min":129,"x_max":542,"o":"m 133 93 q 129 122 129 107 q 194 264 129 178 q 243 308 211 286 q 322 354 275 331 q 433 425 419 403 q 450 463 450 447 q 438 486 450 479 q 422 489 424 489 q 389 472 406 489 q 361 440 369 449 q 388 482 367 463 q 431 501 408 501 q 468 468 465 501 q 396 367 471 424 q 301 292 335 319 q 258 257 267 265 q 185 86 185 179 q 251 15 185 36 q 301 7 276 7 q 406 53 353 7 q 457 151 457 99 q 456 160 457 154 q 454 172 456 165 q 414 156 429 156 q 386 169 399 156 q 374 197 374 182 q 435 247 374 247 q 485 217 479 247 q 489 160 489 197 q 450 72 489 111 q 369 19 417 38 q 282 0 322 0 q 192 24 233 0 q 133 93 150 49 m 483 542 q 446 588 439 542 q 465 621 449 607 q 500 635 481 635 q 531 621 519 635 q 539 588 542 607 q 519 556 536 569 q 483 542 503 542 "},"":{"ha":1160,"x_min":71,"x_max":1494,"o":"m 1494 851 q 1397 754 1439 818 q 1364 701 1383 732 q 1318 628 1344 669 q 1276 547 1303 596 q 1213 432 1249 499 l 1090 215 q 1033 112 1058 160 q 988 21 1007 64 q 961 14 976 14 q 936 15 943 15 q 935 15 929 15 q 974 87 950 43 q 1028 189 997 131 q 1078 378 1078 286 q 1050 501 1078 439 q 990 424 1026 474 q 906 304 954 375 q 1008 261 935 261 l 1007 226 q 888 279 953 226 q 397 0 656 0 q 276 15 325 0 q 151 97 210 39 q 78 226 86 163 q 73 269 75 253 q 71 290 71 285 q 178 518 71 411 q 479 643 340 643 q 644 594 579 643 q 703 536 675 571 q 721 460 721 501 q 675 325 721 381 q 457 228 582 228 q 383 238 414 228 q 331 265 351 249 q 300 301 310 282 q 290 340 290 321 q 338 406 290 392 q 382 388 364 410 q 349 366 363 383 q 335 329 335 349 q 404 256 335 283 q 479 240 442 240 q 621 301 564 240 q 676 415 676 363 l 676 431 q 635 549 676 496 q 439 624 574 624 q 332 610 386 624 q 206 522 272 589 q 126 397 140 456 q 114 310 114 339 q 210 108 114 204 q 439 26 292 26 q 604 53 525 26 q 863 307 810 154 q 810 500 810 389 q 840 638 810 578 q 924 676 879 676 q 992 656 963 676 q 1015 631 997 650 q 1061 579 1032 613 q 1109 627 1081 596 q 1178 706 1138 658 q 1244 778 1214 747 q 1301 828 1275 808 q 1432 868 1354 868 q 1461 867 1447 868 q 1494 851 1475 865 m 1443 838 q 1422 840 1431 839 q 1408 840 1414 840 q 1269 789 1333 840 q 1218 740 1244 769 q 1164 671 1192 710 l 1081 542 q 1096 440 1096 496 q 1090 367 1096 408 q 1074 276 1085 325 q 1158 422 1117 350 q 1243 567 1200 494 q 1449 832 1349 739 l 1443 838 m 917 631 q 888 625 900 628 q 868 617 876 622 q 853 603 860 613 q 839 581 847 594 q 819 494 819 546 q 881 332 819 413 q 1029 542 996 460 q 917 631 974 631 m 1254 1032 q 1240 1057 1238 1042 q 1263 1071 1242 1074 q 1278 1061 1269 1069 l 1288 1051 l 1376 967 q 1379 958 1381 963 l 1379 956 l 1376 954 q 1369 953 1369 951 l 1360 958 l 1254 1032 "},"":{"ha":1160,"x_min":71,"x_max":1624,"o":"m 1494 851 q 1397 754 1439 818 q 1364 701 1383 732 q 1318 628 1344 669 q 1276 547 1303 596 q 1213 432 1249 499 l 1090 215 q 1033 112 1058 160 q 988 21 1007 64 q 961 14 976 14 q 936 15 943 15 q 935 15 929 15 q 974 87 950 43 q 1028 189 997 131 q 1078 378 1078 286 q 1050 501 1078 439 q 990 424 1026 474 q 906 304 954 375 q 1008 261 935 261 l 1007 226 q 888 279 953 226 q 397 0 656 0 q 276 15 325 0 q 151 97 210 39 q 78 226 86 163 q 73 269 75 253 q 71 290 71 285 q 178 518 71 411 q 479 643 340 643 q 644 594 579 643 q 703 536 675 571 q 721 460 721 501 q 675 325 721 381 q 457 228 582 228 q 383 238 414 228 q 331 265 351 249 q 300 301 310 282 q 290 340 290 321 q 338 406 290 392 q 382 388 364 410 q 349 366 363 383 q 335 329 335 349 q 404 256 335 283 q 479 240 442 240 q 621 301 564 240 q 676 415 676 363 l 676 431 q 635 549 676 496 q 439 624 574 624 q 332 610 386 624 q 206 522 272 589 q 126 397 140 456 q 114 310 114 339 q 210 108 114 204 q 439 26 292 26 q 604 53 525 26 q 863 307 810 154 q 810 500 810 389 q 840 638 810 578 q 924 676 879 676 q 992 656 963 676 q 1015 631 997 650 q 1061 579 1032 613 q 1109 627 1081 596 q 1178 706 1138 658 q 1244 778 1214 747 q 1301 828 1275 808 q 1432 868 1354 868 q 1461 867 1447 868 q 1494 851 1475 865 m 1443 838 q 1422 840 1431 839 q 1408 840 1414 840 q 1269 789 1333 840 q 1218 740 1244 769 q 1164 671 1192 710 l 1081 542 q 1096 440 1096 496 q 1090 367 1096 408 q 1074 276 1085 325 q 1158 422 1117 350 q 1243 567 1200 494 q 1449 832 1349 739 l 1443 838 m 917 631 q 888 625 900 628 q 868 617 876 622 q 853 603 860 613 q 839 581 847 594 q 819 494 819 546 q 881 332 819 413 q 1029 542 996 460 q 917 631 974 631 m 1607 1033 l 1492 954 l 1493 956 q 1493 957 1494 957 q 1485 956 1492 958 l 1482 957 l 1482 961 q 1485 968 1479 963 l 1583 1064 q 1599 1072 1590 1071 q 1621 1058 1619 1076 q 1607 1033 1624 1043 "},"":{"ha":1160,"x_min":71,"x_max":1561,"o":"m 1494 851 q 1397 754 1439 818 q 1364 701 1383 732 q 1318 628 1344 669 q 1276 547 1303 596 q 1213 432 1249 499 l 1090 215 q 1033 112 1058 160 q 988 21 1007 64 q 961 14 976 14 q 936 15 943 15 q 935 15 929 15 q 974 87 950 43 q 1028 189 997 131 q 1078 378 1078 286 q 1050 501 1078 439 q 990 424 1026 474 q 906 304 954 375 q 1008 261 935 261 l 1007 226 q 888 279 953 226 q 397 0 656 0 q 276 15 325 0 q 151 97 210 39 q 78 226 86 163 q 73 269 75 253 q 71 290 71 285 q 178 518 71 411 q 479 643 340 643 q 644 594 579 643 q 703 536 675 571 q 721 460 721 501 q 675 325 721 381 q 457 228 582 228 q 383 238 414 228 q 331 265 351 249 q 300 301 310 282 q 290 340 290 321 q 338 406 290 392 q 382 388 364 410 q 349 366 363 383 q 335 329 335 349 q 404 256 335 283 q 479 240 442 240 q 621 301 564 240 q 676 415 676 363 l 676 431 q 635 549 676 496 q 439 624 574 624 q 332 610 386 624 q 206 522 272 589 q 126 397 140 456 q 114 310 114 339 q 210 108 114 204 q 439 26 292 26 q 604 53 525 26 q 863 307 810 154 q 810 500 810 389 q 840 638 810 578 q 924 676 879 676 q 992 656 963 676 q 1015 631 997 650 q 1061 579 1032 613 q 1109 627 1081 596 q 1178 706 1138 658 q 1244 778 1214 747 q 1301 828 1275 808 q 1432 868 1354 868 q 1461 867 1447 868 q 1494 851 1475 865 m 1443 838 q 1422 840 1431 839 q 1408 840 1414 840 q 1269 789 1333 840 q 1218 740 1244 769 q 1164 671 1192 710 l 1081 542 q 1096 440 1096 496 q 1090 367 1096 408 q 1074 276 1085 325 q 1158 422 1117 350 q 1243 567 1200 494 q 1449 832 1349 739 l 1443 838 m 917 631 q 888 625 900 628 q 868 617 876 622 q 853 603 860 613 q 839 581 847 594 q 819 494 819 546 q 881 332 819 413 q 1029 542 996 460 q 917 631 974 631 m 1382 954 q 1374 961 1374 954 l 1375 964 q 1399 981 1376 965 q 1469 1024 1422 996 q 1490 1032 1482 1032 q 1515 1031 1513 1032 q 1524 1017 1518 1026 q 1540 994 1531 1008 q 1561 961 1558 967 l 1558 956 l 1554 954 q 1496 999 1546 957 q 1382 954 1386 954 "},"":{"ha":1160,"x_min":71,"x_max":1582,"o":"m 1494 851 q 1397 754 1439 818 q 1364 701 1383 732 q 1318 628 1344 669 q 1276 547 1303 596 q 1213 432 1249 499 l 1090 215 q 1033 112 1058 160 q 988 21 1007 64 q 961 14 976 14 q 936 15 943 15 q 935 15 929 15 q 974 87 950 43 q 1028 189 997 131 q 1078 378 1078 286 q 1050 501 1078 439 q 990 424 1026 474 q 906 304 954 375 q 1008 261 935 261 l 1007 226 q 888 279 953 226 q 397 0 656 0 q 276 15 325 0 q 151 97 210 39 q 78 226 86 163 q 73 269 75 253 q 71 290 71 285 q 178 518 71 411 q 479 643 340 643 q 644 594 579 643 q 703 536 675 571 q 721 460 721 501 q 675 325 721 381 q 457 228 582 228 q 383 238 414 228 q 331 265 351 249 q 300 301 310 282 q 290 340 290 321 q 338 406 290 392 q 382 388 364 410 q 349 366 363 383 q 335 329 335 349 q 404 256 335 283 q 479 240 442 240 q 621 301 564 240 q 676 415 676 363 l 676 431 q 635 549 676 496 q 439 624 574 624 q 332 610 386 624 q 206 522 272 589 q 126 397 140 456 q 114 310 114 339 q 210 108 114 204 q 439 26 292 26 q 604 53 525 26 q 863 307 810 154 q 810 500 810 389 q 840 638 810 578 q 924 676 879 676 q 992 656 963 676 q 1015 631 997 650 q 1061 579 1032 613 q 1109 627 1081 596 q 1178 706 1138 658 q 1244 778 1214 747 q 1301 828 1275 808 q 1432 868 1354 868 q 1461 867 1447 868 q 1494 851 1475 865 m 1443 838 q 1422 840 1431 839 q 1408 840 1414 840 q 1269 789 1333 840 q 1218 740 1244 769 q 1164 671 1192 710 l 1081 542 q 1096 440 1096 496 q 1090 367 1096 408 q 1074 276 1085 325 q 1158 422 1117 350 q 1243 567 1200 494 q 1449 832 1349 739 l 1443 838 m 917 631 q 888 625 900 628 q 868 617 876 622 q 853 603 860 613 q 839 581 847 594 q 819 494 819 546 q 881 332 819 413 q 1029 542 996 460 q 917 631 974 631 m 1360 972 l 1368 983 l 1383 999 q 1435 1025 1410 1026 q 1494 1003 1458 1025 q 1508 995 1501 997 q 1518 992 1514 993 l 1528 989 q 1571 1011 1547 989 l 1575 1013 l 1581 1011 l 1582 1006 l 1579 1001 l 1557 979 q 1513 956 1533 956 q 1497 958 1506 956 l 1479 967 l 1444 983 q 1418 993 1426 993 q 1379 974 1403 993 l 1368 964 l 1363 961 l 1358 963 l 1357 965 l 1357 967 l 1360 972 "},"":{"ha":1160,"x_min":71,"x_max":1564,"o":"m 1494 851 q 1397 754 1439 818 q 1364 701 1383 732 q 1318 628 1344 669 q 1276 547 1303 596 q 1213 432 1249 499 l 1090 215 q 1033 112 1058 160 q 988 21 1007 64 q 961 14 976 14 q 936 15 943 15 q 935 15 929 15 q 974 87 950 43 q 1028 189 997 131 q 1078 378 1078 286 q 1050 501 1078 439 q 990 424 1026 474 q 906 304 954 375 q 1008 261 935 261 l 1007 226 q 888 279 953 226 q 397 0 656 0 q 276 15 325 0 q 151 97 210 39 q 78 226 86 163 q 73 269 75 253 q 71 290 71 285 q 178 518 71 411 q 479 643 340 643 q 644 594 579 643 q 703 536 675 571 q 721 460 721 501 q 675 325 721 381 q 457 228 582 228 q 383 238 414 228 q 331 265 351 249 q 300 301 310 282 q 290 340 290 321 q 338 406 290 392 q 382 388 364 410 q 349 366 363 383 q 335 329 335 349 q 404 256 335 283 q 479 240 442 240 q 621 301 564 240 q 676 415 676 363 l 676 431 q 635 549 676 496 q 439 624 574 624 q 332 610 386 624 q 206 522 272 589 q 126 397 140 456 q 114 310 114 339 q 210 108 114 204 q 439 26 292 26 q 604 53 525 26 q 863 307 810 154 q 810 500 810 389 q 840 638 810 578 q 924 676 879 676 q 992 656 963 676 q 1015 631 997 650 q 1061 579 1032 613 q 1109 627 1081 596 q 1178 706 1138 658 q 1244 778 1214 747 q 1301 828 1275 808 q 1432 868 1354 868 q 1461 867 1447 868 q 1494 851 1475 865 m 1443 838 q 1422 840 1431 839 q 1408 840 1414 840 q 1269 789 1333 840 q 1218 740 1244 769 q 1164 671 1192 710 l 1081 542 q 1096 440 1096 496 q 1090 367 1096 408 q 1074 276 1085 325 q 1158 422 1117 350 q 1243 567 1200 494 q 1449 832 1349 739 l 1443 838 m 917 631 q 888 625 900 628 q 868 617 876 622 q 853 603 860 613 q 839 581 847 594 q 819 494 819 546 q 881 332 819 413 q 1029 542 996 460 q 917 631 974 631 m 1538 1000 q 1563 981 1563 1000 q 1546 956 1564 965 q 1533 953 1538 953 q 1514 968 1521 953 q 1511 976 1511 974 q 1538 1000 1511 1000 m 1440 1000 q 1465 981 1465 1000 q 1449 956 1467 965 q 1436 953 1440 953 q 1417 968 1424 953 q 1414 976 1414 974 q 1440 1000 1414 1000 "},"":{"ha":1160,"x_min":71,"x_max":1543,"o":"m 1494 851 q 1397 754 1439 818 q 1364 701 1383 732 q 1318 628 1344 669 q 1276 547 1303 596 q 1213 432 1249 499 l 1090 215 q 1033 112 1058 160 q 988 21 1007 64 q 961 14 976 14 q 936 15 943 15 q 935 15 929 15 q 974 87 950 43 q 1028 189 997 131 q 1078 378 1078 286 q 1050 501 1078 439 q 990 424 1026 474 q 906 304 954 375 q 1008 261 935 261 l 1007 226 q 888 279 953 226 q 397 0 656 0 q 276 15 325 0 q 151 97 210 39 q 78 226 86 163 q 73 269 75 253 q 71 290 71 285 q 178 518 71 411 q 479 643 340 643 q 644 594 579 643 q 703 536 675 571 q 721 460 721 501 q 675 325 721 381 q 457 228 582 228 q 383 238 414 228 q 331 265 351 249 q 300 301 310 282 q 290 340 290 321 q 338 406 290 392 q 382 388 364 410 q 349 366 363 383 q 335 329 335 349 q 404 256 335 283 q 479 240 442 240 q 621 301 564 240 q 676 415 676 363 l 676 431 q 635 549 676 496 q 439 624 574 624 q 332 610 386 624 q 206 522 272 589 q 126 397 140 456 q 114 310 114 339 q 210 108 114 204 q 439 26 292 26 q 604 53 525 26 q 863 307 810 154 q 810 500 810 389 q 840 638 810 578 q 924 676 879 676 q 992 656 963 676 q 1015 631 997 650 q 1061 579 1032 613 q 1109 627 1081 596 q 1178 706 1138 658 q 1244 778 1214 747 q 1301 828 1275 808 q 1432 868 1354 868 q 1461 867 1447 868 q 1494 851 1475 865 m 1443 838 q 1422 840 1431 839 q 1408 840 1414 840 q 1269 789 1333 840 q 1218 740 1244 769 q 1164 671 1192 710 l 1081 542 q 1096 440 1096 496 q 1090 367 1096 408 q 1074 276 1085 325 q 1158 422 1117 350 q 1243 567 1200 494 q 1449 832 1349 739 l 1443 838 m 917 631 q 888 625 900 628 q 868 617 876 622 q 853 603 860 613 q 839 581 847 594 q 819 494 819 546 q 881 332 819 413 q 1029 542 996 460 q 917 631 974 631 m 1438 1008 q 1453 1045 1438 1029 q 1490 1061 1468 1061 q 1527 1045 1511 1061 q 1543 1008 1543 1029 q 1490 956 1543 956 q 1438 1008 1438 956 m 1454 1008 q 1490 974 1456 972 q 1525 1008 1525 975 q 1490 1043 1525 1043 q 1454 1008 1453 1043 "},"":{"ha":2006,"x_min":71,"x_max":2167,"o":"m 917 631 q 888 625 900 628 q 868 617 876 622 q 853 603 860 613 q 839 581 847 594 q 819 494 819 546 q 881 332 819 413 q 1029 542 996 460 q 917 631 974 631 m 1383 764 q 1447 833 1397 811 l 1443 838 q 1422 840 1431 839 q 1408 840 1414 840 q 1269 789 1333 840 q 1218 740 1244 769 q 1164 671 1192 710 l 1081 542 q 1096 440 1096 496 q 1090 367 1096 408 q 1074 276 1085 325 q 1146 401 1110 339 q 1218 526 1182 464 q 1383 764 1304 672 m 1972 865 q 2001 867 1989 867 q 2021 868 2014 868 q 2150 815 2118 868 q 2167 764 2167 788 q 2110 658 2167 715 q 1988 593 2044 593 q 1932 607 1958 593 q 1897 646 1913 608 q 1878 682 1885 682 q 1846 661 1867 682 q 1792 592 1792 649 q 1799 554 1792 578 q 1593 508 1694 554 q 1431 376 1478 456 q 1388 239 1388 307 q 1426 110 1388 161 q 1646 21 1511 21 q 1883 125 1776 21 q 1963 279 1963 200 q 1931 379 1963 331 q 1801 432 1842 432 q 1667 360 1740 432 q 1619 275 1625 318 q 1675 182 1610 214 l 1694 182 q 1742 199 1729 182 l 1742 229 q 1757 233 1747 233 q 1783 207 1785 233 q 1729 140 1789 171 q 1717 138 1722 139 q 1708 138 1711 138 q 1629 161 1703 138 q 1599 239 1599 183 q 1599 251 1599 246 q 1600 265 1599 258 l 1603 289 q 1698 401 1636 357 q 1835 453 1760 446 q 1997 360 1965 443 q 2001 314 2001 336 q 1889 113 2001 189 q 1603 0 1756 0 q 1479 24 1539 0 q 1353 131 1397 46 q 1336 225 1336 176 q 1444 458 1336 360 q 1586 528 1492 499 q 1665 547 1626 538 q 1744 567 1704 557 l 1739 608 q 1603 589 1669 589 q 1424 644 1497 589 q 1379 726 1383 674 q 1353 685 1368 710 q 1318 628 1338 660 q 1276 547 1303 596 q 1213 432 1249 499 l 1090 215 q 1033 112 1058 160 q 988 21 1007 64 q 961 14 976 14 q 936 15 943 15 q 935 15 929 15 q 974 87 950 43 q 1028 189 997 131 q 1078 378 1078 286 q 1050 501 1078 439 q 990 424 1026 474 q 906 304 954 375 q 1008 261 935 261 l 1007 226 q 888 279 953 226 q 397 0 656 0 q 276 15 325 0 q 151 97 210 39 q 78 226 86 163 q 73 269 75 253 q 71 290 71 285 q 178 518 71 411 q 479 643 340 643 q 644 594 579 643 q 703 536 675 571 q 721 460 721 501 q 675 325 721 381 q 457 228 582 228 q 383 238 414 228 q 331 265 351 249 q 300 301 310 282 q 290 340 290 321 q 338 406 290 392 q 382 388 364 410 q 349 366 363 383 q 335 329 335 349 q 404 256 335 283 q 479 240 442 240 q 621 301 564 240 q 676 415 676 363 l 676 431 q 635 549 676 496 q 439 624 574 624 q 332 610 386 624 q 199 514 258 585 q 115 338 124 424 q 114 324 114 331 q 114 310 114 317 q 210 108 114 204 q 439 26 292 26 q 604 53 525 26 q 863 307 810 154 q 810 500 810 389 q 840 638 810 578 q 924 676 879 676 q 992 656 963 676 q 1015 631 997 650 q 1061 579 1032 613 q 1109 627 1081 596 q 1178 706 1138 658 q 1244 778 1214 747 q 1301 828 1275 808 q 1432 868 1354 868 q 1461 867 1447 868 q 1494 851 1475 865 q 1488 847 1492 849 q 1481 843 1483 846 q 1514 847 1518 847 q 1528 844 1517 847 q 1517 839 1525 842 q 1499 833 1508 836 q 1479 826 1489 831 q 1465 818 1469 822 q 1425 742 1425 793 q 1437 687 1425 713 q 1469 643 1449 661 q 1516 615 1489 625 q 1574 604 1543 604 l 1599 604 q 1751 647 1717 604 q 1972 865 1781 806 m 1842 765 q 1806 661 1817 722 q 1886 704 1840 668 q 1960 751 1943 746 q 1964 742 1964 747 q 1947 707 1964 733 q 1943 682 1943 696 q 1965 633 1943 651 q 2007 624 1985 624 q 2067 649 2038 624 q 2081 663 2069 651 q 2113 697 2093 675 q 2122 750 2122 725 q 2083 824 2122 786 q 1989 851 2053 851 q 1842 765 1890 851 "},"":{"ha":801,"x_min":51,"x_max":1071,"o":"m 754 835 q 501 681 618 803 q 339 428 403 574 q 613 547 506 457 q 636 570 624 558 q 661 593 649 582 q 714 624 699 628 q 710 594 711 608 q 707 565 708 581 q 711 539 707 553 q 769 476 728 497 l 786 476 q 888 489 851 476 q 967 550 932 506 q 1019 671 1019 619 q 978 788 1019 718 q 800 835 926 835 l 754 835 m 456 -39 q 468 -37 460 -37 q 507 -67 500 -37 q 488 -115 514 -94 q 439 -139 468 -133 q 393 -142 414 -143 q 351 -128 356 -140 q 356 -119 349 -122 l 363 -119 q 429 -119 397 -126 q 476 -83 476 -114 q 451 -61 476 -57 l 440 -64 l 431 -65 l 422 -68 l 419 -68 l 418 -67 l 418 -64 l 418 -58 l 449 0 q 315 38 375 4 q 239 229 239 106 q 268 392 239 304 q 183 413 249 400 q 103 444 126 424 q 51 556 51 497 q 128 690 51 635 q 183 722 154 708 q 244 742 213 735 q 165 700 183 713 q 104 636 126 674 q 92 563 92 600 q 175 426 92 460 q 244 413 204 413 q 274 414 267 413 q 492 704 346 583 q 819 865 639 824 q 841 867 832 867 q 857 868 850 868 q 1047 786 982 868 q 1059 763 1047 776 q 1071 747 1071 750 q 1060 729 1071 740 q 1061 704 1061 724 q 969 519 1061 600 q 794 460 876 460 q 713 476 754 460 q 672 517 696 478 q 636 560 650 556 q 493 457 543 485 q 328 408 407 408 q 285 236 285 321 q 343 81 285 140 q 525 28 393 28 l 563 28 q 581 28 572 28 q 599 29 589 28 q 742 106 663 43 l 742 90 q 467 0 597 0 l 464 0 l 442 -43 l 456 -39 "},"":{"ha":707,"x_min":42,"x_max":872,"o":"m 678 865 q 707 867 694 867 q 726 868 719 868 q 856 815 824 868 q 872 764 872 788 q 815 658 872 715 q 693 593 750 593 q 638 607 664 593 q 603 646 618 608 q 583 682 590 682 q 551 661 572 682 q 497 592 497 649 q 504 554 497 578 q 299 508 400 554 q 136 376 183 456 q 93 239 93 307 q 132 110 93 161 q 351 21 217 21 q 589 125 482 21 q 668 279 668 200 q 636 379 668 331 q 507 432 547 432 q 372 360 446 432 q 325 275 331 318 q 381 182 315 214 l 400 182 q 447 199 435 182 l 447 229 q 463 233 453 233 q 489 207 490 233 q 435 140 494 171 q 422 138 428 139 q 414 138 417 138 q 335 161 408 138 q 304 239 304 183 q 308 289 304 253 q 403 401 342 357 q 540 453 465 446 q 703 360 671 443 q 707 314 707 336 q 594 113 707 189 q 308 0 461 0 q 185 24 244 0 q 58 131 103 46 q 42 225 42 176 q 150 458 42 360 q 292 528 197 499 q 371 547 332 538 q 450 567 410 557 l 444 608 q 308 589 375 589 q 129 644 203 589 q 85 736 85 676 q 110 802 85 774 q 174 842 136 831 q 197 844 182 842 q 219 847 213 847 q 233 844 222 847 q 222 839 231 842 q 204 833 214 836 q 185 826 194 831 q 171 818 175 822 q 131 742 131 793 q 142 687 131 713 q 174 643 154 661 q 222 615 194 625 q 279 604 249 604 l 304 604 q 457 647 422 604 q 678 865 486 806 m 547 765 q 511 661 522 722 q 592 704 546 668 q 665 751 649 746 q 669 742 669 747 q 653 707 669 733 q 649 682 649 696 q 671 633 649 651 q 713 624 690 624 q 772 649 743 624 q 787 663 775 651 q 818 697 799 675 q 828 750 828 725 q 789 824 828 786 q 694 851 758 851 q 547 765 596 851 m 640 1032 q 626 1057 624 1042 q 649 1071 628 1074 q 664 1061 656 1069 l 674 1051 l 763 967 q 765 958 767 963 l 765 956 l 763 954 q 756 953 756 951 l 746 958 l 640 1032 "},"":{"ha":707,"x_min":42,"x_max":917,"o":"m 678 865 q 707 867 694 867 q 726 868 719 868 q 856 815 824 868 q 872 764 872 788 q 815 658 872 715 q 693 593 750 593 q 638 607 664 593 q 603 646 618 608 q 583 682 590 682 q 551 661 572 682 q 497 592 497 649 q 504 554 497 578 q 299 508 400 554 q 136 376 183 456 q 93 239 93 307 q 132 110 93 161 q 351 21 217 21 q 589 125 482 21 q 668 279 668 200 q 636 379 668 331 q 507 432 547 432 q 372 360 446 432 q 325 275 331 318 q 381 182 315 214 l 400 182 q 447 199 435 182 l 447 229 q 463 233 453 233 q 489 207 490 233 q 435 140 494 171 q 422 138 428 139 q 414 138 417 138 q 335 161 408 138 q 304 239 304 183 q 308 289 304 253 q 403 401 342 357 q 540 453 465 446 q 703 360 671 443 q 707 314 707 336 q 594 113 707 189 q 308 0 461 0 q 185 24 244 0 q 58 131 103 46 q 42 225 42 176 q 150 458 42 360 q 292 528 197 499 q 371 547 332 538 q 450 567 410 557 l 444 608 q 308 589 375 589 q 129 644 203 589 q 85 736 85 676 q 110 802 85 774 q 174 842 136 831 q 197 844 182 842 q 219 847 213 847 q 233 844 222 847 q 222 839 231 842 q 204 833 214 836 q 185 826 194 831 q 171 818 175 822 q 131 742 131 793 q 142 687 131 713 q 174 643 154 661 q 222 615 194 625 q 279 604 249 604 l 304 604 q 457 647 422 604 q 678 865 486 806 m 547 765 q 511 661 522 722 q 592 704 546 668 q 665 751 649 746 q 669 742 669 747 q 653 707 669 733 q 649 682 649 696 q 671 633 649 651 q 713 624 690 624 q 772 649 743 624 q 787 663 775 651 q 818 697 799 675 q 828 750 828 725 q 789 824 828 786 q 694 851 758 851 q 547 765 596 851 m 900 1035 l 785 956 l 786 957 q 786 958 788 958 q 778 957 782 958 l 775 958 l 775 961 q 778 969 774 965 l 876 1064 q 892 1074 885 1072 q 914 1060 913 1078 q 900 1035 917 1044 "},"":{"ha":707,"x_min":42,"x_max":904,"o":"m 678 865 q 707 867 694 867 q 726 868 719 868 q 856 815 824 868 q 872 764 872 788 q 815 658 872 715 q 693 593 750 593 q 638 607 664 593 q 603 646 618 608 q 583 682 590 682 q 551 661 572 682 q 497 592 497 649 q 504 554 497 578 q 299 508 400 554 q 136 376 183 456 q 93 239 93 307 q 132 110 93 161 q 351 21 217 21 q 589 125 482 21 q 668 279 668 200 q 636 379 668 331 q 507 432 547 432 q 372 360 446 432 q 325 275 331 318 q 381 182 315 214 l 400 182 q 447 199 435 182 l 447 229 q 463 233 453 233 q 489 207 490 233 q 435 140 494 171 q 422 138 428 139 q 414 138 417 138 q 335 161 408 138 q 304 239 304 183 q 308 289 304 253 q 403 401 342 357 q 540 453 465 446 q 703 360 671 443 q 707 314 707 336 q 594 113 707 189 q 308 0 461 0 q 185 24 244 0 q 58 131 103 46 q 42 225 42 176 q 150 458 42 360 q 292 528 197 499 q 371 547 332 538 q 450 567 410 557 l 444 608 q 308 589 375 589 q 129 644 203 589 q 85 736 85 676 q 110 802 85 774 q 174 842 136 831 q 197 844 182 842 q 219 847 213 847 q 233 844 222 847 q 222 839 231 842 q 204 833 214 836 q 185 826 194 831 q 171 818 175 822 q 131 742 131 793 q 142 687 131 713 q 174 643 154 661 q 222 615 194 625 q 279 604 249 604 l 304 604 q 457 647 422 604 q 678 865 486 806 m 547 765 q 511 661 522 722 q 592 704 546 668 q 665 751 649 746 q 669 742 669 747 q 653 707 669 733 q 649 682 649 696 q 671 633 649 651 q 713 624 690 624 q 772 649 743 624 q 787 663 775 651 q 818 697 799 675 q 828 750 828 725 q 789 824 828 786 q 694 851 758 851 q 547 765 596 851 m 724 956 q 717 963 717 956 l 718 965 q 811 1025 719 969 q 833 1033 825 1033 q 857 1032 856 1033 q 867 1020 861 1029 q 883 997 874 1011 q 904 963 901 971 l 901 957 l 897 956 q 838 1000 889 958 q 724 956 728 956 "},"":{"ha":707,"x_min":42,"x_max":886,"o":"m 678 865 q 707 867 694 867 q 726 868 719 868 q 856 815 824 868 q 872 764 872 788 q 815 658 872 715 q 693 593 750 593 q 638 607 664 593 q 603 646 618 608 q 583 682 590 682 q 551 661 572 682 q 497 592 497 649 q 504 554 497 578 q 299 508 400 554 q 136 376 183 456 q 93 239 93 307 q 132 110 93 161 q 351 21 217 21 q 589 125 482 21 q 668 279 668 200 q 636 379 668 331 q 507 432 547 432 q 372 360 446 432 q 325 275 331 318 q 381 182 315 214 l 400 182 q 447 199 435 182 l 447 229 q 463 233 453 233 q 489 207 490 233 q 435 140 494 171 q 422 138 428 139 q 414 138 417 138 q 335 161 408 138 q 304 239 304 183 q 308 289 304 253 q 403 401 342 357 q 540 453 465 446 q 703 360 671 443 q 707 314 707 336 q 594 113 707 189 q 308 0 461 0 q 185 24 244 0 q 58 131 103 46 q 42 225 42 176 q 150 458 42 360 q 292 528 197 499 q 371 547 332 538 q 450 567 410 557 l 444 608 q 308 589 375 589 q 129 644 203 589 q 85 736 85 676 q 110 802 85 774 q 174 842 136 831 q 197 844 182 842 q 219 847 213 847 q 233 844 222 847 q 222 839 231 842 q 204 833 214 836 q 185 826 194 831 q 171 818 175 822 q 131 742 131 793 q 142 687 131 713 q 174 643 154 661 q 222 615 194 625 q 279 604 249 604 l 304 604 q 457 647 422 604 q 678 865 486 806 m 547 765 q 511 661 522 722 q 592 704 546 668 q 665 751 649 746 q 669 742 669 747 q 653 707 669 733 q 649 682 649 696 q 671 633 649 651 q 713 624 690 624 q 772 649 743 624 q 787 663 775 651 q 818 697 799 675 q 828 750 828 725 q 789 824 828 786 q 694 851 758 851 q 547 765 596 851 m 860 1000 q 885 981 885 1000 q 868 956 886 965 q 856 953 860 953 q 836 968 843 953 q 833 976 833 974 q 860 1000 833 1000 m 763 1000 q 788 981 788 1000 q 771 956 789 965 q 758 953 763 953 q 739 968 746 953 q 736 976 736 974 q 763 1000 736 1000 "},"":{"ha":858,"x_min":58,"x_max":1222,"o":"m 1115 818 q 1167 849 1126 829 q 1221 868 1208 868 q 1175 844 1222 854 q 960 535 1074 753 q 838 306 885 392 q 771 193 790 221 q 532 35 697 89 q 311 0 367 0 q 171 38 226 0 q 58 222 58 96 q 104 374 58 300 q 219 485 150 449 q 404 540 329 540 q 500 513 457 540 q 586 390 586 464 q 483 210 586 300 q 343 169 379 169 q 270 192 300 169 q 240 256 240 214 q 244 282 240 269 q 304 339 274 319 q 298 326 303 335 q 286 304 293 318 q 272 263 272 281 q 333 189 272 221 q 375 183 350 183 q 496 238 446 183 q 546 363 546 292 l 546 378 q 533 435 540 407 q 496 479 526 463 q 386 519 456 501 q 129 383 204 519 q 96 267 96 335 q 131 135 96 194 q 233 42 168 71 q 382 13 297 13 l 432 13 q 529 35 490 24 q 590 57 568 46 q 714 168 657 89 q 770 258 739 203 q 840 389 801 313 q 918 538 886 479 q 968 628 950 597 q 1119 814 1044 753 l 1115 818 m 675 828 q 771 854 718 854 q 899 824 811 854 q 1028 794 988 794 q 1100 808 1067 794 q 992 767 1050 767 q 861 801 953 767 q 725 836 769 836 q 675 828 700 836 m 665 817 q 631 729 631 778 q 665 663 631 682 q 742 644 699 644 q 868 694 826 644 q 874 707 871 697 l 876 696 q 711 618 786 618 q 674 622 692 618 l 628 643 q 594 710 594 664 q 665 817 594 763 m 867 1032 q 853 1057 850 1042 q 875 1071 854 1074 q 890 1061 882 1069 l 900 1051 l 989 967 q 992 958 993 963 l 992 956 l 989 954 q 982 953 982 951 l 972 958 l 867 1032 "},"":{"ha":858,"x_min":58,"x_max":1222,"o":"m 1115 818 q 1167 849 1126 829 q 1221 868 1208 868 q 1175 844 1222 854 q 960 535 1074 753 q 838 306 885 392 q 771 193 790 221 q 532 35 697 89 q 311 0 367 0 q 171 38 226 0 q 58 222 58 96 q 104 374 58 300 q 219 485 150 449 q 404 540 329 540 q 500 513 457 540 q 586 390 586 464 q 483 210 586 300 q 343 169 379 169 q 270 192 300 169 q 240 256 240 214 q 244 282 240 269 q 304 339 274 319 q 298 326 303 335 q 286 304 293 318 q 272 263 272 281 q 333 189 272 221 q 375 183 350 183 q 496 238 446 183 q 546 363 546 292 l 546 378 q 533 435 540 407 q 496 479 526 463 q 386 519 456 501 q 129 383 204 519 q 96 267 96 335 q 131 135 96 194 q 233 42 168 71 q 382 13 297 13 l 432 13 q 529 35 490 24 q 590 57 568 46 q 714 168 657 89 q 770 258 739 203 q 840 389 801 313 q 918 538 886 479 q 968 628 950 597 q 1119 814 1044 753 l 1115 818 m 675 828 q 771 854 718 854 q 899 824 811 854 q 1028 794 988 794 q 1100 808 1067 794 q 992 767 1050 767 q 861 801 953 767 q 725 836 769 836 q 675 828 700 836 m 665 817 q 631 729 631 778 q 665 663 631 682 q 742 644 699 644 q 868 694 826 644 q 874 707 871 697 l 876 696 q 711 618 786 618 q 674 622 692 618 l 628 643 q 594 710 594 664 q 665 817 594 763 m 1086 1033 l 971 954 l 972 956 q 972 957 974 957 q 964 956 971 958 l 961 957 l 961 961 q 964 968 958 963 l 1063 1064 q 1078 1072 1069 1071 q 1100 1058 1099 1076 q 1086 1033 1103 1043 "},"":{"ha":858,"x_min":58,"x_max":1222,"o":"m 1115 818 q 1167 849 1126 829 q 1221 868 1208 868 q 1175 844 1222 854 q 960 535 1074 753 q 838 306 885 392 q 771 193 790 221 q 532 35 697 89 q 311 0 367 0 q 171 38 226 0 q 58 222 58 96 q 104 374 58 300 q 219 485 150 449 q 404 540 329 540 q 500 513 457 540 q 586 390 586 464 q 483 210 586 300 q 343 169 379 169 q 270 192 300 169 q 240 256 240 214 q 244 282 240 269 q 304 339 274 319 q 298 326 303 335 q 286 304 293 318 q 272 263 272 281 q 333 189 272 221 q 375 183 350 183 q 496 238 446 183 q 546 363 546 292 l 546 378 q 533 435 540 407 q 496 479 526 463 q 386 519 456 501 q 129 383 204 519 q 96 267 96 335 q 131 135 96 194 q 233 42 168 71 q 382 13 297 13 l 432 13 q 529 35 490 24 q 590 57 568 46 q 714 168 657 89 q 770 258 739 203 q 840 389 801 313 q 918 538 886 479 q 968 628 950 597 q 1119 814 1044 753 l 1115 818 m 675 828 q 771 854 718 854 q 899 824 811 854 q 1028 794 988 794 q 1100 808 1067 794 q 992 767 1050 767 q 861 801 953 767 q 725 836 769 836 q 675 828 700 836 m 665 817 q 631 729 631 778 q 665 663 631 682 q 742 644 699 644 q 868 694 826 644 q 874 707 871 697 l 876 696 q 711 618 786 618 q 674 622 692 618 l 628 643 q 594 710 594 664 q 665 817 594 763 m 901 956 q 894 963 894 956 l 896 965 q 989 1025 897 969 q 1011 1033 1003 1033 q 1035 1032 1033 1033 q 1045 1020 1039 1029 q 1061 997 1051 1011 q 1082 963 1079 971 l 1079 957 l 1075 956 q 1015 1000 1067 958 q 901 956 906 956 "},"":{"ha":858,"x_min":58,"x_max":1222,"o":"m 1115 818 q 1167 849 1126 829 q 1221 868 1208 868 q 1175 844 1222 854 q 960 535 1074 753 q 838 306 885 392 q 771 193 790 221 q 532 35 697 89 q 311 0 367 0 q 171 38 226 0 q 58 222 58 96 q 104 374 58 300 q 219 485 150 449 q 404 540 329 540 q 500 513 457 540 q 586 390 586 464 q 483 210 586 300 q 343 169 379 169 q 270 192 300 169 q 240 256 240 214 q 244 282 240 269 q 304 339 274 319 q 298 326 303 335 q 286 304 293 318 q 272 263 272 281 q 333 189 272 221 q 375 183 350 183 q 496 238 446 183 q 546 363 546 292 l 546 378 q 533 435 540 407 q 496 479 526 463 q 386 519 456 501 q 129 383 204 519 q 96 267 96 335 q 131 135 96 194 q 233 42 168 71 q 382 13 297 13 l 432 13 q 529 35 490 24 q 590 57 568 46 q 714 168 657 89 q 770 258 739 203 q 840 389 801 313 q 918 538 886 479 q 968 628 950 597 q 1119 814 1044 753 l 1115 818 m 675 828 q 771 854 718 854 q 899 824 811 854 q 1028 794 988 794 q 1100 808 1067 794 q 992 767 1050 767 q 861 801 953 767 q 725 836 769 836 q 675 828 700 836 m 665 817 q 631 729 631 778 q 665 663 631 682 q 742 644 699 644 q 868 694 826 644 q 874 707 871 697 l 876 696 q 711 618 786 618 q 674 622 692 618 l 628 643 q 594 710 594 664 q 665 817 594 763 m 1063 1000 q 1088 981 1088 1000 q 1071 956 1089 965 q 1058 953 1063 953 q 1039 968 1046 953 q 1036 976 1036 974 q 1063 1000 1036 1000 m 965 1000 q 990 981 990 1000 q 974 956 992 965 q 961 953 965 953 q 942 968 949 953 q 939 976 939 974 q 965 1000 939 1000 "},"":{"ha":932,"x_min":69,"x_max":1467,"o":"m 1467 756 q 1435 774 1453 756 q 1403 794 1417 792 q 1243 829 1335 829 q 915 731 1083 829 q 1238 867 1049 867 q 1467 756 1429 867 m 111 40 q 208 11 140 11 q 304 25 264 11 l 165 67 q 111 40 133 67 m 664 417 l 493 417 q 365 315 446 351 q 309 307 333 310 q 265 304 285 304 q 138 353 179 304 q 86 511 86 413 q 119 639 86 551 q 310 810 160 742 q 567 868 440 868 q 804 808 703 868 q 965 625 911 743 q 988 481 988 558 q 893 207 988 322 q 450 3 756 3 q 385 5 418 3 q 317 13 351 7 q 206 0 256 0 q 71 40 115 0 q 69 49 69 43 q 101 74 69 67 q 124 76 111 75 q 151 76 136 76 q 201 74 171 76 q 272 65 232 71 q 344 57 313 60 q 394 54 375 54 q 571 251 499 129 q 606 312 582 271 q 664 417 629 353 m 728 438 l 864 438 l 864 417 l 717 417 q 597 211 640 271 q 421 54 525 111 q 500 42 435 50 l 576 31 q 760 92 674 31 q 885 242 836 147 q 938 456 938 344 q 868 678 938 585 q 807 586 840 643 q 733 450 774 529 l 728 438 m 250 438 l 490 438 q 514 517 514 474 q 490 590 514 569 q 446 621 479 600 q 347 578 407 621 q 456 653 369 638 q 513 631 488 653 q 543 576 538 608 q 507 438 543 499 l 675 438 q 693 467 685 453 q 708 494 701 482 q 783 609 744 558 q 863 696 822 660 q 519 856 724 856 q 324 813 447 856 q 131 496 131 683 q 132 463 131 469 q 211 354 171 372 q 306 336 249 336 q 424 361 367 336 q 475 417 451 389 l 250 417 l 250 438 "},"":{"ha":1246,"x_min":76,"x_max":1607,"o":"m 522 22 q 776 215 636 67 q 958 481 915 365 q 993 633 993 572 q 976 742 993 685 q 832 822 938 822 l 815 822 q 799 819 801 819 q 639 614 639 769 q 679 531 639 563 q 742 508 706 508 q 765 513 754 508 q 800 561 800 543 q 797 585 800 582 q 807 589 803 589 q 819 581 813 589 q 826 563 824 569 q 831 554 829 557 q 811 510 821 521 q 777 480 800 490 q 732 469 754 469 q 687 480 707 469 q 651 507 667 490 q 628 546 636 524 q 619 593 619 568 q 686 756 619 669 q 863 842 776 842 q 1000 775 951 842 q 1043 647 1033 726 q 1326 857 1186 857 q 1353 858 1332 858 q 1432 846 1379 858 q 1479 838 1460 840 q 1513 835 1499 835 q 1592 868 1560 835 l 1606 868 q 1585 831 1607 843 l 1540 807 q 1329 671 1419 767 q 1260 588 1293 632 q 1199 492 1226 543 q 1153 408 1179 456 q 1096 300 1128 361 q 1032 131 1032 182 q 1050 69 1032 96 q 1106 39 1071 39 q 1181 75 1138 39 q 1235 146 1224 113 q 1197 88 1211 110 q 1178 61 1183 67 q 1089 21 1140 21 q 1014 46 1031 21 q 1001 82 1001 60 q 1131 449 1001 271 q 1197 535 1153 479 q 1308 675 1242 592 q 1460 794 1376 736 q 1308 819 1378 819 q 1172 783 1229 819 q 1036 592 1089 710 q 994 497 1019 553 q 938 365 969 440 q 799 179 881 244 q 536 18 632 49 q 392 -4 469 -4 q 135 104 231 -4 q 76 258 76 171 q 93 360 76 293 q 175 468 108 417 q 300 524 242 518 q 392 532 363 532 q 590 436 549 532 q 610 367 610 390 q 540 231 610 292 q 394 171 472 171 q 314 193 349 171 q 275 263 275 219 q 310 347 275 329 q 336 357 325 357 q 371 332 364 357 q 349 323 357 326 q 339 318 342 319 q 313 296 317 307 q 310 281 310 285 l 310 274 q 317 247 310 261 q 335 220 324 232 q 360 199 346 208 q 386 189 374 190 q 421 185 407 185 q 468 193 444 185 q 511 217 492 201 q 545 251 531 232 q 564 294 560 271 q 572 350 572 332 q 514 468 572 418 q 386 519 457 519 q 275 496 354 519 q 220 466 246 486 q 174 420 194 446 q 140 363 154 394 q 119 299 125 332 q 324 25 119 89 q 433 7 374 7 q 522 22 481 7 m 1093 972 l 1101 983 l 1117 999 q 1168 1025 1143 1026 q 1228 1003 1192 1025 q 1241 995 1235 997 q 1251 992 1247 993 l 1261 989 q 1304 1011 1281 989 l 1308 1013 l 1314 1011 l 1315 1006 l 1313 1001 l 1290 979 q 1246 956 1267 956 q 1231 958 1239 956 l 1213 967 l 1178 983 q 1151 993 1160 993 q 1113 974 1136 993 l 1101 964 l 1096 961 l 1092 963 l 1090 965 l 1090 967 l 1093 972 "},"":{"ha":672,"x_min":40,"x_max":1000,"o":"m 704 865 q 753 869 743 869 q 989 758 897 869 q 1000 703 1000 732 q 988 644 1000 669 q 939 618 961 618 q 922 629 929 618 q 956 699 956 660 q 951 724 956 711 q 853 818 924 786 q 715 850 804 838 q 363 710 532 850 q 139 396 206 578 q 89 214 89 256 q 111 114 89 160 q 183 42 138 61 q 283 25 228 24 q 299 26 292 25 l 308 26 l 321 26 q 486 113 411 50 q 549 176 518 139 q 610 261 579 213 q 694 399 654 315 q 726 531 726 467 q 703 636 726 582 q 617 674 665 674 q 585 669 601 674 q 433 554 497 633 q 367 379 364 468 q 380 330 368 347 q 407 307 392 313 q 424 301 413 301 q 446 308 431 301 q 471 314 461 315 q 474 301 474 306 q 433 263 474 288 q 388 267 400 263 q 354 300 369 274 q 339 368 339 326 q 375 490 339 425 q 399 528 382 501 q 447 599 417 556 q 653 699 574 699 q 728 672 706 699 q 765 622 742 656 q 769 592 768 608 q 771 557 771 576 q 653 269 771 410 q 594 202 629 242 q 510 113 558 163 q 229 -17 340 -17 q 93 50 149 -17 q 40 196 40 115 q 57 297 40 239 q 74 346 65 321 q 89 396 82 371 q 332 713 146 574 q 704 865 514 847 m 547 1032 q 533 1057 531 1042 q 556 1071 535 1074 q 571 1061 563 1069 l 581 1051 l 669 967 q 672 958 674 963 l 672 956 l 669 954 q 663 953 663 951 l 653 958 l 547 1032 "},"":{"ha":672,"x_min":40,"x_max":1000,"o":"m 704 865 q 753 869 743 869 q 989 758 897 869 q 1000 703 1000 732 q 988 644 1000 669 q 939 618 961 618 q 922 629 929 618 q 956 699 956 660 q 951 724 956 711 q 853 818 924 786 q 715 850 804 838 q 363 710 532 850 q 139 396 206 578 q 89 214 89 256 q 111 114 89 160 q 183 42 138 61 q 283 25 228 24 q 299 26 292 25 l 308 26 l 321 26 q 486 113 411 50 q 549 176 518 139 q 610 261 579 213 q 694 399 654 315 q 726 531 726 467 q 703 636 726 582 q 617 674 665 674 q 585 669 601 674 q 433 554 497 633 q 367 379 364 468 q 380 330 368 347 q 407 307 392 313 q 424 301 413 301 q 446 308 431 301 q 471 314 461 315 q 474 301 474 306 q 433 263 474 288 q 388 267 400 263 q 354 300 369 274 q 339 368 339 326 q 375 490 339 425 q 399 528 382 501 q 447 599 417 556 q 653 699 574 699 q 728 672 706 699 q 765 622 742 656 q 769 592 768 608 q 771 557 771 576 q 653 269 771 410 q 594 202 629 242 q 510 113 558 163 q 229 -17 340 -17 q 93 50 149 -17 q 40 196 40 115 q 57 297 40 239 q 74 346 65 321 q 89 396 82 371 q 332 713 146 574 q 704 865 514 847 m 911 1032 l 796 953 l 797 954 q 797 956 799 956 q 789 954 793 956 l 786 956 l 786 958 q 789 967 785 963 l 888 1061 q 903 1071 896 1069 q 925 1057 924 1074 q 911 1032 928 1042 "},"":{"ha":672,"x_min":40,"x_max":1000,"o":"m 704 865 q 753 869 743 869 q 989 758 897 869 q 1000 703 1000 732 q 988 644 1000 669 q 939 618 961 618 q 922 629 929 618 q 956 699 956 660 q 951 724 956 711 q 853 818 924 786 q 715 850 804 838 q 363 710 532 850 q 139 396 206 578 q 89 214 89 256 q 111 114 89 160 q 183 42 138 61 q 283 25 228 24 q 299 26 292 25 l 308 26 l 321 26 q 486 113 411 50 q 549 176 518 139 q 610 261 579 213 q 694 399 654 315 q 726 531 726 467 q 703 636 726 582 q 617 674 665 674 q 585 669 601 674 q 433 554 497 633 q 367 379 364 468 q 380 330 368 347 q 407 307 392 313 q 424 301 413 301 q 446 308 431 301 q 471 314 461 315 q 474 301 474 306 q 433 263 474 288 q 388 267 400 263 q 354 300 369 274 q 339 368 339 326 q 375 490 339 425 q 399 528 382 501 q 447 599 417 556 q 653 699 574 699 q 728 672 706 699 q 765 622 742 656 q 769 592 768 608 q 771 557 771 576 q 653 269 771 410 q 594 202 629 242 q 510 113 558 163 q 229 -17 340 -17 q 93 50 149 -17 q 40 196 40 115 q 57 297 40 239 q 74 346 65 321 q 89 396 82 371 q 332 713 146 574 q 704 865 514 847 m 797 949 q 790 956 790 949 l 792 958 q 885 1018 793 963 q 907 1026 899 1026 q 931 1025 929 1026 q 941 1013 935 1022 q 957 990 947 1004 q 978 956 975 964 l 975 950 l 971 949 q 911 993 963 951 q 797 949 801 949 "},"":{"ha":672,"x_min":40,"x_max":1000,"o":"m 704 865 q 753 869 743 869 q 989 758 897 869 q 1000 703 1000 732 q 988 644 1000 669 q 939 618 961 618 q 922 629 929 618 q 956 699 956 660 q 951 724 956 711 q 853 818 924 786 q 715 850 804 838 q 363 710 532 850 q 139 396 206 578 q 89 214 89 256 q 111 114 89 160 q 183 42 138 61 q 283 25 228 24 q 299 26 292 25 l 308 26 l 321 26 q 486 113 411 50 q 549 176 518 139 q 610 261 579 213 q 694 399 654 315 q 726 531 726 467 q 703 636 726 582 q 617 674 665 674 q 585 669 601 674 q 433 554 497 633 q 367 379 364 468 q 380 330 368 347 q 407 307 392 313 q 424 301 413 301 q 446 308 431 301 q 471 314 461 315 q 474 301 474 306 q 433 263 474 288 q 388 267 400 263 q 354 300 369 274 q 339 368 339 326 q 375 490 339 425 q 399 528 382 501 q 447 599 417 556 q 653 699 574 699 q 728 672 706 699 q 765 622 742 656 q 769 592 768 608 q 771 557 771 576 q 653 269 771 410 q 594 202 629 242 q 510 113 558 163 q 229 -17 340 -17 q 93 50 149 -17 q 40 196 40 115 q 57 297 40 239 q 74 346 65 321 q 89 396 82 371 q 332 713 146 574 q 704 865 514 847 m 768 972 l 776 983 l 792 999 q 843 1025 818 1026 q 903 1003 867 1025 q 916 995 910 997 q 926 992 922 993 l 936 989 q 979 1011 956 989 l 983 1013 l 989 1011 l 990 1006 l 988 1001 l 965 979 q 921 956 942 956 q 906 958 914 956 l 888 967 l 853 983 q 826 993 835 993 q 788 974 811 993 l 776 964 l 771 961 l 767 963 l 765 965 l 765 967 l 768 972 "},"":{"ha":672,"x_min":40,"x_max":1000,"o":"m 704 865 q 753 869 743 869 q 989 758 897 869 q 1000 703 1000 732 q 988 644 1000 669 q 939 618 961 618 q 922 629 929 618 q 956 699 956 660 q 951 724 956 711 q 853 818 924 786 q 715 850 804 838 q 363 710 532 850 q 139 396 206 578 q 89 214 89 256 q 111 114 89 160 q 183 42 138 61 q 283 25 228 24 q 299 26 292 25 l 308 26 l 321 26 q 486 113 411 50 q 549 176 518 139 q 610 261 579 213 q 694 399 654 315 q 726 531 726 467 q 703 636 726 582 q 617 674 665 674 q 585 669 601 674 q 433 554 497 633 q 367 379 364 468 q 380 330 368 347 q 407 307 392 313 q 424 301 413 301 q 446 308 431 301 q 471 314 461 315 q 474 301 474 306 q 433 263 474 288 q 388 267 400 263 q 354 300 369 274 q 339 368 339 326 q 375 490 339 425 q 399 528 382 501 q 447 599 417 556 q 653 699 574 699 q 728 672 706 699 q 765 622 742 656 q 769 592 768 608 q 771 557 771 576 q 653 269 771 410 q 594 202 629 242 q 510 113 558 163 q 229 -17 340 -17 q 93 50 149 -17 q 40 196 40 115 q 57 297 40 239 q 74 346 65 321 q 89 396 82 371 q 332 713 146 574 q 704 865 514 847 m 888 1000 q 913 981 913 1000 q 896 956 914 965 q 883 953 888 953 q 864 968 871 953 q 861 976 861 974 q 888 1000 861 1000 m 790 1000 q 815 981 815 1000 q 799 956 817 965 q 786 953 790 953 q 767 968 774 953 q 764 976 764 974 q 790 1000 764 1000 "},"":{"ha":471,"x_min":85,"x_max":386,"o":"m 85 68 l 214 197 l 86 326 l 107 347 l 236 219 l 365 349 l 386 326 l 257 197 l 386 68 l 365 47 l 236 176 l 106 47 l 85 68 "},"":{"ha":672,"x_min":40,"x_max":1000,"o":"m 704 865 q 753 869 743 869 q 989 758 897 869 q 1000 703 1000 732 q 988 644 1000 669 q 939 618 961 618 q 922 629 929 618 q 956 699 956 660 q 951 724 956 711 q 853 818 924 786 q 715 850 804 838 q 363 710 532 850 q 139 396 206 578 q 89 214 89 256 q 111 114 89 160 q 183 42 138 61 q 283 25 228 24 q 299 26 292 25 l 308 26 l 321 26 q 486 113 411 50 q 549 176 518 139 q 610 261 579 213 q 694 399 654 315 q 726 531 726 467 q 703 636 726 582 q 617 674 665 674 q 585 669 601 674 q 433 554 497 633 q 367 379 364 468 q 380 330 368 347 q 407 307 392 313 q 424 301 413 301 q 446 308 431 301 q 471 314 461 315 q 474 301 474 306 q 433 263 474 288 q 388 267 400 263 q 354 300 369 274 q 339 368 339 326 q 375 490 339 425 q 399 528 382 501 q 447 599 417 556 q 653 699 574 699 q 728 672 706 699 q 765 622 742 656 q 769 592 768 608 q 771 557 771 576 q 653 269 771 410 q 594 202 629 242 q 510 113 558 163 q 229 -17 340 -17 q 93 50 149 -17 q 40 196 40 115 q 57 297 40 239 q 74 346 65 321 q 89 396 82 371 q 332 713 146 574 q 704 865 514 847 "},"":{"ha":929,"x_min":56,"x_max":1179,"o":"m 535 858 q 657 768 617 835 q 686 657 686 719 q 619 464 686 585 q 585 409 613 453 q 507 286 557 365 q 454 203 472 232 q 433 169 436 174 q 403 108 415 139 q 381 46 390 78 q 446 15 399 15 q 479 19 464 15 q 744 261 624 106 q 832 388 785 313 q 938 565 879 464 q 1092 832 1060 782 l 1179 846 q 1043 639 1126 772 q 843 310 960 506 q 760 174 800 238 q 682 51 719 110 q 694 28 688 40 q 710 15 700 17 q 810 51 757 15 q 832 67 810 51 q 899 115 854 83 l 897 103 q 851 71 874 88 q 807 39 829 54 q 706 1 750 1 q 661 10 683 1 q 639 51 639 28 q 661 108 639 74 q 685 158 682 142 q 536 47 599 81 q 360 0 451 0 q 333 46 333 10 q 333 67 333 57 q 335 88 333 76 q 429 244 374 150 q 560 464 485 338 q 631 613 619 569 q 635 656 635 631 q 590 781 635 719 q 340 844 543 844 q 183 763 257 831 q 92 611 107 694 q 167 451 92 472 q 261 438 214 438 q 365 478 333 438 q 400 522 390 496 q 408 553 406 540 q 414 575 411 567 q 409 603 411 593 q 406 619 407 614 q 381 654 397 643 q 340 664 375 654 q 286 644 314 664 l 243 613 q 360 693 283 679 q 398 685 378 689 q 425 665 418 681 q 443 607 443 643 q 418 528 443 567 q 208 399 315 399 q 69 483 94 411 q 56 554 56 521 q 85 658 56 610 q 164 754 115 714 q 229 801 194 781 q 303 839 264 822 q 447 868 369 868 q 535 858 504 868 m 757 1032 q 743 1057 740 1042 q 765 1071 744 1074 q 781 1061 772 1069 l 790 1051 l 879 967 q 882 958 883 963 l 882 956 l 879 954 q 872 953 872 951 l 863 958 l 757 1032 "},"":{"ha":929,"x_min":56,"x_max":1179,"o":"m 535 858 q 657 768 617 835 q 686 657 686 719 q 619 464 686 585 q 585 409 613 453 q 507 286 557 365 q 454 203 472 232 q 433 169 436 174 q 403 108 415 139 q 381 46 390 78 q 446 15 399 15 q 479 19 464 15 q 744 261 624 106 q 832 388 785 313 q 938 565 879 464 q 1092 832 1060 782 l 1179 846 q 1043 639 1126 772 q 843 310 960 506 q 760 174 800 238 q 682 51 719 110 q 694 28 688 40 q 710 15 700 17 q 810 51 757 15 q 832 67 810 51 q 899 115 854 83 l 897 103 q 851 71 874 88 q 807 39 829 54 q 706 1 750 1 q 661 10 683 1 q 639 51 639 28 q 661 108 639 74 q 685 158 682 142 q 536 47 599 81 q 360 0 451 0 q 333 46 333 10 q 333 67 333 57 q 335 88 333 76 q 429 244 374 150 q 560 464 485 338 q 631 613 619 569 q 635 656 635 631 q 590 781 635 719 q 340 844 543 844 q 183 763 257 831 q 92 611 107 694 q 167 451 92 472 q 261 438 214 438 q 365 478 333 438 q 400 522 390 496 q 408 553 406 540 q 414 575 411 567 q 409 603 411 593 q 406 619 407 614 q 381 654 397 643 q 340 664 375 654 q 286 644 314 664 l 243 613 q 360 693 283 679 q 398 685 378 689 q 425 665 418 681 q 443 607 443 643 q 418 528 443 567 q 208 399 315 399 q 69 483 94 411 q 56 554 56 521 q 85 658 56 610 q 164 754 115 714 q 229 801 194 781 q 303 839 264 822 q 447 868 369 868 q 535 858 504 868 m 1051 1033 l 936 954 l 938 956 q 938 957 939 957 q 929 956 936 958 l 926 957 l 926 961 q 929 968 924 963 l 1028 1064 q 1043 1072 1035 1071 q 1065 1058 1064 1076 q 1051 1033 1068 1043 "},"":{"ha":929,"x_min":56,"x_max":1179,"o":"m 535 858 q 657 768 617 835 q 686 657 686 719 q 619 464 686 585 q 585 409 613 453 q 507 286 557 365 q 454 203 472 232 q 433 169 436 174 q 403 108 415 139 q 381 46 390 78 q 446 15 399 15 q 479 19 464 15 q 744 261 624 106 q 832 388 785 313 q 938 565 879 464 q 1092 832 1060 782 l 1179 846 q 1043 639 1126 772 q 843 310 960 506 q 760 174 800 238 q 682 51 719 110 q 694 28 688 40 q 710 15 700 17 q 810 51 757 15 q 832 67 810 51 q 899 115 854 83 l 897 103 q 851 71 874 88 q 807 39 829 54 q 706 1 750 1 q 661 10 683 1 q 639 51 639 28 q 661 108 639 74 q 685 158 682 142 q 536 47 599 81 q 360 0 451 0 q 333 46 333 10 q 333 67 333 57 q 335 88 333 76 q 429 244 374 150 q 560 464 485 338 q 631 613 619 569 q 635 656 635 631 q 590 781 635 719 q 340 844 543 844 q 183 763 257 831 q 92 611 107 694 q 167 451 92 472 q 261 438 214 438 q 365 478 333 438 q 400 522 390 496 q 408 553 406 540 q 414 575 411 567 q 409 603 411 593 q 406 619 407 614 q 381 654 397 643 q 340 664 375 654 q 286 644 314 664 l 243 613 q 360 693 283 679 q 398 685 378 689 q 425 665 418 681 q 443 607 443 643 q 418 528 443 567 q 208 399 315 399 q 69 483 94 411 q 56 554 56 521 q 85 658 56 610 q 164 754 115 714 q 229 801 194 781 q 303 839 264 822 q 447 868 369 868 q 535 858 504 868 m 815 956 q 808 963 808 956 l 810 965 q 903 1025 811 969 q 925 1033 917 1033 q 949 1032 947 1033 q 959 1020 953 1029 q 975 997 965 1011 q 996 963 993 971 l 993 957 l 989 956 q 929 1000 981 958 q 815 956 819 956 "},"":{"ha":929,"x_min":56,"x_max":1179,"o":"m 535 858 q 657 768 617 835 q 686 657 686 719 q 619 464 686 585 q 585 409 613 453 q 507 286 557 365 q 454 203 472 232 q 433 169 436 174 q 403 108 415 139 q 381 46 390 78 q 446 15 399 15 q 479 19 464 15 q 744 261 624 106 q 832 388 785 313 q 938 565 879 464 q 1092 832 1060 782 l 1179 846 q 1043 639 1126 772 q 843 310 960 506 q 760 174 800 238 q 682 51 719 110 q 694 28 688 40 q 710 15 700 17 q 810 51 757 15 q 832 67 810 51 q 899 115 854 83 l 897 103 q 851 71 874 88 q 807 39 829 54 q 706 1 750 1 q 661 10 683 1 q 639 51 639 28 q 661 108 639 74 q 685 158 682 142 q 536 47 599 81 q 360 0 451 0 q 333 46 333 10 q 333 67 333 57 q 335 88 333 76 q 429 244 374 150 q 560 464 485 338 q 631 613 619 569 q 635 656 635 631 q 590 781 635 719 q 340 844 543 844 q 183 763 257 831 q 92 611 107 694 q 167 451 92 472 q 261 438 214 438 q 365 478 333 438 q 400 522 390 496 q 408 553 406 540 q 414 575 411 567 q 409 603 411 593 q 406 619 407 614 q 381 654 397 643 q 340 664 375 654 q 286 644 314 664 l 243 613 q 360 693 283 679 q 398 685 378 689 q 425 665 418 681 q 443 607 443 643 q 418 528 443 567 q 208 399 315 399 q 69 483 94 411 q 56 554 56 521 q 85 658 56 610 q 164 754 115 714 q 229 801 194 781 q 303 839 264 822 q 447 868 369 868 q 535 858 504 868 m 976 1000 q 1001 981 1001 1000 q 985 956 1003 965 q 972 953 976 953 q 953 968 960 953 q 950 976 950 974 q 976 1000 950 1000 m 879 1000 q 904 981 904 1000 q 888 956 906 965 q 875 953 879 953 q 856 968 863 953 q 853 976 853 974 q 879 1000 853 1000 "},"":{"ha":793,"x_min":-196,"x_max":1426,"o":"m 178 -365 q -4 -399 71 -399 q -85 -388 -50 -399 q -146 -360 -121 -378 q -183 -322 -171 -343 q -196 -281 -196 -301 q -135 -226 -196 -226 q -100 -250 -107 -226 q -128 -256 -126 -254 q -149 -273 -143 -260 q -154 -296 -154 -286 q -74 -371 -154 -340 q 26 -386 -28 -386 q 78 -382 47 -386 q 150 -368 110 -378 q 343 -257 249 -344 q 482 -81 414 -190 q 521 -12 493 -61 q 592 115 549 36 l 586 119 q 551 85 564 97 q 531 67 538 72 q 465 31 497 38 q 419 96 465 81 q 357 108 382 108 q 261 79 311 108 q 234 60 254 75 q 178 19 214 46 q 235 67 201 39 q 314 135 269 96 q 453 279 400 213 q 585 596 585 449 q 540 749 585 676 q 342 840 479 840 q 122 756 203 840 q 57 613 57 686 q 85 511 57 569 q 199 449 132 457 q 239 444 221 444 q 360 483 304 444 q 417 585 417 524 q 360 671 417 631 q 300 694 325 694 q 228 640 250 694 l 217 640 q 285 706 242 697 l 315 711 q 340 713 322 713 q 410 683 381 713 q 439 613 439 653 q 342 463 439 529 q 206 421 281 421 q 36 514 69 421 q 19 589 19 557 q 61 704 19 647 q 96 742 74 719 q 150 794 118 765 q 369 864 231 864 q 578 778 500 864 q 642 613 642 706 q 492 296 642 472 q 290 99 397 185 q 408 122 325 122 q 474 97 446 122 q 488 83 481 90 q 506 67 496 75 q 600 167 553 110 q 694 300 647 225 q 769 419 725 349 q 875 583 814 490 q 1079 799 969 725 q 1276 864 1178 864 q 1414 803 1386 864 q 1426 754 1426 774 q 1389 710 1426 710 l 1389 728 q 1353 807 1389 788 q 1300 817 1333 817 q 1169 806 1218 817 q 1050 747 1110 790 q 872 536 954 678 q 839 472 869 533 q 747 289 808 410 q 396 -242 551 -99 q 293 -321 329 -301 q 249 -341 278 -331 q 178 -365 219 -351 m 975 1033 l 860 954 l 861 956 q 861 957 863 957 q 853 956 860 958 l 850 957 l 850 961 q 853 968 847 963 l 951 1064 q 967 1072 958 1071 q 989 1058 988 1076 q 975 1033 992 1043 "},"":{"ha":1389,"x_min":0,"x_max":0,"o":""},"":{"ha":258,"x_min":-231,"x_max":886,"o":"m 86 128 q 150 204 115 164 q 225 288 185 244 q 221 253 222 272 q 219 215 219 235 l 219 185 q 219 168 219 176 q 221 153 219 160 q 210 71 221 100 q 157 11 197 35 q 111 0 126 0 q 64 56 64 0 q 72 93 64 69 l 65 90 q -176 -278 -29 -85 l -231 -275 q 50 144 -111 -147 q 329 583 226 457 q 694 804 458 738 q 742 803 718 803 q 790 803 767 803 q 876 768 850 801 q 886 733 886 747 q 881 713 886 722 q 856 703 867 700 q 836 744 858 729 l 794 769 q 753 774 772 772 q 718 776 733 776 q 335 560 497 776 q 256 431 311 528 q 199 335 229 386 q 133 224 168 283 q 114 184 126 208 q 86 128 101 160 m 164 201 l 85 107 l 117 117 q 136 93 136 108 q 108 68 136 72 q 85 58 88 65 q 82 43 82 51 q 121 10 82 10 q 182 67 165 10 q 188 104 188 83 q 164 201 188 147 m 236 51 l 294 104 q 234 44 263 68 q 182 6 206 19 q 236 51 200 19 "},"":{"ha":365,"x_min":-8,"x_max":372,"o":"m 67 129 q 56 105 61 118 q 43 75 50 92 q 49 38 46 57 q 69 15 53 19 q 89 13 75 10 q 110 19 99 14 q 44 0 82 0 q 10 10 19 0 q -8 64 -8 36 q 18 133 -8 94 q 33 153 21 139 q 68 194 46 168 q 143 254 97 228 q 233 285 194 285 q 267 278 250 285 q 292 265 283 271 q 301 258 300 260 q 328 267 319 265 l 328 247 l 204 43 q 209 19 201 31 q 229 11 217 8 q 372 92 301 26 q 294 29 350 61 q 201 0 240 0 q 165 26 169 0 q 158 39 164 36 q 138 33 150 43 q 122 22 125 24 q 271 236 193 74 q 231 269 261 250 q 214 272 217 272 q 156 243 182 272 q 67 129 94 178 m 108 422 q 94 447 92 432 q 117 461 96 464 q 132 451 124 460 l 142 442 l 231 357 q 233 349 235 353 l 233 346 l 231 344 q 224 343 224 342 l 214 349 l 108 422 "},"":{"ha":365,"x_min":-8,"x_max":381,"o":"m 67 129 q 56 105 61 118 q 43 75 50 92 q 49 38 46 57 q 69 15 53 19 q 89 13 75 10 q 110 19 99 14 q 44 0 82 0 q 10 10 19 0 q -8 64 -8 36 q 18 133 -8 94 q 33 153 21 139 q 68 194 46 168 q 143 254 97 228 q 233 285 194 285 q 267 278 250 285 q 292 265 283 271 q 301 258 300 260 q 328 267 319 265 l 328 247 l 204 43 q 209 19 201 31 q 229 11 217 8 q 372 92 301 26 q 294 29 350 61 q 201 0 240 0 q 165 26 169 0 q 158 39 164 36 q 138 33 150 43 q 122 22 125 24 q 271 236 193 74 q 231 269 261 250 q 214 272 217 272 q 156 243 182 272 q 67 129 94 178 m 364 424 l 249 344 q 242 346 246 344 l 239 347 l 239 351 q 242 358 236 353 l 340 454 q 356 463 347 461 q 378 449 376 467 q 364 424 381 433 "},"":{"ha":365,"x_min":-8,"x_max":372,"o":"m 67 129 q 56 105 61 118 q 43 75 50 92 q 49 38 46 57 q 69 15 53 19 q 89 13 75 10 q 110 19 99 14 q 44 0 82 0 q 10 10 19 0 q -8 64 -8 36 q 18 133 -8 94 q 33 153 21 139 q 68 194 46 168 q 143 254 97 228 q 233 285 194 285 q 267 278 250 285 q 292 265 283 271 q 301 258 300 260 q 328 267 319 265 l 328 247 l 204 43 q 209 19 201 31 q 229 11 217 8 q 372 92 301 26 q 294 29 350 61 q 201 0 240 0 q 165 26 169 0 q 158 39 164 36 q 138 33 150 43 q 122 22 125 24 q 271 236 193 74 q 231 269 261 250 q 214 272 217 272 q 156 243 182 272 q 67 129 94 178 m 176 346 q 169 353 169 346 l 171 356 q 264 415 172 360 q 286 424 278 424 q 310 422 308 424 q 320 410 314 419 q 336 388 326 401 q 357 353 354 361 l 354 347 l 350 346 q 290 390 342 349 q 176 346 181 346 "},"":{"ha":365,"x_min":-8,"x_max":399,"o":"m 67 129 q 56 105 61 118 q 43 75 50 92 q 49 38 46 57 q 69 15 53 19 q 89 13 75 10 q 110 19 99 14 q 44 0 82 0 q 10 10 19 0 q -8 64 -8 36 q 18 133 -8 94 q 33 153 21 139 q 68 194 46 168 q 143 254 97 228 q 233 285 194 285 q 267 278 250 285 q 292 265 283 271 q 301 258 300 260 q 328 267 319 265 l 328 247 l 204 43 q 209 19 201 31 q 229 11 217 8 q 372 92 301 26 q 294 29 350 61 q 201 0 240 0 q 165 26 169 0 q 158 39 164 36 q 138 33 150 43 q 122 22 125 24 q 271 236 193 74 q 231 269 261 250 q 214 272 217 272 q 156 243 182 272 q 67 129 94 178 m 176 363 l 185 374 l 200 389 q 251 415 226 417 q 311 393 275 415 q 324 385 318 388 q 335 382 331 383 l 344 379 q 388 401 364 379 l 392 403 l 397 401 l 399 396 l 396 392 l 374 369 q 329 346 350 346 q 314 349 322 346 l 296 357 l 261 374 q 235 383 243 383 q 196 364 219 383 l 185 354 l 179 351 l 175 353 l 174 356 l 174 357 l 176 363 "},"":{"ha":365,"x_min":-8,"x_max":372,"o":"m 67 129 q 56 105 61 118 q 43 75 50 92 q 49 38 46 57 q 69 15 53 19 q 89 13 75 10 q 110 19 99 14 q 44 0 82 0 q 10 10 19 0 q -8 64 -8 36 q 18 133 -8 94 q 33 153 21 139 q 68 194 46 168 q 143 254 97 228 q 233 285 194 285 q 267 278 250 285 q 292 265 283 271 q 301 258 300 260 q 328 267 319 265 l 328 247 l 204 43 q 209 19 201 31 q 229 11 217 8 q 372 92 301 26 q 294 29 350 61 q 201 0 240 0 q 165 26 169 0 q 158 39 164 36 q 138 33 150 43 q 122 22 125 24 q 271 236 193 74 q 231 269 261 250 q 214 272 217 272 q 156 243 182 272 q 67 129 94 178 m 322 390 q 347 371 347 390 q 331 346 349 356 q 318 343 322 343 q 299 358 306 343 q 296 367 296 364 q 322 390 296 390 m 225 390 q 250 371 250 390 q 233 346 251 356 q 221 343 225 343 q 201 358 208 343 q 199 367 199 364 q 225 390 199 390 "},"":{"ha":365,"x_min":-8,"x_max":372,"o":"m 67 129 q 56 105 61 118 q 43 75 50 92 q 49 38 46 57 q 69 15 53 19 q 89 13 75 10 q 110 19 99 14 q 44 0 82 0 q 10 10 19 0 q -8 64 -8 36 q 18 133 -8 94 q 33 153 21 139 q 68 194 46 168 q 143 254 97 228 q 233 285 194 285 q 267 278 250 285 q 292 265 283 271 q 301 258 300 260 q 328 267 319 265 l 328 247 l 204 43 q 209 19 201 31 q 229 11 217 8 q 372 92 301 26 q 294 29 350 61 q 201 0 240 0 q 165 26 169 0 q 158 39 164 36 q 138 33 150 43 q 122 22 125 24 q 271 236 193 74 q 231 269 261 250 q 214 272 217 272 q 156 243 182 272 q 67 129 94 178 m 249 399 q 264 435 249 419 q 301 451 279 451 q 338 435 322 451 q 354 399 354 419 q 301 346 354 346 q 249 399 249 346 m 265 399 q 301 364 267 363 q 336 399 336 365 q 301 433 336 433 q 265 399 264 433 "},"":{"ha":532,"x_min":-8,"x_max":540,"o":"m 406 17 q 440 28 411 17 q 533 119 513 58 q 469 36 533 75 q 365 0 410 0 q 311 39 319 0 q 201 0 247 0 q 165 19 172 0 q 153 40 158 40 q 145 36 153 40 q 122 22 138 32 q 271 236 193 74 q 214 272 239 272 q 111 194 169 272 q 43 75 65 135 q 49 38 46 57 q 69 15 53 19 q 81 11 74 11 q 110 19 94 11 q 44 0 82 0 q -8 64 -8 0 q 81 204 -8 125 q 233 285 169 285 q 272 276 257 285 q 301 258 286 268 q 328 267 319 265 l 328 247 q 203 38 203 40 q 225 11 203 11 q 310 43 261 11 q 308 58 308 50 q 307 72 307 65 q 374 210 307 140 q 507 278 440 278 q 540 254 540 278 q 482 168 540 199 q 375 133 451 151 q 349 79 349 115 q 406 17 349 17 m 383 153 l 394 147 q 461 178 433 156 q 496 239 496 204 q 486 251 496 251 q 383 153 424 251 "},"":{"ha":217,"x_min":-50,"x_max":247,"o":"m 49 3 q 58 1 53 1 l 61 1 l 64 1 l 68 10 l 50 6 l 49 3 m 65 -42 q 106 -82 106 -42 q 68 -131 106 -112 q 3 -146 35 -146 q -50 -128 -50 -146 q -4 -126 -50 -126 q 74 -87 74 -126 q 56 -65 74 -65 q 19 -72 36 -65 l 17 -72 l 15 -71 l 15 -68 q 49 3 15 -67 q -4 58 -4 10 q 46 183 -4 110 q 147 268 97 256 q 203 278 182 278 q 247 244 247 278 q 203 214 247 214 q 193 215 196 214 q 198 222 196 218 q 203 229 200 226 q 232 256 232 243 q 203 274 232 274 q 124 239 175 274 q 58 154 86 213 q 32 47 32 100 q 50 22 32 33 q 82 11 68 11 q 168 46 119 11 q 238 111 211 76 q 206 71 225 90 q 163 37 186 51 q 115 13 140 22 q 64 1 89 3 l 39 -47 q 65 -42 56 -42 "},"":{"ha":208,"x_min":-15,"x_max":219,"o":"m 163 272 q 175 274 169 274 q 183 275 181 275 q 217 247 219 275 q 157 163 211 193 q 115 147 142 156 q 51 131 89 139 q 25 76 25 113 q 29 44 25 58 q 82 14 43 14 q 169 56 113 14 q 210 117 194 72 q 99 11 210 53 q 42 -1 61 -1 q -11 32 -1 -1 q -15 69 -15 50 q 40 197 -15 140 q 163 272 90 250 m 158 249 q 60 150 97 238 l 71 144 q 136 175 108 153 q 172 235 172 203 q 170 246 175 242 q 158 249 165 250 m 15 422 q 1 447 0 433 q 24 461 3 464 q 39 451 31 460 l 49 442 l 138 357 q 140 349 142 353 l 140 346 l 138 344 q 131 343 131 342 l 121 349 l 15 422 "},"":{"ha":208,"x_min":-15,"x_max":306,"o":"m 163 272 q 175 274 169 274 q 183 275 181 275 q 217 247 219 275 q 157 163 211 193 q 115 147 142 156 q 51 131 89 139 q 25 76 25 113 q 29 44 25 58 q 82 14 43 14 q 169 56 113 14 q 210 117 194 72 q 99 11 210 53 q 42 -1 61 -1 q -11 32 -1 -1 q -15 69 -15 50 q 40 197 -15 140 q 163 272 90 250 m 158 249 q 60 150 97 238 l 71 144 q 136 175 108 153 q 172 235 172 203 q 170 246 175 242 q 158 249 165 250 m 289 424 l 174 344 q 167 346 171 344 l 164 347 l 164 351 q 167 358 161 353 l 265 454 q 281 463 272 461 q 303 449 301 467 q 289 424 306 433 "},"":{"ha":208,"x_min":-15,"x_max":264,"o":"m 163 272 q 175 274 169 274 q 183 275 181 275 q 217 247 219 275 q 157 163 211 193 q 115 147 142 156 q 51 131 89 139 q 25 76 25 113 q 29 44 25 58 q 82 14 43 14 q 169 56 113 14 q 210 117 194 72 q 99 11 210 53 q 42 -1 61 -1 q -11 32 -1 -1 q -15 69 -15 50 q 40 197 -15 140 q 163 272 90 250 m 158 249 q 60 150 97 238 l 71 144 q 136 175 108 153 q 172 235 172 203 q 170 246 175 242 q 158 249 165 250 m 83 346 q 76 353 76 346 l 78 356 q 171 415 79 360 q 193 424 185 424 q 217 422 215 424 q 227 410 221 419 q 243 388 233 401 q 264 353 261 361 l 261 347 l 257 346 q 197 390 249 349 q 83 346 88 346 "},"":{"ha":208,"x_min":-15,"x_max":267,"o":"m 163 272 q 175 274 169 274 q 183 275 181 275 q 217 247 219 275 q 157 163 211 193 q 115 147 142 156 q 51 131 89 139 q 25 76 25 113 q 29 44 25 58 q 82 14 43 14 q 169 56 113 14 q 210 117 194 72 q 99 11 210 53 q 42 -1 61 -1 q -11 32 -1 -1 q -15 69 -15 50 q 40 197 -15 140 q 163 272 90 250 m 158 249 q 60 150 97 238 l 71 144 q 136 175 108 153 q 172 235 172 203 q 170 246 175 242 q 158 249 165 250 m 240 390 q 265 371 265 390 q 249 346 267 356 q 236 343 240 343 q 217 358 224 343 q 214 367 214 364 q 240 390 214 390 m 143 390 q 168 371 168 390 q 151 346 169 356 q 139 343 143 343 q 119 358 126 343 q 117 367 117 364 q 143 390 117 390 "},"":{"ha":146,"x_min":-32,"x_max":175,"o":"m 99 272 l 139 271 l 19 32 q 42 15 25 15 q 82 31 49 15 l 175 110 q 108 35 118 44 q 19 -1 64 -1 q 8 -1 14 -1 q -6 1 1 0 q -32 35 -32 6 q -28 47 -32 43 l 99 272 m 3 422 q -10 447 -12 432 q 11 461 -8 464 q 26 451 18 460 l 36 442 l 125 357 q 128 349 129 353 l 128 346 l 125 344 q 118 343 118 342 l 108 349 l 3 422 "},"":{"ha":146,"x_min":-32,"x_max":288,"o":"m 99 272 l 139 271 l 19 32 q 42 15 25 15 q 82 31 49 15 l 175 110 q 108 35 118 44 q 19 -1 64 -1 q 8 -1 14 -1 q -6 1 1 0 q -32 35 -32 6 q -28 47 -32 43 l 99 272 m 271 422 l 156 343 q 149 344 154 342 l 146 346 l 146 349 q 149 357 144 353 l 247 451 q 263 461 256 460 q 285 447 283 464 q 271 422 288 432 "},"":{"ha":146,"x_min":-32,"x_max":235,"o":"m 99 272 l 139 271 l 19 32 q 42 15 25 15 q 82 31 49 15 l 175 110 q 108 35 118 44 q 19 -1 64 -1 q 8 -1 14 -1 q -6 1 1 0 q -32 35 -32 6 q -28 47 -32 43 l 99 272 m 54 346 q 47 353 47 346 l 49 356 q 142 415 50 360 q 164 424 156 424 q 188 422 186 424 q 198 410 192 419 q 214 388 204 401 q 235 353 232 361 l 232 347 l 228 346 q 168 390 219 349 q 54 346 58 346 "},"":{"ha":146,"x_min":-32,"x_max":225,"o":"m 99 272 l 139 271 l 19 32 q 42 15 25 15 q 82 31 49 15 l 175 110 q 108 35 118 44 q 19 -1 64 -1 q 8 -1 14 -1 q -6 1 1 0 q -32 35 -32 6 q -28 47 -32 43 l 99 272 m 199 390 q 224 371 224 390 q 207 346 225 356 q 194 343 199 343 q 175 358 182 343 q 172 367 172 364 q 199 390 172 390 m 101 390 q 126 371 126 390 q 110 346 128 356 q 97 343 101 343 q 78 358 85 343 q 75 367 75 364 q 101 390 75 390 "},"":{"ha":342,"x_min":3,"x_max":426,"o":"m 213 329 l 311 388 q 278 443 300 421 q 221 449 257 449 q 272 468 240 468 q 346 425 324 468 q 347 417 347 421 q 349 410 347 413 l 417 447 l 426 431 l 353 388 q 354 371 354 379 q 354 357 354 364 q 193 57 354 203 q 163 38 178 47 q 133 21 149 29 l 129 19 l 128 19 q 69 6 101 6 q 3 56 3 6 l 11 106 q 229 265 83 250 q 157 236 207 258 q 126 204 144 224 q 85 158 108 185 q 44 58 44 110 q 46 39 44 43 q 104 17 68 17 q 117 17 111 17 q 129 19 122 18 q 243 138 196 54 q 267 190 250 153 q 311 290 285 228 q 318 342 318 321 q 318 354 318 349 q 317 367 318 360 l 222 313 l 213 329 m 339 110 l 328 81 q 185 0 267 26 q 261 39 189 7 q 300 74 281 57 q 339 110 319 92 "},"":{"ha":367,"x_min":-39,"x_max":399,"o":"m 113 265 q 139 274 121 274 q 160 253 164 274 q 222 268 200 272 q 97 160 149 243 q 72 117 93 153 q 13 14 51 81 q -21 6 -3 10 q -39 13 -32 6 l 113 265 m 226 269 q 245 272 236 271 q 261 272 254 272 q 317 242 311 272 q 263 140 308 208 q 207 36 218 74 q 225 19 203 19 q 313 53 258 19 q 372 118 346 72 q 311 46 363 81 q 193 0 242 0 q 161 22 165 0 q 169 60 158 40 l 192 96 q 272 225 219 154 q 275 233 275 231 q 239 269 275 258 l 226 269 m 176 363 l 185 374 l 200 389 q 251 415 226 417 q 311 393 275 415 q 324 385 318 388 q 335 382 331 383 l 344 379 q 388 401 364 379 l 392 403 l 397 401 l 399 396 l 396 392 l 374 369 q 329 346 350 346 q 314 349 322 346 l 296 357 l 261 374 q 235 383 243 383 q 196 364 219 383 l 185 354 l 179 351 l 175 353 l 174 356 l 174 357 l 176 363 "},"":{"ha":325,"x_min":0,"x_max":331,"o":"m 189 274 q 221 279 201 279 q 282 240 276 279 q 242 115 282 176 q 146 28 206 61 q 68 -1 92 -1 q 7 26 22 -1 q 0 61 0 43 q 74 208 0 143 q 189 274 118 247 m 272 57 l 331 113 q 194 1 306 39 q 228 24 208 10 q 272 57 247 38 m 154 243 q 47 71 47 157 q 56 28 47 40 q 94 17 65 17 q 201 101 142 17 q 238 206 238 154 q 189 253 238 253 q 154 243 169 253 m 65 422 q 51 447 49 432 q 74 461 53 464 q 89 451 81 460 l 99 442 l 188 357 q 190 349 192 353 l 190 346 l 188 344 q 181 343 181 342 l 171 349 l 65 422 "},"":{"ha":325,"x_min":0,"x_max":410,"o":"m 189 274 q 221 279 201 279 q 282 240 276 279 q 242 115 282 176 q 146 28 206 61 q 68 -1 92 -1 q 7 26 22 -1 q 0 61 0 43 q 74 208 0 143 q 189 274 118 247 m 272 57 l 331 113 q 194 1 306 39 q 228 24 208 10 q 272 57 247 38 m 154 243 q 47 71 47 157 q 56 28 47 40 q 94 17 65 17 q 201 101 142 17 q 238 206 238 154 q 189 253 238 253 q 154 243 169 253 m 393 422 l 278 343 q 271 344 276 342 l 268 346 l 268 349 q 271 357 267 353 l 369 451 q 385 461 378 460 q 407 447 406 464 q 393 422 410 432 "},"":{"ha":325,"x_min":0,"x_max":357,"o":"m 189 274 q 221 279 201 279 q 282 240 276 279 q 242 115 282 176 q 146 28 206 61 q 68 -1 92 -1 q 7 26 22 -1 q 0 61 0 43 q 74 208 0 143 q 189 274 118 247 m 272 57 l 331 113 q 194 1 306 39 q 228 24 208 10 q 272 57 247 38 m 154 243 q 47 71 47 157 q 56 28 47 40 q 94 17 65 17 q 201 101 142 17 q 238 206 238 154 q 189 253 238 253 q 154 243 169 253 m 176 346 q 169 353 169 346 l 171 356 q 264 415 172 360 q 286 424 278 424 q 310 422 308 424 q 320 410 314 419 q 336 388 326 401 q 357 353 354 361 l 354 347 l 350 346 q 290 390 342 349 q 176 346 181 346 "},"":{"ha":325,"x_min":0,"x_max":372,"o":"m 189 274 q 221 279 201 279 q 282 240 276 279 q 242 115 282 176 q 146 28 206 61 q 68 -1 92 -1 q 7 26 22 -1 q 0 61 0 43 q 74 208 0 143 q 189 274 118 247 m 272 57 l 331 113 q 194 1 306 39 q 228 24 208 10 q 272 57 247 38 m 154 243 q 47 71 47 157 q 56 28 47 40 q 94 17 65 17 q 201 101 142 17 q 238 206 238 154 q 189 253 238 253 q 154 243 169 253 m 150 363 l 158 374 l 174 389 q 225 415 200 417 q 285 393 249 415 q 298 385 292 388 q 308 382 304 383 l 318 379 q 361 401 338 379 l 365 403 l 371 401 l 372 396 l 369 392 l 347 369 q 303 346 324 346 q 288 349 296 346 l 269 357 l 235 374 q 208 383 217 383 q 169 364 193 383 l 158 354 l 153 351 l 149 353 l 147 356 l 147 357 l 150 363 "},"":{"ha":325,"x_min":0,"x_max":333,"o":"m 189 274 q 221 279 201 279 q 282 240 276 279 q 242 115 282 176 q 146 28 206 61 q 68 -1 92 -1 q 7 26 22 -1 q 0 61 0 43 q 74 208 0 143 q 189 274 118 247 m 272 57 l 331 113 q 194 1 306 39 q 228 24 208 10 q 272 57 247 38 m 154 243 q 47 71 47 157 q 56 28 47 40 q 94 17 65 17 q 201 101 142 17 q 238 206 238 154 q 189 253 238 253 q 154 243 169 253 m 307 390 q 332 371 332 390 q 315 346 333 356 q 303 343 307 343 q 283 358 290 343 q 281 367 281 364 q 307 390 281 390 m 210 390 q 235 371 235 390 q 218 346 236 356 q 206 343 210 343 q 186 358 193 343 q 183 367 183 364 q 210 390 183 390 "},"":{"ha":325,"x_min":0,"x_max":331,"o":"m 189 274 q 221 279 201 279 q 282 240 276 279 q 242 115 282 176 q 146 28 206 61 q 68 -1 92 -1 q 7 26 22 -1 q 0 61 0 43 q 74 208 0 143 q 189 274 118 247 m 272 57 l 331 113 q 194 1 306 39 q 228 24 208 10 q 272 57 247 38 m 154 243 q 47 71 47 157 q 56 28 47 40 q 94 17 65 17 q 201 101 142 17 q 238 206 238 154 q 189 253 238 253 q 154 243 169 253 "},"":{"ha":358,"x_min":-11,"x_max":365,"o":"m 129 274 l 149 274 q 164 268 160 274 q 128 210 146 239 q 92 151 110 181 q 38 33 43 76 q 54 14 35 14 q 158 54 75 14 q 242 175 200 106 l 297 269 l 342 268 q 301 197 333 250 q 213 54 269 143 q 213 43 213 49 q 214 32 213 38 q 224 15 217 17 q 301 42 251 8 q 365 99 342 69 q 246 1 346 44 q 215 -3 233 -3 q 176 11 192 -3 l 158 43 q 29 -1 58 -1 q -11 33 -11 -1 q 35 135 -11 57 q 76 199 53 164 q 129 274 99 233 m 108 422 q 94 447 92 432 q 117 461 96 464 q 132 451 124 460 l 142 442 l 231 357 q 233 349 235 353 l 233 346 l 231 344 q 224 343 224 342 l 214 349 l 108 422 "},"":{"ha":358,"x_min":-11,"x_max":408,"o":"m 129 274 l 149 274 q 164 268 160 274 q 128 210 146 239 q 92 151 110 181 q 38 33 43 76 q 54 14 35 14 q 158 54 75 14 q 242 175 200 106 l 297 269 l 342 268 q 301 197 333 250 q 213 54 269 143 q 213 43 213 49 q 214 32 213 38 q 224 15 217 17 q 301 42 251 8 q 365 99 342 69 q 246 1 346 44 q 215 -3 233 -3 q 176 11 192 -3 l 158 43 q 29 -1 58 -1 q -11 33 -11 -1 q 35 135 -11 57 q 76 199 53 164 q 129 274 99 233 m 392 424 l 276 344 q 269 346 274 344 l 267 347 l 267 351 q 269 358 264 353 l 368 454 q 383 463 375 461 q 406 449 404 467 q 392 424 408 433 "},"":{"ha":358,"x_min":-11,"x_max":365,"o":"m 129 274 l 149 274 q 164 268 160 274 q 128 210 146 239 q 92 151 110 181 q 38 33 43 76 q 54 14 35 14 q 158 54 75 14 q 242 175 200 106 l 297 269 l 342 268 q 301 197 333 250 q 213 54 269 143 q 213 43 213 49 q 214 32 213 38 q 224 15 217 17 q 301 42 251 8 q 365 99 342 69 q 246 1 346 44 q 215 -3 233 -3 q 176 11 192 -3 l 158 43 q 29 -1 58 -1 q -11 33 -11 -1 q 35 135 -11 57 q 76 199 53 164 q 129 274 99 233 m 176 346 q 169 353 169 346 l 171 356 q 264 415 172 360 q 286 424 278 424 q 310 422 308 424 q 320 410 314 419 q 336 388 326 401 q 357 353 354 361 l 354 347 l 350 346 q 290 390 342 349 q 176 346 181 346 "},"":{"ha":358,"x_min":-11,"x_max":365,"o":"m 129 274 l 149 274 q 164 268 160 274 q 128 210 146 239 q 92 151 110 181 q 38 33 43 76 q 54 14 35 14 q 158 54 75 14 q 242 175 200 106 l 297 269 l 342 268 q 301 197 333 250 q 213 54 269 143 q 213 43 213 49 q 214 32 213 38 q 224 15 217 17 q 301 42 251 8 q 365 99 342 69 q 246 1 346 44 q 215 -3 233 -3 q 176 11 192 -3 l 158 43 q 29 -1 58 -1 q -11 33 -11 -1 q 35 135 -11 57 q 76 199 53 164 q 129 274 99 233 m 322 390 q 347 371 347 390 q 331 346 349 356 q 318 343 322 343 q 299 358 306 343 q 296 367 296 364 q 322 390 296 390 m 225 390 q 250 371 250 390 q 233 346 251 356 q 221 343 225 343 q 201 358 208 343 q 199 367 199 364 q 225 390 199 390 "},"":{"ha":361,"x_min":-194,"x_max":408,"o":"m -157 -240 q -119 -261 -149 -261 q -50 -247 -104 -261 q 40 -144 -15 -236 q 115 -17 42 -143 l 75 -28 q 107 -4 76 -24 q 131 29 131 11 q 28 0 57 0 q -14 40 -14 0 q -10 69 -14 61 l 114 272 q 136 279 121 279 q 148 278 142 279 q 161 276 154 278 l 28 40 q 51 24 39 32 q 75 19 63 15 q 206 129 151 53 q 292 282 229 163 q 300 279 297 279 q 316 283 306 279 q 331 286 326 286 q 346 274 339 286 q 190 11 239 131 q 361 122 300 46 q 365 111 368 122 q 364 101 364 106 q 364 96 364 99 q 168 -8 247 10 q 43 -181 103 -119 q -135 -287 -36 -260 q -174 -279 -154 -283 q -194 -253 -194 -275 q -167 -190 -194 -222 q -152 -178 -165 -189 q -112 -143 -139 -167 q 71 -29 -35 -76 l -76 -122 q -161 -224 -161 -199 q -157 -240 -161 -232 m 392 424 l 276 344 q 269 346 274 344 l 267 347 l 267 351 q 269 358 264 353 l 368 454 q 383 463 375 461 q 406 449 404 467 q 392 424 408 433 "},"":{"ha":361,"x_min":-194,"x_max":368,"o":"m -157 -240 q -119 -261 -149 -261 q -50 -247 -104 -261 q 40 -144 -15 -236 q 115 -17 42 -143 l 75 -28 q 107 -4 76 -24 q 131 29 131 11 q 28 0 57 0 q -14 40 -14 0 q -10 69 -14 61 l 114 272 q 136 279 121 279 q 148 278 142 279 q 161 276 154 278 l 28 40 q 51 24 39 32 q 75 19 63 15 q 206 129 151 53 q 292 282 229 163 q 300 279 297 279 q 316 283 306 279 q 331 286 326 286 q 346 274 339 286 q 190 11 239 131 q 361 122 300 46 q 365 111 368 122 q 364 101 364 106 q 364 96 364 99 q 168 -8 247 10 q 43 -181 103 -119 q -135 -287 -36 -260 q -174 -279 -154 -283 q -194 -253 -194 -275 q -167 -190 -194 -222 q -152 -178 -165 -189 q -112 -143 -139 -167 q 71 -29 -35 -76 l -76 -122 q -161 -224 -161 -199 q -157 -240 -161 -232 m 308 390 q 333 371 333 390 q 317 346 335 356 q 304 343 308 343 q 285 358 292 343 q 282 367 282 364 q 308 390 282 390 m 211 390 q 236 371 236 390 q 219 346 238 356 q 207 343 211 343 q 188 358 194 343 q 185 367 185 364 q 211 390 185 390 "},"":{"ha":0,"x_min":0,"x_max":0,"o":""},"":{"ha":344,"x_min":0,"x_max":0,"o":""},"":{"ha":344,"x_min":0,"x_max":0,"o":""},"":{"ha":197,"x_min":-231,"x_max":886,"o":"m -176 -278 l -231 -275 q 50 144 -111 -147 q 329 583 226 457 q 694 804 458 738 q 742 803 718 803 q 790 803 767 803 q 876 768 850 801 q 886 733 886 747 q 881 713 886 722 q 856 703 867 700 q 836 744 858 729 l 794 769 q 753 774 772 772 q 718 776 733 776 q 335 560 497 776 q 256 431 311 528 q 199 335 229 386 q 133 224 168 283 q -2 -24 75 101 q -176 -278 -79 -149 "},"":{"ha":342,"x_min":3,"x_max":354,"o":"m 221 449 q 272 468 240 468 q 346 425 324 468 q 354 357 354 389 q 193 57 354 203 q 69 6 113 6 q 3 56 3 6 l 11 106 q 229 265 83 250 q 157 236 207 258 q 126 204 144 224 q 85 158 108 185 q 44 58 44 110 q 46 39 44 43 q 104 17 68 17 q 133 21 118 17 q 243 139 196 56 q 311 290 258 167 q 318 342 318 321 q 278 443 318 403 q 221 449 257 449 m 339 110 l 328 81 q 185 0 267 26 q 261 39 189 7 q 300 74 281 57 q 339 110 319 92 "},"":{"ha":317,"x_min":-14,"x_max":335,"o":"m 335 583 l 333 564 q 150 268 275 464 q 163 267 156 267 q 182 269 171 268 l 231 274 q 279 233 279 274 q 103 7 279 83 q 70 4 92 7 q 38 1 49 1 q 0 8 17 1 q -14 47 -14 26 q 85 243 -14 75 q 166 378 118 296 q 276 571 214 460 q 322 585 296 585 q 335 583 332 585 m 319 99 q 256 38 307 64 q 172 0 256 35 q 210 25 178 13 q 251 46 240 39 q 285 74 260 51 q 319 99 307 93 m 47 85 q 31 49 31 60 q 81 19 31 19 l 94 19 q 233 226 218 81 q 175 254 201 254 q 101 193 135 254 q 47 85 86 168 "}}}
